Varta-SemiBold.ufo
<glyph name="exclam" format="1">
  <advance width="611"/>
  <unicode hex="0021"/>
  <outline>
    <contour>
      <point x="240" y="418" type="line" name="hr01"/>
      <point x="371" y="418" type="line"/>
      <point x="398" y="1165" type="line"/>
      <point x="403" y="1372" type="line"/>
      <point x="208" y="1372" type="line"/>
      <point x="214" y="1165" type="line"/>
    </contour>
    <contour>
      <point x="173" y="113" type="curve" smooth="yes" name="hr02"/>
      <point x="173" y="34"/>
      <point x="232" y="-25"/>
      <point x="306" y="-25" type="curve" smooth="yes"/>
      <point x="379" y="-25"/>
      <point x="439" y="34"/>
      <point x="439" y="113" type="curve" smooth="yes"/>
      <point x="439" y="197"/>
      <point x="379" y="255"/>
      <point x="306" y="255" type="curve" smooth="yes"/>
      <point x="232" y="255"/>
      <point x="173" y="197"/>
    </contour>
  </outline>
</glyph>
<glyph name="dollar" format="1">
  <advance width="1030"/>
  <unicode hex="0024"/>
  <outline>
    <contour>
      <point x="882" y="1190" type="line" name="hr01"/>
      <point x="808" y="1269"/>
      <point x="720" y="1312"/>
      <point x="589" y="1327" type="curve"/>
      <point x="589" y="1531" type="line"/>
      <point x="452" y="1531" type="line"/>
      <point x="452" y="1325" type="line" name="hr02"/>
      <point x="271" y="1294"/>
      <point x="153" y="1162"/>
      <point x="153" y="976" type="curve" smooth="yes"/>
      <point x="153" y="583"/>
      <point x="718" y="641"/>
      <point x="718" y="332" type="curve" smooth="yes"/>
      <point x="718" y="211"/>
      <point x="647" y="135"/>
      <point x="502" y="135" type="curve" smooth="yes"/>
      <point x="382" y="135"/>
      <point x="280" y="174"/>
      <point x="189" y="250" type="curve"/>
      <point x="101" y="115" type="line"/>
      <point x="190" y="34"/>
      <point x="323" y="-9"/>
      <point x="452" y="-22" type="curve"/>
      <point x="452" y="-225" type="line"/>
      <point x="589" y="-225" type="line"/>
      <point x="589" y="-17" type="line" name="hr03"/>
      <point x="786" y="13"/>
      <point x="907" y="151"/>
      <point x="907" y="346" type="curve" smooth="yes"/>
      <point x="907" y="777"/>
      <point x="341" y="707"/>
      <point x="341" y="985" type="curve" smooth="yes"/>
      <point x="341" y="1099"/>
      <point x="417" y="1170"/>
      <point x="537" y="1170" type="curve" smooth="yes"/>
      <point x="644" y="1170"/>
      <point x="705" y="1147"/>
      <point x="781" y="1074" type="curve"/>
    </contour>
  </outline>
</glyph>
<glyph name="percent" format="1">
  <advance width="1700"/>
  <unicode hex="0025"/>
  <outline>
    <contour>
      <point x="378" y="519" type="curve" smooth="yes" name="hr00"/>
      <point x="562" y="519"/>
      <point x="689" y="675"/>
      <point x="689" y="945" type="curve" smooth="yes"/>
      <point x="689" y="1215"/>
      <point x="562" y="1367"/>
      <point x="378" y="1367" type="curve" smooth="yes"/>
      <point x="193" y="1367"/>
      <point x="69" y="1215"/>
      <point x="69" y="945" type="curve" smooth="yes"/>
      <point x="69" y="675"/>
      <point x="193" y="519"/>
    </contour>
    <contour>
      <point x="378" y="635" type="curve" smooth="yes"/>
      <point x="279" y="635"/>
      <point x="211" y="736"/>
      <point x="211" y="945" type="curve" smooth="yes"/>
      <point x="211" y="1155"/>
      <point x="279" y="1251"/>
      <point x="378" y="1251" type="curve" smooth="yes"/>
      <point x="476" y="1251"/>
      <point x="545" y="1155"/>
      <point x="545" y="945" type="curve" smooth="yes"/>
      <point x="545" y="736"/>
      <point x="476" y="635"/>
    </contour>
    <contour>
      <point x="542" y="-25" type="line"/>
      <point x="1280" y="1367" type="line"/>
      <point x="1156" y="1367" type="line"/>
      <point x="419" y="-25" type="line"/>
    </contour>
    <contour>
      <point x="1323" y="-25" type="curve" smooth="yes"/>
      <point x="1507" y="-25"/>
      <point x="1634" y="130"/>
      <point x="1634" y="401" type="curve" smooth="yes"/>
      <point x="1634" y="670"/>
      <point x="1507" y="823"/>
      <point x="1323" y="823" type="curve" smooth="yes"/>
      <point x="1137" y="823"/>
      <point x="1013" y="670"/>
      <point x="1013" y="401" type="curve" smooth="yes"/>
      <point x="1013" y="130"/>
      <point x="1137" y="-25"/>
    </contour>
    <contour>
      <point x="1323" y="92" type="curve" smooth="yes"/>
      <point x="1225" y="92"/>
      <point x="1156" y="192"/>
      <point x="1156" y="401" type="curve" smooth="yes"/>
      <point x="1156" y="610"/>
      <point x="1225" y="707"/>
      <point x="1323" y="707" type="curve" smooth="yes"/>
      <point x="1421" y="707"/>
      <point x="1490" y="610"/>
      <point x="1490" y="401" type="curve" smooth="yes"/>
      <point x="1490" y="192"/>
      <point x="1421" y="92"/>
    </contour>
  </outline>
</glyph>
<glyph name="plus" format="1">
  <advance width="1030"/>
  <unicode hex="002B"/>
  <outline>
    <contour>
      <point x="440" y="209" type="line" name="hr00"/>
      <point x="589" y="209" type="line"/>
      <point x="589" y="604" type="line"/>
      <point x="960" y="604" type="line"/>
      <point x="960" y="747" type="line"/>
      <point x="589" y="747" type="line"/>
      <point x="589" y="1143" type="line"/>
      <point x="440" y="1143" type="line"/>
      <point x="440" y="747" type="line"/>
      <point x="70" y="747" type="line"/>
      <point x="70" y="604" type="line"/>
      <point x="440" y="604" type="line"/>
    </contour>
  </outline>
</glyph>
<glyph name="comma" format="1">
  <advance width="529"/>
  <unicode hex="002C"/>
  <outline>
    <contour>
      <point x="140" y="-377" type="line" name="hr00"/>
      <point x="320" y="-308"/>
      <point x="428" y="-144"/>
      <point x="428" y="41" type="curve" smooth="yes"/>
      <point x="428" y="174"/>
      <point x="370" y="255"/>
      <point x="273" y="255" type="curve" smooth="yes"/>
      <point x="200" y="255"/>
      <point x="137" y="206"/>
      <point x="137" y="127" type="curve" smooth="yes"/>
      <point x="137" y="45"/>
      <point x="198" y="1"/>
      <point x="269" y="1" type="curve" smooth="yes"/>
      <point x="275" y="1"/>
      <point x="282" y="1"/>
      <point x="289" y="2" type="curve"/>
      <point x="289" y="-108"/>
      <point x="217" y="-216"/>
      <point x="96" y="-268" type="curve"/>
    </contour>
  </outline>
</glyph>
<glyph name="zero" format="1">
  <advance width="1030"/>
  <unicode hex="0030"/>
  <outline>
    <contour>
      <point x="515" y="-25" type="curve" smooth="yes" name="hr00"/>
      <point x="787" y="-25"/>
      <point x="942" y="230"/>
      <point x="942" y="676" type="curve" smooth="yes"/>
      <point x="942" y="1122"/>
      <point x="787" y="1367"/>
      <point x="515" y="1367" type="curve" smooth="yes"/>
      <point x="241" y="1367"/>
      <point x="87" y="1122"/>
      <point x="87" y="676" type="curve" smooth="yes"/>
      <point x="87" y="230"/>
      <point x="241" y="-25"/>
    </contour>
    <contour>
      <point x="515" y="129" type="curve" smooth="yes"/>
      <point x="366" y="129"/>
      <point x="273" y="292"/>
      <point x="273" y="676" type="curve" smooth="yes"/>
      <point x="273" y="1059"/>
      <point x="366" y="1214"/>
      <point x="515" y="1214" type="curve" smooth="yes"/>
      <point x="663" y="1214"/>
      <point x="756" y="1059"/>
      <point x="756" y="676" type="curve" smooth="yes"/>
      <point x="756" y="292"/>
      <point x="663" y="129"/>
    </contour>
  </outline>
</glyph>
<glyph name="one" format="1">
  <advance width="1030"/>
  <unicode hex="0031"/>
  <outline>
    <contour>
      <point x="159" y="0" type="line" name="hr00"/>
      <point x="912" y="0" type="line"/>
      <point x="912" y="156" type="line"/>
      <point x="648" y="156" type="line"/>
      <point x="648" y="1346" type="line"/>
      <point x="501" y="1346" type="line"/>
      <point x="425" y="1300"/>
      <point x="339" y="1267"/>
      <point x="215" y="1245" type="curve"/>
      <point x="215" y="1119" type="line"/>
      <point x="455" y="1132" type="line"/>
      <point x="455" y="156" type="line"/>
      <point x="159" y="156" type="line"/>
    </contour>
  </outline>
</glyph>
<glyph name="two" format="1">
  <advance width="1030"/>
  <unicode hex="0032"/>
  <outline>
    <contour>
      <point x="81" y="0" type="line" name="hr00"/>
      <point x="938" y="0" type="line"/>
      <point x="938" y="165" type="line"/>
      <point x="580" y="165" type="line"/>
      <point x="514" y="165"/>
      <point x="432" y="159"/>
      <point x="362" y="152" type="curve"/>
      <point x="653" y="457"/>
      <point x="872" y="729"/>
      <point x="872" y="976" type="curve" smooth="yes"/>
      <point x="872" y="1216"/>
      <point x="719" y="1367"/>
      <point x="472" y="1367" type="curve" smooth="yes"/>
      <point x="299" y="1367"/>
      <point x="181" y="1295"/>
      <point x="69" y="1173" type="curve"/>
      <point x="178" y="1064" type="line"/>
      <point x="252" y="1149"/>
      <point x="342" y="1212"/>
      <point x="448" y="1212" type="curve" smooth="yes"/>
      <point x="607" y="1212"/>
      <point x="686" y="1113"/>
      <point x="686" y="964" type="curve" smooth="yes"/>
      <point x="686" y="758"/>
      <point x="463" y="491"/>
      <point x="81" y="113" type="curve"/>
    </contour>
  </outline>
</glyph>
<glyph name="three" format="1">
  <advance width="1030"/>
  <unicode hex="0033"/>
  <outline>
    <contour>
      <point x="52" y="160" type="line" name="hr01"/>
      <point x="141" y="60"/>
      <point x="278" y="-25"/>
      <point x="488" y="-25" type="curve" smooth="yes"/>
      <point x="740" y="-25"/>
      <point x="925" y="120"/>
      <point x="925" y="353" type="curve" smooth="yes"/>
      <point x="925" y="531"/>
      <point x="803" y="644"/>
      <point x="648" y="682" type="curve"/>
      <point x="648" y="690" type="line"/>
      <point x="788" y="744"/>
      <point x="881" y="862"/>
      <point x="881" y="1015" type="curve" smooth="yes" name="hr02"/>
      <point x="881" y="1229"/>
      <point x="725" y="1367"/>
      <point x="482" y="1367" type="curve" smooth="yes"/>
      <point x="327" y="1367"/>
      <point x="203" y="1307"/>
      <point x="98" y="1211" type="curve"/>
      <point x="200" y="1090" type="line"/>
      <point x="278" y="1167"/>
      <point x="366" y="1212"/>
      <point x="472" y="1212" type="curve" smooth="yes"/>
      <point x="605" y="1212"/>
      <point x="685" y="1130"/>
      <point x="685" y="1001" type="curve" smooth="yes"/>
      <point x="685" y="870"/>
      <point x="598" y="752"/>
      <point x="327" y="752" type="curve"/>
      <point x="327" y="607" type="line"/>
      <point x="634" y="607"/>
      <point x="731" y="508"/>
      <point x="731" y="359" type="curve" smooth="yes" name="hr03"/>
      <point x="731" y="215"/>
      <point x="626" y="134"/>
      <point x="474" y="134" type="curve" smooth="yes"/>
      <point x="328" y="134"/>
      <point x="225" y="204"/>
      <point x="147" y="285" type="curve"/>
    </contour>
  </outline>
</glyph>
<glyph name="four" format="1">
  <advance width="1030"/>
  <unicode hex="0034"/>
  <outline>
    <contour>
      <point x="234" y="504" type="line" name="hr01"/>
      <point x="515" y="954" type="line"/>
      <point x="552" y="1020"/>
      <point x="589" y="1086"/>
      <point x="622" y="1151" type="curve" name="hr02"/>
      <point x="630" y="1151" type="line"/>
      <point x="626" y="1079"/>
      <point x="619" y="958"/>
      <point x="619" y="885" type="curve" smooth="yes"/>
      <point x="619" y="504" type="line"/>
    </contour>
    <contour>
      <point x="974" y="504" type="line"/>
      <point x="801" y="504" type="line"/>
      <point x="801" y="1346" type="line"/>
      <point x="579" y="1346" type="line"/>
      <point x="36" y="480" type="line"/>
      <point x="36" y="351" type="line"/>
      <point x="619" y="351" type="line"/>
      <point x="619" y="0" type="line"/>
      <point x="801" y="0" type="line"/>
      <point x="801" y="351" type="line"/>
      <point x="974" y="351" type="line"/>
    </contour>
  </outline>
</glyph>
<glyph name="five" format="1">
  <advance width="1030"/>
  <unicode hex="0035"/>
  <outline>
    <contour>
      <point x="55" y="153" type="line" name="hr00"/>
      <point x="148" y="60"/>
      <point x="274" y="-25"/>
      <point x="484" y="-25" type="curve" smooth="yes"/>
      <point x="717" y="-25"/>
      <point x="932" y="144"/>
      <point x="932" y="437" type="curve" smooth="yes"/>
      <point x="932" y="722"/>
      <point x="753" y="868"/>
      <point x="524" y="868" type="curve" smooth="yes"/>
      <point x="449" y="868"/>
      <point x="393" y="850"/>
      <point x="333" y="819" type="curve"/>
      <point x="366" y="1180" type="line"/>
      <point x="867" y="1180" type="line"/>
      <point x="867" y="1346" type="line"/>
      <point x="198" y="1346" type="line"/>
      <point x="157" y="711" type="line"/>
      <point x="255" y="649" type="line"/>
      <point x="333" y="700"/>
      <point x="385" y="725"/>
      <point x="472" y="725" type="curve" smooth="yes"/>
      <point x="643" y="725"/>
      <point x="738" y="603"/>
      <point x="738" y="432" type="curve" smooth="yes"/>
      <point x="738" y="250"/>
      <point x="618" y="134"/>
      <point x="463" y="134" type="curve" smooth="yes"/>
      <point x="317" y="134"/>
      <point x="225" y="201"/>
      <point x="147" y="278" type="curve"/>
    </contour>
  </outline>
</glyph>
<glyph name="seven" format="1">
  <advance width="1030"/>
  <unicode hex="0037"/>
  <outline>
    <contour>
      <point x="355" y="0" type="curve" name="hr00"/>
      <point x="554" y="0" type="line"/>
      <point x="571" y="510"/>
      <point x="636" y="837"/>
      <point x="944" y="1226" type="curve"/>
      <point x="944" y="1346" type="line"/>
      <point x="90" y="1346" type="line"/>
      <point x="90" y="1180" type="line"/>
      <point x="729" y="1180" type="line"/>
      <point x="473" y="825"/>
      <point x="373" y="481"/>
    </contour>
  </outline>
</glyph>
<glyph name="eight" format="1">
  <advance width="1030"/>
  <unicode hex="0038"/>
  <outline>
    <contour>
      <point x="256" y="361" type="curve" smooth="yes" name="hr01"/>
      <point x="256" y="473"/>
      <point x="327" y="577"/>
      <point x="423" y="644" type="curve"/>
      <point x="606" y="569"/>
      <point x="762" y="499"/>
      <point x="762" y="341" type="curve" smooth="yes"/>
      <point x="762" y="211"/>
      <point x="680" y="115"/>
      <point x="521" y="115" type="curve" smooth="yes"/>
      <point x="371" y="115"/>
      <point x="256" y="222"/>
    </contour>
    <contour>
      <point x="607" y="741" type="curve" name="hr02"/>
      <point x="454" y="800"/>
      <point x="320" y="875"/>
      <point x="320" y="1022" type="curve" smooth="yes"/>
      <point x="320" y="1144"/>
      <point x="394" y="1226"/>
      <point x="524" y="1226" type="curve" smooth="yes"/>
      <point x="659" y="1226"/>
      <point x="733" y="1131"/>
      <point x="733" y="1007" type="curve" smooth="yes"/>
      <point x="733" y="916"/>
      <point x="688" y="816"/>
    </contour>
    <contour>
      <point x="84" y="344" type="curve" smooth="yes" name="hr03"/>
      <point x="84" y="136"/>
      <point x="268" y="-25"/>
      <point x="517" y="-25" type="curve" smooth="yes"/>
      <point x="791" y="-25"/>
      <point x="946" y="138"/>
      <point x="946" y="334" type="curve" smooth="yes"/>
      <point x="946" y="510"/>
      <point x="837" y="615"/>
      <point x="719" y="682" type="curve"/>
      <point x="719" y="691" type="line"/>
      <point x="800" y="752"/>
      <point x="897" y="882"/>
      <point x="897" y="1017" type="curve" smooth="yes" name="hr04"/>
      <point x="897" y="1222"/>
      <point x="757" y="1367"/>
      <point x="529" y="1367" type="curve" smooth="yes"/>
      <point x="296" y="1367"/>
      <point x="144" y="1226"/>
      <point x="144" y="1022" type="curve" smooth="yes"/>
      <point x="144" y="885"/>
      <point x="228" y="777"/>
      <point x="326" y="708" type="curve"/>
      <point x="326" y="700" type="line"/>
      <point x="199" y="635"/>
      <point x="84" y="511"/>
    </contour>
  </outline>
</glyph>
<glyph name="B" format="1">
  <advance width="1202"/>
  <unicode hex="0042"/>
  <outline>
    <contour>
      <point x="174" y="0" type="line" name="hr01"/>
      <point x="623" y="0" type="line"/>
      <point x="920" y="0"/>
      <point x="1126" y="126"/>
      <point x="1126" y="397" type="curve" smooth="yes"/>
      <point x="1126" y="583"/>
      <point x="1014" y="698"/>
      <point x="819" y="714" type="curve"/>
      <point x="819" y="722" type="line"/>
      <point x="989" y="757"/>
      <point x="1052" y="885"/>
      <point x="1052" y="1018" type="curve" smooth="yes" name="hr02"/>
      <point x="1052" y="1262"/>
      <point x="869" y="1342"/>
      <point x="593" y="1342" type="curve" smooth="yes"/>
      <point x="174" y="1342" type="line"/>
    </contour>
    <contour>
      <point x="370" y="775" type="line"/>
      <point x="370" y="1189" type="line"/>
      <point x="576" y="1189" type="line"/>
      <point x="770" y="1189"/>
      <point x="861" y="1137"/>
      <point x="861" y="997" type="curve" smooth="yes"/>
      <point x="861" y="854"/>
      <point x="777" y="775"/>
      <point x="565" y="775" type="curve" smooth="yes"/>
    </contour>
    <contour>
      <point x="370" y="153" type="line"/>
      <point x="370" y="632" type="line"/>
      <point x="601" y="632" type="line"/>
      <point x="823" y="632"/>
      <point x="935" y="567"/>
      <point x="935" y="408" type="curve" smooth="yes" name="hr03"/>
      <point x="935" y="233"/>
      <point x="816" y="153"/>
      <point x="599" y="153" type="curve" smooth="yes"/>
    </contour>
    <contour>
      <point x="559" y="1050" type="move" name="top"/>
    </contour>
  </outline>
</glyph>
<glyph name="C" format="1">
  <advance width="1164"/>
  <unicode hex="0043"/>
  <outline>
    <contour>
      <point x="99" y="669" type="curve" smooth="yes" name="hr01"/>
      <point x="99" y="217"/>
      <point x="350" y="-25"/>
      <point x="690" y="-25" type="curve" smooth="yes"/>
      <point x="859" y="-25"/>
      <point x="996" y="44"/>
      <point x="1102" y="168" type="curve"/>
      <point x="993" y="286" type="line"/>
      <point x="910" y="195"/>
      <point x="818" y="145"/>
      <point x="694" y="145" type="curve" smooth="yes"/>
      <point x="449" y="145"/>
      <point x="299" y="339"/>
      <point x="299" y="676" type="curve" smooth="yes"/>
      <point x="299" y="1008"/>
      <point x="459" y="1197"/>
      <point x="702" y="1197" type="curve" smooth="yes"/>
      <point x="810" y="1197"/>
      <point x="898" y="1152"/>
      <point x="969" y="1080" type="curve"/>
      <point x="1077" y="1202" type="line" name="hr02"/>
      <point x="996" y="1291"/>
      <point x="860" y="1367"/>
      <point x="699" y="1367" type="curve" smooth="yes" name="hr03"/>
      <point x="355" y="1367"/>
      <point x="99" y="1118"/>
    </contour>
    <contour>
      <point x="694" y="1050" type="move" name="top"/>
    </contour>
  </outline>
</glyph>
<glyph name="D" format="1">
  <advance width="1261"/>
  <unicode hex="0044"/>
  <outline>
    <contour>
      <point x="174" y="0" type="line" name="hr00"/>
      <point x="533" y="0" type="line"/>
      <point x="936" y="0"/>
      <point x="1158" y="238"/>
      <point x="1158" y="679" type="curve" smooth="yes"/>
      <point x="1158" y="1121"/>
      <point x="946" y="1342"/>
      <point x="531" y="1342" type="curve" smooth="yes"/>
      <point x="174" y="1342" type="line"/>
    </contour>
    <contour>
      <point x="370" y="158" type="line"/>
      <point x="370" y="1183" type="line"/>
      <point x="519" y="1183" type="line"/>
      <point x="819" y="1183"/>
      <point x="959" y="1022"/>
      <point x="959" y="679" type="curve" smooth="yes"/>
      <point x="959" y="336"/>
      <point x="809" y="158"/>
      <point x="510" y="158" type="curve" smooth="yes"/>
    </contour>
    <contour>
      <point x="515" y="1050" type="move" name="top"/>
    </contour>
  </outline>
</glyph>
<glyph name="E" format="1">
  <advance width="1078"/>
  <unicode hex="0045"/>
  <outline>
    <contour>
      <point x="174" y="0" type="line" name="hr00"/>
      <point x="981" y="0" type="line"/>
      <point x="981" y="165" type="line"/>
      <point x="370" y="165" type="line"/>
      <point x="370" y="620" type="line"/>
      <point x="868" y="620" type="line"/>
      <point x="868" y="784" type="line"/>
      <point x="370" y="784" type="line"/>
      <point x="370" y="1178" type="line"/>
      <point x="960" y="1178" type="line"/>
      <point x="960" y="1342" type="line"/>
      <point x="174" y="1342" type="line"/>
    </contour>
    <contour>
      <point x="603" y="1050" type="move" name="top"/>
    </contour>
  </outline>
</glyph>
<glyph name="H" format="1">
  <advance width="1334"/>
  <unicode hex="0048"/>
  <outline>
    <contour>
      <point x="174" y="0" type="line" name="hr00"/>
      <point x="370" y="0" type="line"/>
      <point x="370" y="619" type="line"/>
      <point x="965" y="619" type="line"/>
      <point x="965" y="0" type="line"/>
      <point x="1159" y="0" type="line"/>
      <point x="1159" y="1342" type="line"/>
      <point x="965" y="1342" type="line"/>
      <point x="965" y="788" type="line"/>
      <point x="370" y="788" type="line"/>
      <point x="370" y="1342" type="line"/>
      <point x="174" y="1342" type="line"/>
    </contour>
    <contour>
      <point x="666" y="1050" type="move" name="top"/>
    </contour>
  </outline>
</glyph>
<glyph name="K" format="1">
  <advance width="1190"/>
  <unicode hex="004B"/>
  <outline>
    <contour>
      <point x="174" y="0" type="line" name="hr00"/>
      <point x="370" y="0" type="line"/>
      <point x="370" y="414" type="line"/>
      <point x="586" y="673" type="line"/>
      <point x="973" y="0" type="line"/>
      <point x="1189" y="0" type="line"/>
      <point x="705" y="826" type="line"/>
      <point x="1124" y="1342" type="line"/>
      <point x="904" y="1342" type="line"/>
      <point x="374" y="690" type="line"/>
      <point x="370" y="690" type="line"/>
      <point x="370" y="1342" type="line"/>
      <point x="174" y="1342" type="line"/>
    </contour>
    <contour>
      <point x="547" y="1050" type="move" name="top"/>
    </contour>
  </outline>
</glyph>
<glyph name="L" format="1">
  <advance width="998"/>
  <unicode hex="004C"/>
  <outline>
    <contour>
      <point x="174" y="0" type="line" name="hr00"/>
      <point x="945" y="0" type="line"/>
      <point x="945" y="165" type="line"/>
      <point x="370" y="165" type="line"/>
      <point x="370" y="1342" type="line"/>
      <point x="174" y="1342" type="line"/>
    </contour>
    <contour>
      <point x="559" y="1050" type="move" name="top"/>
    </contour>
  </outline>
</glyph>
<glyph name="M" format="1">
  <advance width="1494"/>
  <unicode hex="004D"/>
  <outline>
    <contour>
      <point x="164" y="0" type="line" name="hr01"/>
      <point x="344" y="0" type="line"/>
      <point x="344" y="693" type="line"/>
      <point x="344" y="815"/>
      <point x="340" y="981"/>
      <point x="330" y="1102" type="curve" name="hr02"/>
      <point x="338" y="1102" type="line"/>
      <point x="445" y="801" type="line"/>
      <point x="693" y="132" type="line"/>
      <point x="795" y="132" type="line"/>
      <point x="1042" y="801" type="line"/>
      <point x="1149" y="1102" type="line"/>
      <point x="1157" y="1102" type="line"/>
      <point x="1148" y="981"/>
      <point x="1142" y="815"/>
      <point x="1142" y="693" type="curve" smooth="yes"/>
      <point x="1145" y="0" type="line"/>
      <point x="1328" y="0" type="line"/>
      <point x="1306" y="1342" type="line"/>
      <point x="1094" y="1342" type="line"/>
      <point x="845" y="644" type="line"/>
      <point x="753" y="376" type="line"/>
      <point x="745" y="376" type="line"/>
      <point x="651" y="644" type="line"/>
      <point x="398" y="1342" type="line"/>
      <point x="184" y="1342" type="line"/>
    </contour>
    <contour>
      <point x="746" y="1050" type="move" name="top"/>
    </contour>
  </outline>
</glyph>
<glyph name="P" format="1">
  <advance width="1182"/>
  <unicode hex="0050"/>
  <outline>
    <contour>
      <point x="174" y="0" type="line" name="hr00"/>
      <point x="370" y="0" type="line"/>
      <point x="370" y="499" type="line"/>
      <point x="614" y="499" type="line"/>
      <point x="914" y="499"/>
      <point x="1101" y="645"/>
      <point x="1101" y="933" type="curve" smooth="yes"/>
      <point x="1101" y="1233"/>
      <point x="918" y="1342"/>
      <point x="611" y="1342" type="curve" smooth="yes"/>
      <point x="174" y="1342" type="line"/>
    </contour>
    <contour>
      <point x="370" y="657" type="line"/>
      <point x="370" y="1186" type="line"/>
      <point x="591" y="1186" type="line"/>
      <point x="818" y="1186"/>
      <point x="909" y="1118"/>
      <point x="909" y="933" type="curve" smooth="yes"/>
      <point x="909" y="752"/>
      <point x="823" y="657"/>
      <point x="592" y="657" type="curve" smooth="yes"/>
    </contour>
    <contour>
      <point x="595" y="1050" type="move" name="top"/>
    </contour>
  </outline>
</glyph>
<glyph name="U" format="1">
  <advance width="1320"/>
  <unicode hex="0055"/>
  <outline>
    <contour>
      <point x="168" y="557" type="line" name="hr00"/>
      <point x="168" y="127"/>
      <point x="373" y="-25"/>
      <point x="660" y="-25" type="curve" smooth="yes"/>
      <point x="948" y="-25"/>
      <point x="1152" y="125"/>
      <point x="1152" y="557" type="curve" smooth="yes"/>
      <point x="1152" y="1342" type="line"/>
      <point x="965" y="1342" type="line"/>
      <point x="965" y="549" type="line"/>
      <point x="965" y="238"/>
      <point x="833" y="145"/>
      <point x="660" y="145" type="curve" smooth="yes"/>
      <point x="490" y="145"/>
      <point x="364" y="239"/>
      <point x="364" y="549" type="curve" smooth="yes"/>
      <point x="364" y="1342" type="line"/>
      <point x="168" y="1342" type="line"/>
    </contour>
    <contour>
      <point x="660" y="1050" type="move" name="top"/>
    </contour>
  </outline>
</glyph>
<glyph name="W" format="1">
  <advance width="1611"/>
  <unicode hex="0057"/>
  <outline>
    <contour>
      <point x="316" y="0" type="line" name="hr00"/>
      <point x="550" y="0" type="line"/>
      <point x="737" y="772" type="line"/>
      <point x="760" y="876"/>
      <point x="781" y="975"/>
      <point x="802" y="1078" type="curve"/>
      <point x="811" y="1078" type="line"/>
      <point x="828" y="975"/>
      <point x="850" y="876"/>
      <point x="872" y="772" type="curve"/>
      <point x="1062" y="0" type="line"/>
      <point x="1300" y="0" type="line"/>
      <point x="1571" y="1342" type="line"/>
      <point x="1383" y="1342" type="line"/>
      <point x="1250" y="630" type="line"/>
      <point x="1227" y="488"/>
      <point x="1203" y="344"/>
      <point x="1179" y="198" type="curve"/>
      <point x="1170" y="198" type="line"/>
      <point x="1139" y="344"/>
      <point x="1108" y="490"/>
      <point x="1077" y="630" type="curve"/>
      <point x="899" y="1342" type="line"/>
      <point x="724" y="1342" type="line"/>
      <point x="546" y="630" type="line"/>
      <point x="514" y="488"/>
      <point x="483" y="343"/>
      <point x="454" y="198" type="curve"/>
      <point x="446" y="198" type="line"/>
      <point x="422" y="343"/>
      <point x="396" y="486"/>
      <point x="371" y="630" type="curve"/>
      <point x="239" y="1342" type="line"/>
      <point x="38" y="1342" type="line"/>
    </contour>
    <contour>
      <point x="804" y="1050" type="move" name="top"/>
    </contour>
  </outline>
</glyph>
<glyph name="X" format="1">
  <advance width="1062"/>
  <unicode hex="0058"/>
  <outline>
    <contour>
      <point x="26" y="0" type="line" name="hr00"/>
      <point x="230" y="0" type="line"/>
      <point x="412" y="346" type="line"/>
      <point x="446" y="412"/>
      <point x="478" y="480"/>
      <point x="516" y="562" type="curve"/>
      <point x="524" y="562" type="line"/>
      <point x="566" y="480"/>
      <point x="602" y="412"/>
      <point x="637" y="346" type="curve" smooth="yes"/>
      <point x="822" y="0" type="line"/>
      <point x="1038" y="0" type="line"/>
      <point x="651" y="683" type="line"/>
      <point x="1012" y="1342" type="line"/>
      <point x="806" y="1342" type="line"/>
      <point x="641" y="1014" type="line"/>
      <point x="609" y="953"/>
      <point x="584" y="896"/>
      <point x="549" y="817" type="curve"/>
      <point x="540" y="817" type="line"/>
      <point x="498" y="896"/>
      <point x="470" y="953"/>
      <point x="437" y="1014" type="curve" smooth="yes"/>
      <point x="266" y="1342" type="line"/>
      <point x="50" y="1342" type="line"/>
      <point x="413" y="693" type="line"/>
    </contour>
    <contour>
      <point x="532" y="1050" type="move" name="top"/>
    </contour>
  </outline>
</glyph>
<glyph name="Y" format="1">
  <advance width="985"/>
  <unicode hex="0059"/>
  <outline>
    <contour>
      <point x="395" y="0" type="line" name="hr00"/>
      <point x="589" y="0" type="line"/>
      <point x="589" y="512" type="line"/>
      <point x="993" y="1342" type="line"/>
      <point x="791" y="1342" type="line"/>
      <point x="627" y="977" type="line"/>
      <point x="587" y="877"/>
      <point x="541" y="784"/>
      <point x="497" y="683" type="curve"/>
      <point x="489" y="683" type="line"/>
      <point x="444" y="784"/>
      <point x="404" y="877"/>
      <point x="362" y="977" type="curve" smooth="yes"/>
      <point x="200" y="1342" type="line"/>
      <point x="-9" y="1342" type="line"/>
      <point x="395" y="512" type="line"/>
    </contour>
    <contour>
      <point x="492" y="1050" type="move" name="top"/>
    </contour>
  </outline>
</glyph>
<glyph name="bracketleft" format="1">
  <advance width="636"/>
  <unicode hex="005B"/>
  <outline>
    <contour>
      <point x="190" y="-311" type="line" name="hr00"/>
      <point x="568" y="-311" type="line"/>
      <point x="568" y="-203" type="line"/>
      <point x="334" y="-203" type="line"/>
      <point x="334" y="1341" type="line"/>
      <point x="568" y="1341" type="line"/>
      <point x="568" y="1450" type="line"/>
      <point x="190" y="1450" type="line"/>
    </contour>
  </outline>
</glyph>
<glyph name="asciicircum" format="1">
  <advance width="1030"/>
  <unicode hex="005E"/>
  <outline>
    <contour>
      <point x="119" y="578" type="line" name="hr00"/>
      <point x="285" y="578" type="line"/>
      <point x="411" y="920" type="line"/>
      <point x="512" y="1193" type="line"/>
      <point x="520" y="1193" type="line"/>
      <point x="618" y="920" type="line"/>
      <point x="745" y="578" type="line"/>
      <point x="910" y="578" type="line"/>
      <point x="598" y="1372" type="line"/>
      <point x="431" y="1372" type="line"/>
    </contour>
  </outline>
</glyph>
<glyph name="grave" format="1">
  <advance width="1115"/>
  <unicode hex="0060"/>
  <outline>
    <contour>
      <point x="551" y="1174" type="line" name="hr00"/>
      <point x="697" y="1174" type="line"/>
      <point x="513" y="1466" type="line"/>
      <point x="316" y="1466" type="line"/>
    </contour>
    <contour>
      <point x="619" y="1050" type="move" name="_top"/>
    </contour>
  </outline>
</glyph>
<glyph name="d" format="1">
  <advance width="1144"/>
  <unicode hex="0064"/>
  <outline>
    <contour>
      <point x="93" y="500" type="curve" smooth="yes" name="hr01"/>
      <point x="93" y="156"/>
      <point x="258" y="-25"/>
      <point x="506" y="-25" type="curve" smooth="yes"/>
      <point x="619" y="-25"/>
      <point x="724" y="39"/>
      <point x="801" y="114" type="curve"/>
      <point x="807" y="114" type="line"/>
      <point x="823" y="0" type="line" name="hr02"/>
      <point x="982" y="0" type="line"/>
      <point x="982" y="1454" type="line"/>
      <point x="788" y="1454" type="line"/>
      <point x="788" y="1078" type="line"/>
      <point x="797" y="910" type="line"/>
      <point x="712" y="981"/>
      <point x="638" y="1024"/>
      <point x="523" y="1024" type="curve" smooth="yes"/>
      <point x="290" y="1024"/>
      <point x="93" y="836"/>
    </contour>
    <contour>
      <point x="289" y="502" type="curve" smooth="yes"/>
      <point x="289" y="731"/>
      <point x="403" y="864"/>
      <point x="560" y="864" type="curve" smooth="yes"/>
      <point x="637" y="864"/>
      <point x="710" y="837"/>
      <point x="788" y="766" type="curve"/>
      <point x="788" y="265" type="line"/>
      <point x="712" y="177"/>
      <point x="637" y="136"/>
      <point x="550" y="136" type="curve" smooth="yes"/>
      <point x="379" y="136"/>
      <point x="289" y="264"/>
    </contour>
    <contour>
      <point x="389" y="1050" type="move" name="top"/>
    </contour>
  </outline>
</glyph>
<glyph name="f" format="1">
  <advance width="616"/>
  <unicode hex="0066"/>
  <outline>
    <contour>
      <point x="673" y="1445" type="line" name="hr01"/>
      <point x="628" y="1463"/>
      <point x="566" y="1479"/>
      <point x="500" y="1479" type="curve" smooth="yes"/>
      <point x="288" y="1479"/>
      <point x="195" y="1346"/>
      <point x="195" y="1141" type="curve" smooth="yes"/>
      <point x="195" y="998" type="line" name="hr02"/>
      <point x="59" y="988" type="line"/>
      <point x="59" y="844" type="line" name="hr03"/>
      <point x="195" y="844" type="line"/>
      <point x="195" y="0" type="line"/>
      <point x="387" y="0" type="line"/>
      <point x="387" y="844" type="line"/>
      <point x="592" y="844" type="line"/>
      <point x="592" y="999" type="line"/>
      <point x="387" y="999" type="line"/>
      <point x="387" y="1142" type="line"/>
      <point x="387" y="1265"/>
      <point x="432" y="1323"/>
      <point x="522" y="1323" type="curve" smooth="yes"/>
      <point x="558" y="1323"/>
      <point x="597" y="1314"/>
      <point x="633" y="1299" type="curve"/>
    </contour>
    <contour>
      <point x="289" y="1515" type="move" name="top"/>
    </contour>
  </outline>
</glyph>
<glyph name="h" format="1">
  <advance width="1124"/>
  <unicode hex="0068"/>
  <outline>
    <contour>
      <point x="162" y="0" type="line" name="hr00"/>
      <point x="354" y="0" type="line"/>
      <point x="354" y="715" type="line"/>
      <point x="448" y="808"/>
      <point x="514" y="858"/>
      <point x="612" y="858" type="curve" smooth="yes"/>
      <point x="738" y="858"/>
      <point x="788" y="788"/>
      <point x="788" y="608" type="curve" smooth="yes"/>
      <point x="788" y="0" type="line"/>
      <point x="980" y="0" type="line"/>
      <point x="980" y="634" type="line"/>
      <point x="980" y="888"/>
      <point x="891" y="1024"/>
      <point x="675" y="1024" type="curve" smooth="yes"/>
      <point x="537" y="1024"/>
      <point x="437" y="950"/>
      <point x="346" y="864" type="curve"/>
      <point x="354" y="1065" type="line"/>
      <point x="354" y="1454" type="line"/>
      <point x="162" y="1454" type="line"/>
    </contour>
    <contour>
      <point x="676" y="1050" type="move" name="top"/>
    </contour>
  </outline>
</glyph>
<glyph name="j" format="1">
  <advance width="518"/>
  <unicode hex="006A"/>
  <outline>
    <contour>
      <point x="164" y="-98" type="line" name="hr01"/>
      <point x="164" y="-216"/>
      <point x="138" y="-281"/>
      <point x="44" y="-281" type="curve" smooth="yes"/>
      <point x="10" y="-281"/>
      <point x="-23" y="-274"/>
      <point x="-48" y="-266" type="curve"/>
      <point x="-86" y="-410" type="line"/>
      <point x="-50" y="-424"/>
      <point x="1" y="-436"/>
      <point x="67" y="-436" type="curve" smooth="yes"/>
      <point x="280" y="-436"/>
      <point x="356" y="-302"/>
      <point x="356" y="-96" type="curve" smooth="yes"/>
      <point x="356" y="999" type="line"/>
      <point x="164" y="999" type="line"/>
    </contour>
    <contour>
      <point x="262" y="1194" type="curve" smooth="yes" name="hr02"/>
      <point x="331" y="1194"/>
      <point x="387" y="1242"/>
      <point x="387" y="1312" type="curve" smooth="yes"/>
      <point x="387" y="1382"/>
      <point x="331" y="1428"/>
      <point x="262" y="1428" type="curve" smooth="yes"/>
      <point x="189" y="1428"/>
      <point x="134" y="1382"/>
      <point x="134" y="1312" type="curve" smooth="yes"/>
      <point x="134" y="1242"/>
      <point x="189" y="1194"/>
    </contour>
    <contour>
      <point x="150" y="1050" type="move" name="top"/>
    </contour>
  </outline>
</glyph>
<glyph name="k" format="1">
  <advance width="1034"/>
  <unicode hex="006B"/>
  <outline>
    <contour>
      <point x="162" y="0" type="line" name="hr00"/>
      <point x="351" y="0" type="line"/>
      <point x="351" y="260" type="line"/>
      <point x="526" y="464" type="line"/>
      <point x="806" y="0" type="line"/>
      <point x="1016" y="0" type="line"/>
      <point x="636" y="596" type="line"/>
      <point x="974" y="999" type="line"/>
      <point x="763" y="999" type="line"/>
      <point x="357" y="497" type="line"/>
      <point x="351" y="497" type="line"/>
      <point x="351" y="1454" type="line"/>
      <point x="162" y="1454" type="line"/>
    </contour>
    <contour>
      <point x="589" y="1050" type="move" name="top"/>
    </contour>
  </outline>
</glyph>
<glyph name="n" format="1">
  <advance width="1129"/>
  <unicode hex="006E"/>
  <outline>
    <contour>
      <point x="162" y="0" type="line" name="hr01"/>
      <point x="354" y="0" type="line"/>
      <point x="354" y="715" type="line"/>
      <point x="448" y="808"/>
      <point x="514" y="858"/>
      <point x="611" y="858" type="curve" smooth="yes"/>
      <point x="742" y="858"/>
      <point x="788" y="789"/>
      <point x="788" y="609" type="curve" smooth="yes"/>
      <point x="788" y="0" type="line"/>
      <point x="980" y="0" type="line"/>
      <point x="980" y="635" type="line"/>
      <point x="980" y="889"/>
      <point x="894" y="1024"/>
      <point x="675" y="1024" type="curve" smooth="yes"/>
      <point x="537" y="1024"/>
      <point x="435" y="950"/>
      <point x="343" y="858" type="curve"/>
      <point x="336" y="858" type="line"/>
      <point x="320" y="999" type="line" name="hr02"/>
      <point x="162" y="999" type="line"/>
    </contour>
    <contour>
      <point x="575" y="1050" type="move" name="top"/>
    </contour>
  </outline>
</glyph>
<glyph name="o" format="1">
  <advance width="1115"/>
  <unicode hex="006F"/>
  <outline>
    <contour>
      <point x="91" y="500" type="curve" smooth="yes" name="hr00"/>
      <point x="91" y="163"/>
      <point x="304" y="-25"/>
      <point x="557" y="-25" type="curve" smooth="yes"/>
      <point x="809" y="-25"/>
      <point x="1025" y="163"/>
      <point x="1025" y="500" type="curve" smooth="yes"/>
      <point x="1025" y="840"/>
      <point x="809" y="1024"/>
      <point x="557" y="1024" type="curve" smooth="yes"/>
      <point x="304" y="1024"/>
      <point x="91" y="840"/>
    </contour>
    <contour>
      <point x="290" y="500" type="curve" smooth="yes"/>
      <point x="290" y="723"/>
      <point x="391" y="866"/>
      <point x="557" y="866" type="curve" smooth="yes"/>
      <point x="725" y="866"/>
      <point x="826" y="723"/>
      <point x="826" y="500" type="curve" smooth="yes"/>
      <point x="826" y="277"/>
      <point x="725" y="134"/>
      <point x="557" y="134" type="curve" smooth="yes"/>
      <point x="391" y="134"/>
      <point x="290" y="277"/>
    </contour>
    <contour>
      <point x="558" y="1050" type="move" name="top"/>
    </contour>
  </outline>
</glyph>
<glyph name="p" format="1">
  <advance width="1144"/>
  <unicode hex="0070"/>
  <outline>
    <contour>
      <point x="349" y="89" type="line" name="hr01"/>
      <point x="437" y="17"/>
      <point x="523" y="-25"/>
      <point x="618" y="-25" type="curve" smooth="yes"/>
      <point x="849" y="-25"/>
      <point x="1048" y="166"/>
      <point x="1048" y="513" type="curve" smooth="yes"/>
      <point x="1048" y="829"/>
      <point x="914" y="1024"/>
      <point x="654" y="1024" type="curve" smooth="yes"/>
      <point x="536" y="1024"/>
      <point x="431" y="962"/>
      <point x="343" y="887" type="curve"/>
      <point x="336" y="887" type="line"/>
      <point x="320" y="999" type="line" name="hr02"/>
      <point x="162" y="999" type="line"/>
      <point x="162" y="-412" type="line"/>
      <point x="354" y="-412" type="line"/>
      <point x="354" y="-83" type="line"/>
    </contour>
    <contour>
      <point x="354" y="233" type="curve"/>
      <point x="354" y="735" type="line"/>
      <point x="445" y="819"/>
      <point x="520" y="864"/>
      <point x="601" y="864" type="curve" smooth="yes" name="hr03"/>
      <point x="783" y="864"/>
      <point x="849" y="730"/>
      <point x="849" y="512" type="curve" smooth="yes"/>
      <point x="849" y="269"/>
      <point x="737" y="136"/>
      <point x="580" y="136" type="curve" smooth="yes"/>
      <point x="516" y="136"/>
      <point x="437" y="162"/>
    </contour>
    <contour>
      <point x="646" y="1050" type="move" name="top"/>
    </contour>
  </outline>
</glyph>
<glyph name="q" format="1">
  <advance width="1134"/>
  <unicode hex="0071"/>
  <outline>
    <contour>
      <point x="93" y="497" type="curve" smooth="yes" name="hr01"/>
      <point x="93" y="156"/>
      <point x="249" y="-25"/>
      <point x="507" y="-25" type="curve" smooth="yes"/>
      <point x="621" y="-25"/>
      <point x="719" y="34"/>
      <point x="797" y="107" type="curve"/>
      <point x="788" y="-66" type="line"/>
      <point x="788" y="-412" type="line"/>
      <point x="982" y="-412" type="line"/>
      <point x="982" y="999" type="line" name="hr02"/>
      <point x="829" y="999" type="line"/>
      <point x="810" y="904" type="line"/>
      <point x="805" y="904" type="line"/>
      <point x="717" y="983"/>
      <point x="642" y="1024"/>
      <point x="525" y="1024" type="curve" smooth="yes" name="hr03"/>
      <point x="294" y="1024"/>
      <point x="93" y="829"/>
    </contour>
    <contour>
      <point x="292" y="499" type="curve" smooth="yes"/>
      <point x="292" y="725"/>
      <point x="409" y="864"/>
      <point x="562" y="864" type="curve" smooth="yes"/>
      <point x="642" y="864"/>
      <point x="710" y="837"/>
      <point x="788" y="766" type="curve"/>
      <point x="788" y="265" type="line"/>
      <point x="712" y="177"/>
      <point x="642" y="136"/>
      <point x="553" y="136" type="curve" smooth="yes"/>
      <point x="383" y="136"/>
      <point x="292" y="261"/>
    </contour>
    <contour>
      <point x="537" y="1050" type="move" name="top"/>
    </contour>
  </outline>
</glyph>
<glyph name="r" format="1">
  <advance width="730"/>
  <unicode hex="0072"/>
  <outline>
    <contour>
      <point x="162" y="0" type="line" name="hr01"/>
      <point x="354" y="0" type="line"/>
      <point x="354" y="630" type="line"/>
      <point x="418" y="792"/>
      <point x="518" y="851"/>
      <point x="601" y="851" type="curve" smooth="yes"/>
      <point x="642" y="851"/>
      <point x="666" y="845"/>
      <point x="699" y="835" type="curve"/>
      <point x="735" y="1003" type="line" name="hr02"/>
      <point x="703" y="1017"/>
      <point x="672" y="1024"/>
      <point x="626" y="1024" type="curve" smooth="yes" name="hr03"/>
      <point x="515" y="1024"/>
      <point x="411" y="946"/>
      <point x="343" y="819" type="curve"/>
      <point x="336" y="819" type="line"/>
      <point x="320" y="999" type="line" name="hr04"/>
      <point x="162" y="999" type="line"/>
    </contour>
    <contour>
      <point x="428" y="1050" type="move" name="top"/>
    </contour>
  </outline>
</glyph>
<glyph name="s" format="1">
  <advance width="867"/>
  <unicode hex="0073"/>
  <outline>
    <contour>
      <point x="59" y="114" type="line" name="hr00"/>
      <point x="155" y="35"/>
      <point x="289" y="-25"/>
      <point x="429" y="-25" type="curve" smooth="yes"/>
      <point x="672" y="-25"/>
      <point x="803" y="109"/>
      <point x="803" y="274" type="curve" smooth="yes"/>
      <point x="803" y="463"/>
      <point x="646" y="528"/>
      <point x="505" y="579" type="curve" smooth="yes"/>
      <point x="394" y="622"/>
      <point x="288" y="664"/>
      <point x="288" y="752" type="curve" smooth="yes"/>
      <point x="288" y="824"/>
      <point x="341" y="876"/>
      <point x="458" y="876" type="curve" smooth="yes"/>
      <point x="547" y="876"/>
      <point x="614" y="843"/>
      <point x="683" y="791" type="curve"/>
      <point x="773" y="911" type="line"/>
      <point x="695" y="974"/>
      <point x="585" y="1024"/>
      <point x="455" y="1024" type="curve" smooth="yes"/>
      <point x="236" y="1024"/>
      <point x="104" y="902"/>
      <point x="104" y="737" type="curve" smooth="yes"/>
      <point x="104" y="569"/>
      <point x="258" y="494"/>
      <point x="395" y="444" type="curve" smooth="yes"/>
      <point x="504" y="403"/>
      <point x="620" y="359"/>
      <point x="620" y="263" type="curve" smooth="yes"/>
      <point x="620" y="183"/>
      <point x="560" y="123"/>
      <point x="435" y="123" type="curve" smooth="yes"/>
      <point x="322" y="123"/>
      <point x="239" y="171"/>
      <point x="152" y="240" type="curve"/>
    </contour>
    <contour>
      <point x="452" y="1050" type="move" name="top"/>
    </contour>
  </outline>
</glyph>
<glyph name="u" format="1">
  <advance width="1123"/>
  <unicode hex="0075"/>
  <outline>
    <contour>
      <point x="148" y="365" type="line" name="hr01"/>
      <point x="148" y="111"/>
      <point x="234" y="-25"/>
      <point x="455" y="-25" type="curve" smooth="yes"/>
      <point x="601" y="-25"/>
      <point x="690" y="46"/>
      <point x="781" y="153" type="curve"/>
      <point x="788" y="153" type="line"/>
      <point x="803" y="0" type="line" name="hr02"/>
      <point x="962" y="0" type="line"/>
      <point x="962" y="999" type="line"/>
      <point x="769" y="999" type="line"/>
      <point x="769" y="299" type="line"/>
      <point x="682" y="189"/>
      <point x="623" y="141"/>
      <point x="518" y="141" type="curve" smooth="yes" name="hr03"/>
      <point x="386" y="141"/>
      <point x="342" y="212"/>
      <point x="342" y="391" type="curve" smooth="yes"/>
      <point x="342" y="999" type="line"/>
      <point x="148" y="999" type="line"/>
    </contour>
    <contour>
      <point x="539" y="1050" type="move" name="top"/>
    </contour>
  </outline>
</glyph>
<glyph name="x" format="1">
  <advance width="939"/>
  <unicode hex="0078"/>
  <outline>
    <contour>
      <point x="29" y="0" type="line" name="hr00"/>
      <point x="230" y="0" type="line"/>
      <point x="355" y="219" type="line"/>
      <point x="386" y="281"/>
      <point x="418" y="340"/>
      <point x="451" y="398" type="curve"/>
      <point x="459" y="398" type="line"/>
      <point x="495" y="340"/>
      <point x="531" y="279"/>
      <point x="565" y="219" type="curve"/>
      <point x="702" y="0" type="line"/>
      <point x="910" y="0" type="line"/>
      <point x="588" y="501" type="line"/>
      <point x="888" y="999" type="line"/>
      <point x="687" y="999" type="line"/>
      <point x="576" y="790" type="line"/>
      <point x="547" y="736"/>
      <point x="517" y="679"/>
      <point x="490" y="622" type="curve"/>
      <point x="482" y="622" type="line"/>
      <point x="448" y="679"/>
      <point x="415" y="736"/>
      <point x="386" y="790" type="curve" smooth="yes"/>
      <point x="261" y="999" type="line"/>
      <point x="52" y="999" type="line"/>
      <point x="351" y="521" type="line"/>
    </contour>
    <contour>
      <point x="469" y="1050" type="move" name="top"/>
    </contour>
  </outline>
</glyph>
<glyph name="z" format="1">
  <advance width="883"/>
  <unicode hex="007A"/>
  <outline>
    <contour>
      <point x="66" y="0" type="line" name="hr00"/>
      <point x="831" y="0" type="line"/>
      <point x="831" y="155" type="line"/>
      <point x="308" y="155" type="line"/>
      <point x="815" y="896" type="line"/>
      <point x="815" y="999" type="line"/>
      <point x="122" y="999" type="line"/>
      <point x="122" y="844" type="line"/>
      <point x="573" y="844" type="line"/>
      <point x="66" y="103" type="line"/>
    </contour>
    <contour>
      <point x="448" y="1050" type="move" name="top"/>
    </contour>
  </outline>
</glyph>
<glyph name="braceleft" format="1">
  <advance width="636"/>
  <unicode hex="007B"/>
  <outline>
    <contour>
      <point x="226" y="-36" type="curve" smooth="yes" name="hr01"/>
      <point x="226" y="-249"/>
      <point x="304" y="-311"/>
      <point x="468" y="-311" type="curve" smooth="yes"/>
      <point x="568" y="-311" type="line"/>
      <point x="568" y="-203" type="line"/>
      <point x="515" y="-203" type="line"/>
      <point x="410" y="-203"/>
      <point x="383" y="-154"/>
      <point x="383" y="-25" type="curve" smooth="yes"/>
      <point x="383" y="97"/>
      <point x="394" y="203"/>
      <point x="394" y="339" type="curve" smooth="yes"/>
      <point x="394" y="474"/>
      <point x="357" y="541"/>
      <point x="266" y="565" type="curve"/>
      <point x="266" y="573" type="line"/>
      <point x="357" y="598"/>
      <point x="394" y="663"/>
      <point x="394" y="800" type="curve" smooth="yes"/>
      <point x="394" y="924"/>
      <point x="383" y="1047"/>
      <point x="383" y="1163" type="curve" smooth="yes"/>
      <point x="383" y="1293"/>
      <point x="410" y="1341"/>
      <point x="515" y="1341" type="curve" smooth="yes"/>
      <point x="568" y="1341" type="line"/>
      <point x="568" y="1450" type="line"/>
      <point x="468" y="1450" type="line"/>
      <point x="304" y="1450"/>
      <point x="226" y="1385"/>
      <point x="226" y="1175" type="curve" smooth="yes"/>
      <point x="226" y="1032"/>
      <point x="245" y="914"/>
      <point x="245" y="785" type="curve" smooth="yes"/>
      <point x="245" y="708"/>
      <point x="207" y="632"/>
      <point x="69" y="629" type="curve"/>
      <point x="69" y="510" type="line" name="hr02"/>
      <point x="207" y="507"/>
      <point x="245" y="430"/>
      <point x="245" y="351" type="curve" smooth="yes" name="hr03"/>
      <point x="245" y="216"/>
      <point x="226" y="114"/>
    </contour>
  </outline>
</glyph>
<glyph name="bar" format="1">
  <advance width="504"/>
  <unicode hex="007C"/>
  <outline>
    <contour>
      <point x="186" y="-512" type="line" name="hr00"/>
      <point x="319" y="-512" type="line"/>
      <point x="319" y="1536" type="line"/>
      <point x="186" y="1536" type="line"/>
    </contour>
  </outline>
</glyph>
<glyph name="asciitilde" format="1">
  <advance width="1030"/>
  <unicode hex="007E"/>
  <outline>
    <contour>
      <point x="177" y="565" type="line" name="hr01"/>
      <point x="221" y="660"/>
      <point x="269" y="689"/>
      <point x="331" y="689" type="curve" smooth="yes" name="hr02"/>
      <point x="445" y="689"/>
      <point x="533" y="520"/>
      <point x="697" y="520" type="curve" smooth="yes"/>
      <point x="799" y="520"/>
      <point x="885" y="574"/>
      <point x="958" y="708" type="curve" name="hr03"/>
      <point x="853" y="786" type="line"/>
      <point x="813" y="700"/>
      <point x="761" y="663"/>
      <point x="699" y="663" type="curve" smooth="yes"/>
      <point x="585" y="663"/>
      <point x="497" y="831"/>
      <point x="334" y="831" type="curve" smooth="yes"/>
      <point x="236" y="831"/>
      <point x="138" y="785"/>
      <point x="71" y="642" type="curve" name="hr04"/>
    </contour>
  </outline>
</glyph>
<glyph name="sterling" format="1">
  <advance width="1030"/>
  <unicode hex="00A3"/>
  <outline>
    <contour>
      <point x="376" y="165" type="line" name="hr01"/>
      <point x="376" y="174" type="line"/>
      <point x="455" y="256"/>
      <point x="496" y="339"/>
      <point x="496" y="474" type="curve" smooth="yes" name="hr02"/>
      <point x="496" y="511"/>
      <point x="493" y="545"/>
      <point x="487" y="579" type="curve"/>
      <point x="752" y="579" type="line"/>
      <point x="752" y="706" type="line"/>
      <point x="458" y="706" type="line" name="hr03"/>
      <point x="436" y="785"/>
      <point x="414" y="860"/>
      <point x="414" y="939" type="curve" smooth="yes"/>
      <point x="414" y="1083"/>
      <point x="494" y="1170"/>
      <point x="635" y="1170" type="curve" smooth="yes"/>
      <point x="722" y="1170"/>
      <point x="781" y="1139"/>
      <point x="831" y="1076" type="curve"/>
      <point x="942" y="1189" type="line" name="hr04"/>
      <point x="866" y="1281"/>
      <point x="764" y="1330"/>
      <point x="617" y="1330" type="curve" smooth="yes" name="hr05"/>
      <point x="385" y="1330"/>
      <point x="226" y="1189"/>
      <point x="226" y="945" type="curve" smooth="yes"/>
      <point x="226" y="865"/>
      <point x="252" y="786"/>
      <point x="277" y="706" type="curve"/>
      <point x="245" y="706" type="line"/>
      <point x="111" y="698" type="line"/>
      <point x="111" y="579" type="line"/>
      <point x="312" y="579" type="line" name="hr06"/>
      <point x="319" y="545"/>
      <point x="325" y="511"/>
      <point x="325" y="476" type="curve" smooth="yes"/>
      <point x="325" y="324"/>
      <point x="244" y="190"/>
      <point x="108" y="117" type="curve"/>
      <point x="108" y="0" type="line"/>
      <point x="970" y="0" type="line"/>
      <point x="970" y="165" type="line"/>
    </contour>
  </outline>
</glyph>
<glyph name="dieresis" format="1">
  <advance width="1115"/>
  <unicode hex="00A8"/>
  <outline>
    <contour>
      <point x="376" y="1198" type="curve" smooth="yes" name="hr00"/>
      <point x="439" y="1198"/>
      <point x="484" y="1244"/>
      <point x="484" y="1306" type="curve" smooth="yes"/>
      <point x="484" y="1368"/>
      <point x="439" y="1414"/>
      <point x="376" y="1414" type="curve" smooth="yes"/>
      <point x="314" y="1414"/>
      <point x="269" y="1368"/>
      <point x="269" y="1306" type="curve" smooth="yes"/>
      <point x="269" y="1244"/>
      <point x="314" y="1198"/>
    </contour>
    <contour>
      <point x="739" y="1198" type="curve" smooth="yes"/>
      <point x="803" y="1198"/>
      <point x="846" y="1244"/>
      <point x="846" y="1306" type="curve" smooth="yes"/>
      <point x="846" y="1368"/>
      <point x="803" y="1414"/>
      <point x="739" y="1414" type="curve" smooth="yes"/>
      <point x="677" y="1414"/>
      <point x="632" y="1368"/>
      <point x="632" y="1306" type="curve" smooth="yes"/>
      <point x="632" y="1244"/>
      <point x="677" y="1198"/>
    </contour>
    <contour>
      <point x="557" y="1050" type="move" name="_top"/>
    </contour>
  </outline>
</glyph>
<glyph name="ordfeminine" format="1">
  <advance width="712"/>
  <unicode hex="00AA"/>
  <outline>
    <contour>
      <point x="277" y="516" type="curve" smooth="yes" name="hr00"/>
      <point x="359" y="516"/>
      <point x="426" y="558"/>
      <point x="480" y="607" type="curve"/>
      <point x="489" y="607" type="line"/>
      <point x="504" y="532" type="line"/>
      <point x="618" y="532" type="line"/>
      <point x="618" y="931" type="line"/>
      <point x="618" y="1111"/>
      <point x="542" y="1211"/>
      <point x="376" y="1211" type="curve" smooth="yes"/>
      <point x="269" y="1211"/>
      <point x="170" y="1167"/>
      <point x="98" y="1123" type="curve"/>
      <point x="151" y="1026" type="line"/>
      <point x="208" y="1060"/>
      <point x="285" y="1095"/>
      <point x="353" y="1095" type="curve" smooth="yes"/>
      <point x="445" y="1095"/>
      <point x="473" y="1037"/>
      <point x="475" y="955" type="curve"/>
      <point x="196" y="929"/>
      <point x="73" y="854"/>
      <point x="73" y="711" type="curve" smooth="yes"/>
      <point x="73" y="597"/>
      <point x="155" y="516"/>
    </contour>
    <contour>
      <point x="319" y="629" type="curve" smooth="yes"/>
      <point x="254" y="629"/>
      <point x="212" y="658"/>
      <point x="212" y="722" type="curve" smooth="yes"/>
      <point x="212" y="793"/>
      <point x="278" y="846"/>
      <point x="475" y="867" type="curve"/>
      <point x="475" y="705" type="line"/>
      <point x="421" y="654"/>
      <point x="372" y="629"/>
    </contour>
  </outline>
</glyph>
<glyph name="uni00AD" format="1">
  <advance width="645"/>
  <unicode hex="00AD"/>
  <outline>
    <contour>
      <point x="85" y="442" type="line"/>
      <point x="562" y="442" type="line"/>
      <point x="562" y="587" type="line"/>
      <point x="85" y="587" type="line"/>
    </contour>
  </outline>
</glyph>
<glyph name="two.sups" format="1">
  <advance width="755"/>
  <unicode hex="00B2"/>
  <outline>
    <contour>
      <point x="103" y="901" type="line" name="hr00"/>
      <point x="660" y="901" type="line"/>
      <point x="660" y="1027" type="line"/>
      <point x="340" y="1027" type="line"/>
      <point x="499" y="1192"/>
      <point x="622" y="1315"/>
      <point x="622" y="1464" type="curve" smooth="yes"/>
      <point x="622" y="1633"/>
      <point x="513" y="1724"/>
      <point x="350" y="1724" type="curve" smooth="yes"/>
      <point x="240" y="1724"/>
      <point x="142" y="1662"/>
      <point x="77" y="1568" type="curve"/>
      <point x="164" y="1488" type="line"/>
      <point x="209" y="1552"/>
      <point x="265" y="1601"/>
      <point x="331" y="1601" type="curve" smooth="yes"/>
      <point x="421" y="1601"/>
      <point x="477" y="1540"/>
      <point x="477" y="1441" type="curve" smooth="yes"/>
      <point x="477" y="1324"/>
      <point x="344" y="1198"/>
      <point x="103" y="985" type="curve"/>
    </contour>
  </outline>
</glyph>
<glyph name="acute" format="1">
  <advance width="1115"/>
  <unicode hex="00B4"/>
  <outline>
    <contour>
      <point x="799" y="1466" type="line" name="hr00"/>
      <point x="602" y="1466" type="line"/>
      <point x="418" y="1174" type="line"/>
      <point x="564" y="1174" type="line"/>
    </contour>
    <contour>
      <point x="491" y="1050" type="move" name="_top"/>
    </contour>
  </outline>
</glyph>
<glyph name="cedilla" format="1">
  <advance width="1115"/>
  <unicode hex="00B8"/>
  <outline>
    <contour>
      <point x="440" y="-154" type="line" name="hr00"/>
      <point x="525" y="-175"/>
      <point x="569" y="-202"/>
      <point x="569" y="-252" type="curve" smooth="yes"/>
      <point x="569" y="-306"/>
      <point x="494" y="-335"/>
      <point x="389" y="-348" type="curve"/>
      <point x="407" y="-439" type="line"/>
      <point x="567" y="-426"/>
      <point x="715" y="-370"/>
      <point x="715" y="-247" type="curve" smooth="yes"/>
      <point x="715" y="-163"/>
      <point x="661" y="-122"/>
      <point x="594" y="-99" type="curve"/>
      <point x="644" y="6" type="line"/>
      <point x="522" y="6" type="line"/>
    </contour>
    <contour>
      <point x="552" y="1050" type="move" name="_top"/>
    </contour>
  </outline>
</glyph>
<glyph name="Ccedilla" format="1">
  <advance width="1164"/>
  <unicode hex="00C7"/>
  <outline>
    <contour>
      <point x="997" y="289" type="line" name="hr01"/>
      <point x="915" y="197"/>
      <point x="824" y="145"/>
      <point x="700" y="145" type="curve" smooth="yes"/>
      <point x="455" y="145"/>
      <point x="299" y="348"/>
      <point x="299" y="675" type="curve" smooth="yes"/>
      <point x="299" y="997"/>
      <point x="465" y="1197"/>
      <point x="708" y="1197" type="curve" smooth="yes"/>
      <point x="816" y="1197"/>
      <point x="898" y="1149"/>
      <point x="969" y="1077" type="curve"/>
      <point x="1077" y="1199" type="line" name="hr02"/>
      <point x="996" y="1288"/>
      <point x="866" y="1367"/>
      <point x="705" y="1367" type="curve" smooth="yes" name="hr03"/>
      <point x="361" y="1367"/>
      <point x="99" y="1104"/>
      <point x="99" y="670" type="curve" smooth="yes"/>
      <point x="99" y="254"/>
      <point x="329" y="4"/>
      <point x="639" y="-22" type="curve"/>
      <point x="571" y="-154" type="line"/>
      <point x="656" y="-175"/>
      <point x="701" y="-202"/>
      <point x="701" y="-252" type="curve" smooth="yes"/>
      <point x="701" y="-306"/>
      <point x="626" y="-335"/>
      <point x="520" y="-348" type="curve"/>
      <point x="538" y="-439" type="line"/>
      <point x="700" y="-426"/>
      <point x="847" y="-370"/>
      <point x="847" y="-247" type="curve" smooth="yes"/>
      <point x="847" y="-163"/>
      <point x="792" y="-122"/>
      <point x="725" y="-99" type="curve"/>
      <point x="764" y="-20" type="line"/>
      <point x="902" y="-4"/>
      <point x="1016" y="63"/>
      <point x="1107" y="170" type="curve"/>
    </contour>
  </outline>
</glyph>
<glyph name="Thorn" format="1">
  <advance width="1208"/>
  <unicode hex="00DE"/>
  <outline>
    <contour>
      <point x="179" y="0" type="line" name="hr00"/>
      <point x="373" y="0" type="line"/>
      <point x="373" y="297" type="line"/>
      <point x="604" y="297" type="line"/>
      <point x="897" y="297"/>
      <point x="1105" y="429"/>
      <point x="1105" y="720" type="curve" smooth="yes"/>
      <point x="1105" y="1018"/>
      <point x="900" y="1121"/>
      <point x="604" y="1121" type="curve" smooth="yes"/>
      <point x="373" y="1121" type="line"/>
      <point x="373" y="1342" type="line"/>
      <point x="179" y="1342" type="line"/>
    </contour>
    <contour>
      <point x="373" y="454" type="line"/>
      <point x="373" y="963" type="line"/>
      <point x="584" y="963" type="line"/>
      <point x="802" y="963"/>
      <point x="912" y="902"/>
      <point x="912" y="720" type="curve" smooth="yes"/>
      <point x="912" y="536"/>
      <point x="806" y="454"/>
      <point x="584" y="454" type="curve" smooth="yes"/>
    </contour>
    <contour>
      <point x="642" y="1050" type="move" name="top"/>
    </contour>
  </outline>
</glyph>
<glyph name="germandbls" format="1">
  <advance width="1201"/>
  <unicode hex="00DF"/>
  <outline>
    <contour>
      <point x="162" y="0" type="line" name="hr01"/>
      <point x="353" y="0" type="line"/>
      <point x="353" y="1013" type="line"/>
      <point x="353" y="1214"/>
      <point x="435" y="1319"/>
      <point x="576" y="1319" type="curve" smooth="yes"/>
      <point x="684" y="1319"/>
      <point x="739" y="1246"/>
      <point x="739" y="1148" type="curve" smooth="yes"/>
      <point x="739" y="980"/>
      <point x="566" y="920"/>
      <point x="566" y="740" type="curve" smooth="yes"/>
      <point x="566" y="458"/>
      <point x="962" y="498"/>
      <point x="962" y="275" type="curve" smooth="yes" name="hr02"/>
      <point x="962" y="194"/>
      <point x="905" y="123"/>
      <point x="800" y="123" type="curve" smooth="yes"/>
      <point x="725" y="123"/>
      <point x="658" y="151"/>
      <point x="587" y="209" type="curve"/>
      <point x="513" y="75" type="line"/>
      <point x="600" y="13"/>
      <point x="691" y="-25"/>
      <point x="806" y="-25" type="curve" smooth="yes"/>
      <point x="1016" y="-25"/>
      <point x="1142" y="112"/>
      <point x="1142" y="286" type="curve" smooth="yes"/>
      <point x="1142" y="615"/>
      <point x="747" y="576"/>
      <point x="747" y="764" type="curve" smooth="yes"/>
      <point x="747" y="898"/>
      <point x="928" y="965"/>
      <point x="928" y="1168" type="curve" smooth="yes"/>
      <point x="928" y="1332"/>
      <point x="805" y="1475"/>
      <point x="578" y="1475" type="curve" smooth="yes" name="hr03"/>
      <point x="309" y="1475"/>
      <point x="162" y="1302"/>
      <point x="162" y="1044" type="curve" smooth="yes"/>
    </contour>
    <contour>
      <point x="652" y="1050" type="move" name="top"/>
    </contour>
  </outline>
</glyph>
<glyph name="ccedilla" format="1">
  <advance width="938"/>
  <unicode hex="00E7"/>
  <outline>
    <contour>
      <point x="624" y="-19" type="line" name="hr00"/>
      <point x="720" y="-8"/>
      <point x="815" y="37"/>
      <point x="890" y="104" type="curve"/>
      <point x="806" y="229" type="line"/>
      <point x="749" y="179"/>
      <point x="673" y="134"/>
      <point x="581" y="134" type="curve" smooth="yes"/>
      <point x="409" y="134"/>
      <point x="289" y="280"/>
      <point x="289" y="498" type="curve" smooth="yes"/>
      <point x="289" y="717"/>
      <point x="413" y="866"/>
      <point x="588" y="866" type="curve" smooth="yes"/>
      <point x="661" y="866"/>
      <point x="720" y="832"/>
      <point x="777" y="783" type="curve"/>
      <point x="870" y="905" type="line"/>
      <point x="803" y="970"/>
      <point x="709" y="1024"/>
      <point x="578" y="1024" type="curve" smooth="yes"/>
      <point x="318" y="1024"/>
      <point x="90" y="832"/>
      <point x="90" y="498" type="curve" smooth="yes"/>
      <point x="90" y="193"/>
      <point x="264" y="8"/>
      <point x="499" y="-20" type="curve"/>
      <point x="431" y="-154" type="line"/>
      <point x="517" y="-175"/>
      <point x="560" y="-202"/>
      <point x="560" y="-252" type="curve" smooth="yes"/>
      <point x="560" y="-306"/>
      <point x="485" y="-335"/>
      <point x="380" y="-348" type="curve"/>
      <point x="398" y="-439" type="line"/>
      <point x="560" y="-426"/>
      <point x="707" y="-370"/>
      <point x="707" y="-247" type="curve" smooth="yes"/>
      <point x="707" y="-163"/>
      <point x="652" y="-122"/>
      <point x="586" y="-99" type="curve"/>
    </contour>
  </outline>
</glyph>
<glyph name="eth" format="1">
  <advance width="1122"/>
  <unicode hex="00F0"/>
  <outline>
    <contour>
      <point x="558" y="134" type="curve" smooth="yes" name="hr00"/>
      <point x="410" y="134"/>
      <point x="285" y="260"/>
      <point x="285" y="457" type="curve" smooth="yes"/>
      <point x="285" y="641"/>
      <point x="386" y="770"/>
      <point x="556" y="770" type="curve" smooth="yes"/>
      <point x="644" y="770"/>
      <point x="730" y="742"/>
      <point x="815" y="631" type="curve"/>
      <point x="817" y="597"/>
      <point x="819" y="559"/>
      <point x="819" y="521" type="curve" smooth="yes"/>
      <point x="819" y="288"/>
      <point x="729" y="134"/>
    </contour>
    <contour>
      <point x="985" y="1371" type="line"/>
      <point x="931" y="1464" type="line"/>
      <point x="640" y="1315" type="line"/>
      <point x="551" y="1387"/>
      <point x="455" y="1446"/>
      <point x="357" y="1499" type="curve"/>
      <point x="270" y="1379" type="line"/>
      <point x="350" y="1335"/>
      <point x="423" y="1289"/>
      <point x="491" y="1238" type="curve"/>
      <point x="235" y="1108" type="line"/>
      <point x="289" y="1015" type="line"/>
      <point x="578" y="1164" type="line"/>
      <point x="678" y="1066"/>
      <point x="752" y="949"/>
      <point x="789" y="792" type="curve"/>
      <point x="722" y="878"/>
      <point x="625" y="918"/>
      <point x="525" y="918" type="curve" smooth="yes"/>
      <point x="292" y="918"/>
      <point x="105" y="738"/>
      <point x="105" y="457" type="curve" smooth="yes"/>
      <point x="105" y="159"/>
      <point x="316" y="-25"/>
      <point x="552" y="-25" type="curve" smooth="yes"/>
      <point x="825" y="-25"/>
      <point x="1002" y="202"/>
      <point x="1002" y="529" type="curve" smooth="yes"/>
      <point x="1002" y="850"/>
      <point x="888" y="1072"/>
      <point x="725" y="1238" type="curve"/>
    </contour>
    <contour>
      <point x="553" y="1050" type="move" name="top"/>
    </contour>
  </outline>
</glyph>
<glyph name="divide" format="1">
  <advance width="1030"/>
  <unicode hex="00F7"/>
  <outline>
    <contour>
      <point x="516" y="925" type="curve" smooth="yes" name="hr00"/>
      <point x="583" y="925"/>
      <point x="637" y="974"/>
      <point x="637" y="1044" type="curve" smooth="yes"/>
      <point x="637" y="1113"/>
      <point x="583" y="1162"/>
      <point x="516" y="1162" type="curve" smooth="yes"/>
      <point x="446" y="1162"/>
      <point x="393" y="1113"/>
      <point x="393" y="1044" type="curve" smooth="yes"/>
      <point x="393" y="974"/>
      <point x="446" y="925"/>
    </contour>
    <contour>
      <point x="393" y="307" type="curve" smooth="yes"/>
      <point x="393" y="237"/>
      <point x="446" y="188"/>
      <point x="516" y="188" type="curve" smooth="yes"/>
      <point x="583" y="188"/>
      <point x="637" y="237"/>
      <point x="637" y="307" type="curve" smooth="yes"/>
      <point x="637" y="376"/>
      <point x="583" y="425"/>
      <point x="516" y="425" type="curve" smooth="yes"/>
      <point x="446" y="425"/>
      <point x="393" y="376"/>
    </contour>
    <contour>
      <point x="70" y="604" type="line"/>
      <point x="960" y="604" type="line"/>
      <point x="960" y="747" type="line"/>
      <point x="70" y="747" type="line"/>
    </contour>
  </outline>
</glyph>
<glyph name="oslash" format="1">
  <advance width="1115"/>
  <unicode hex="00F8"/>
  <outline>
    <contour>
      <point x="793" y="706" type="line" name="hr00"/>
      <point x="822" y="647"/>
      <point x="836" y="575"/>
      <point x="836" y="490" type="curve" smooth="yes"/>
      <point x="836" y="275"/>
      <point x="721" y="129"/>
      <point x="558" y="129" type="curve" smooth="yes"/>
      <point x="489" y="129"/>
      <point x="428" y="154"/>
      <point x="381" y="201" type="curve"/>
    </contour>
    <contour>
      <point x="320" y="293" type="line"/>
      <point x="293" y="351"/>
      <point x="279" y="423"/>
      <point x="279" y="508" type="curve" smooth="yes"/>
      <point x="279" y="723"/>
      <point x="396" y="871"/>
      <point x="558" y="871" type="curve" smooth="yes"/>
      <point x="628" y="871"/>
      <point x="688" y="845"/>
      <point x="734" y="797" type="curve"/>
    </contour>
    <contour>
      <point x="1021" y="983" type="line"/>
      <point x="940" y="1047" type="line"/>
      <point x="840" y="926" type="line"/>
      <point x="760" y="990"/>
      <point x="660" y="1024"/>
      <point x="558" y="1024" type="curve" smooth="yes"/>
      <point x="311" y="1024"/>
      <point x="90" y="832"/>
      <point x="90" y="498" type="curve" smooth="yes"/>
      <point x="90" y="352"/>
      <point x="134" y="235"/>
      <point x="202" y="147" type="curve"/>
      <point x="94" y="16" type="line"/>
      <point x="177" y="-48" type="line"/>
      <point x="275" y="73" type="line"/>
      <point x="355" y="9"/>
      <point x="455" y="-25"/>
      <point x="558" y="-25" type="curve" smooth="yes"/>
      <point x="804" y="-25"/>
      <point x="1025" y="167"/>
      <point x="1025" y="498" type="curve" smooth="yes"/>
      <point x="1025" y="645"/>
      <point x="981" y="764"/>
      <point x="913" y="853" type="curve"/>
    </contour>
  </outline>
</glyph>
<glyph name="thorn" format="1">
  <advance width="1144"/>
  <unicode hex="00FE"/>
  <outline>
    <contour>
      <point x="354" y="-83" type="line" name="hr00"/>
      <point x="351" y="83" type="line"/>
      <point x="437" y="15"/>
      <point x="522" y="-25"/>
      <point x="619" y="-25" type="curve" smooth="yes"/>
      <point x="845" y="-25"/>
      <point x="1048" y="174"/>
      <point x="1048" y="514" type="curve" smooth="yes"/>
      <point x="1048" y="824"/>
      <point x="906" y="1024"/>
      <point x="645" y="1024" type="curve" smooth="yes"/>
      <point x="539" y="1024"/>
      <point x="436" y="968"/>
      <point x="351" y="900" type="curve"/>
      <point x="354" y="1065" type="line"/>
      <point x="354" y="1454" type="line"/>
      <point x="162" y="1454" type="line"/>
      <point x="162" y="-412" type="line"/>
      <point x="354" y="-412" type="line"/>
    </contour>
    <contour>
      <point x="354" y="233" type="curve"/>
      <point x="354" y="735" type="line"/>
      <point x="445" y="819"/>
      <point x="523" y="864"/>
      <point x="603" y="864" type="curve" smooth="yes"/>
      <point x="780" y="864"/>
      <point x="849" y="726"/>
      <point x="849" y="513" type="curve" smooth="yes"/>
      <point x="849" y="274"/>
      <point x="735" y="136"/>
      <point x="583" y="136" type="curve" smooth="yes"/>
      <point x="520" y="136"/>
      <point x="437" y="162"/>
    </contour>
    <contour>
      <point x="605" y="1050" type="move" name="top"/>
    </contour>
  </outline>
</glyph>
<glyph name="aogonek" format="1">
  <advance width="1057"/>
  <unicode hex="0105"/>
  <outline>
    <contour>
      <point x="303" y="276" type="curve" smooth="yes" name="hr01"/>
      <point x="303" y="394"/>
      <point x="407" y="473"/>
      <point x="719" y="511" type="curve"/>
      <point x="719" y="253" type="line"/>
      <point x="631" y="173"/>
      <point x="558" y="129"/>
      <point x="467" y="129" type="curve" smooth="yes"/>
      <point x="372" y="129"/>
      <point x="303" y="173"/>
    </contour>
    <contour>
      <point x="115" y="262" type="curve" smooth="yes"/>
      <point x="115" y="86"/>
      <point x="238" y="-25"/>
      <point x="409" y="-25" type="curve" smooth="yes"/>
      <point x="531" y="-25"/>
      <point x="638" y="39"/>
      <point x="732" y="116" type="curve"/>
      <point x="737" y="116" type="line"/>
      <point x="756" y="6" type="line"/>
      <point x="681" y="-42"/>
      <point x="596" y="-134"/>
      <point x="596" y="-247" type="curve" smooth="yes" name="hr02"/>
      <point x="596" y="-363"/>
      <point x="679" y="-423"/>
      <point x="786" y="-423" type="curve" smooth="yes"/>
      <point x="840" y="-423"/>
      <point x="913" y="-398"/>
      <point x="954" y="-366" type="curve"/>
      <point x="908" y="-273" type="line"/>
      <point x="884" y="-288"/>
      <point x="859" y="-299"/>
      <point x="827" y="-299" type="curve" smooth="yes"/>
      <point x="780" y="-299"/>
      <point x="733" y="-270"/>
      <point x="733" y="-207" type="curve" smooth="yes"/>
      <point x="733" y="-131"/>
      <point x="795" y="-44"/>
      <point x="912" y="0" type="curve" name="hr03"/>
      <point x="912" y="605" type="line"/>
      <point x="912" y="864"/>
      <point x="802" y="1024"/>
      <point x="555" y="1024" type="curve" smooth="yes"/>
      <point x="395" y="1024"/>
      <point x="255" y="956"/>
      <point x="156" y="894" type="curve"/>
      <point x="231" y="762" type="line"/>
      <point x="312" y="816"/>
      <point x="412" y="866"/>
      <point x="523" y="866" type="curve" smooth="yes"/>
      <point x="675" y="866"/>
      <point x="718" y="755"/>
      <point x="719" y="635" type="curve"/>
      <point x="299" y="589"/>
      <point x="115" y="479"/>
    </contour>
  </outline>
</glyph>
<glyph name="Eogonek" format="1">
  <advance width="1078"/>
  <unicode hex="0118"/>
  <outline>
    <contour>
      <point x="174" y="0" type="line" name="hr00"/>
      <point x="795" y="0" type="line"/>
      <point x="718" y="-48"/>
      <point x="639" y="-142"/>
      <point x="639" y="-257" type="curve" smooth="yes"/>
      <point x="639" y="-376"/>
      <point x="729" y="-438"/>
      <point x="842" y="-438" type="curve" smooth="yes"/>
      <point x="900" y="-438"/>
      <point x="973" y="-411"/>
      <point x="1015" y="-378" type="curve"/>
      <point x="963" y="-275" type="line"/>
      <point x="940" y="-293"/>
      <point x="914" y="-304"/>
      <point x="883" y="-304" type="curve" smooth="yes"/>
      <point x="835" y="-304"/>
      <point x="787" y="-275"/>
      <point x="787" y="-213" type="curve" smooth="yes"/>
      <point x="787" y="-108"/>
      <point x="880" y="-11"/>
      <point x="973" y="0" type="curve" smooth="yes"/>
      <point x="981" y="0" type="line"/>
      <point x="981" y="165" type="line"/>
      <point x="370" y="165" type="line"/>
      <point x="370" y="620" type="line"/>
      <point x="868" y="620" type="line"/>
      <point x="868" y="784" type="line"/>
      <point x="370" y="784" type="line"/>
      <point x="370" y="1178" type="line"/>
      <point x="960" y="1178" type="line"/>
      <point x="960" y="1342" type="line"/>
      <point x="174" y="1342" type="line"/>
    </contour>
  </outline>
</glyph>
<glyph name="eogonek" format="1">
  <advance width="1024"/>
  <unicode hex="0119"/>
  <outline>
    <contour>
      <point x="90" y="498" type="curve" smooth="yes" name="hr00"/>
      <point x="90" y="170"/>
      <point x="304" y="-25"/>
      <point x="574" y="-25" type="curve" smooth="yes"/>
      <point x="604" y="-25"/>
      <point x="634" y="-23"/>
      <point x="667" y="-11" type="curve"/>
      <point x="613" y="-58"/>
      <point x="545" y="-145"/>
      <point x="545" y="-247" type="curve" smooth="yes"/>
      <point x="545" y="-363"/>
      <point x="628" y="-423"/>
      <point x="734" y="-423" type="curve" smooth="yes"/>
      <point x="788" y="-423"/>
      <point x="862" y="-398"/>
      <point x="903" y="-366" type="curve"/>
      <point x="857" y="-273" type="line"/>
      <point x="833" y="-288"/>
      <point x="809" y="-299"/>
      <point x="777" y="-299" type="curve" smooth="yes"/>
      <point x="726" y="-299"/>
      <point x="682" y="-269"/>
      <point x="682" y="-207" type="curve" smooth="yes"/>
      <point x="682" y="-123"/>
      <point x="730" y="-46"/>
      <point x="908" y="80" type="curve"/>
      <point x="841" y="203" type="line"/>
      <point x="767" y="157"/>
      <point x="689" y="128"/>
      <point x="599" y="128" type="curve" smooth="yes"/>
      <point x="418" y="128"/>
      <point x="294" y="251"/>
      <point x="279" y="455" type="curve"/>
      <point x="940" y="455" type="line"/>
      <point x="944" y="479"/>
      <point x="947" y="511"/>
      <point x="947" y="553" type="curve" smooth="yes"/>
      <point x="947" y="836"/>
      <point x="804" y="1024"/>
      <point x="543" y="1024" type="curve" smooth="yes"/>
      <point x="312" y="1024"/>
      <point x="90" y="824"/>
    </contour>
    <contour>
      <point x="277" y="579" type="line"/>
      <point x="298" y="768"/>
      <point x="417" y="873"/>
      <point x="548" y="873" type="curve" smooth="yes"/>
      <point x="698" y="873"/>
      <point x="780" y="766"/>
      <point x="780" y="579" type="curve"/>
    </contour>
  </outline>
</glyph>
<glyph name="hbar" format="1">
  <advance width="1124"/>
  <unicode hex="0127"/>
  <outline>
    <contour>
      <point x="354" y="1024" type="line" name="hr00"/>
      <point x="354" y="1164" type="line"/>
      <point x="722" y="1164" type="line"/>
      <point x="722" y="1271" type="line"/>
      <point x="354" y="1271" type="line"/>
      <point x="354" y="1454" type="line"/>
      <point x="162" y="1454" type="line"/>
      <point x="162" y="1271" type="line"/>
      <point x="12" y="1260" type="line"/>
      <point x="12" y="1164" type="line"/>
      <point x="162" y="1164" type="line"/>
      <point x="162" y="0" type="line"/>
      <point x="354" y="0" type="line"/>
      <point x="354" y="674" type="line"/>
      <point x="448" y="767"/>
      <point x="514" y="817"/>
      <point x="611" y="817" type="curve" smooth="yes"/>
      <point x="734" y="817"/>
      <point x="788" y="744"/>
      <point x="788" y="564" type="curve" smooth="yes"/>
      <point x="788" y="0" type="line"/>
      <point x="980" y="0" type="line"/>
      <point x="980" y="590" type="line"/>
      <point x="980" y="844"/>
      <point x="885" y="983"/>
      <point x="675" y="983" type="curve" smooth="yes"/>
      <point x="537" y="983"/>
      <point x="437" y="909"/>
      <point x="346" y="823" type="curve"/>
    </contour>
  </outline>
</glyph>
<glyph name="Iogonek" format="1">
  <advance width="544"/>
  <unicode hex="012E"/>
  <outline>
    <contour>
      <point x="174" y="0" type="line" name="hr01"/>
      <point x="222" y="0" type="line"/>
      <point x="158" y="-56"/>
      <point x="84" y="-138"/>
      <point x="84" y="-257" type="curve" smooth="yes" name="hr02"/>
      <point x="84" y="-376"/>
      <point x="173" y="-438"/>
      <point x="286" y="-438" type="curve" smooth="yes"/>
      <point x="344" y="-438"/>
      <point x="417" y="-411"/>
      <point x="459" y="-378" type="curve"/>
      <point x="408" y="-275" type="line"/>
      <point x="385" y="-293"/>
      <point x="359" y="-304"/>
      <point x="327" y="-304" type="curve" smooth="yes"/>
      <point x="279" y="-304"/>
      <point x="231" y="-275"/>
      <point x="231" y="-213" type="curve" smooth="yes"/>
      <point x="231" y="-131"/>
      <point x="279" y="-62"/>
      <point x="370" y="0" type="curve" name="hr03"/>
      <point x="370" y="1342" type="line"/>
      <point x="174" y="1342" type="line"/>
    </contour>
  </outline>
</glyph>
<glyph name="iogonek" format="1">
  <advance width="515"/>
  <unicode hex="012F"/>
  <outline>
    <contour>
      <point x="162" y="0" type="line" name="hr01"/>
      <point x="210" y="0" type="line"/>
      <point x="155" y="-54"/>
      <point x="79" y="-135"/>
      <point x="79" y="-247" type="curve" smooth="yes" name="hr02"/>
      <point x="79" y="-363"/>
      <point x="164" y="-423"/>
      <point x="271" y="-423" type="curve" smooth="yes"/>
      <point x="324" y="-423"/>
      <point x="398" y="-398"/>
      <point x="439" y="-366" type="curve" name="hr03"/>
      <point x="393" y="-273" type="line"/>
      <point x="366" y="-288"/>
      <point x="343" y="-299"/>
      <point x="313" y="-299" type="curve" smooth="yes" name="hr04"/>
      <point x="263" y="-299"/>
      <point x="218" y="-269"/>
      <point x="218" y="-207" type="curve" smooth="yes"/>
      <point x="218" y="-131"/>
      <point x="267" y="-56"/>
      <point x="354" y="0" type="curve" name="hr05"/>
      <point x="354" y="999" type="line"/>
      <point x="162" y="999" type="line"/>
    </contour>
    <contour>
      <point x="258" y="1194" type="curve" smooth="yes" name="hr06"/>
      <point x="327" y="1194"/>
      <point x="383" y="1242"/>
      <point x="383" y="1312" type="curve" smooth="yes"/>
      <point x="383" y="1382"/>
      <point x="327" y="1428"/>
      <point x="258" y="1428" type="curve" smooth="yes"/>
      <point x="185" y="1428"/>
      <point x="130" y="1382"/>
      <point x="130" y="1312" type="curve" smooth="yes"/>
      <point x="130" y="1242"/>
      <point x="185" y="1194"/>
    </contour>
  </outline>
</glyph>
<glyph name="kgreenlandic" format="1">
  <advance width="1034"/>
  <unicode hex="0138"/>
  <outline>
    <contour>
      <point x="162" y="0" type="line" name="hr00"/>
      <point x="354" y="0" type="line"/>
      <point x="354" y="253" type="line"/>
      <point x="526" y="457" type="line"/>
      <point x="806" y="0" type="line"/>
      <point x="1016" y="0" type="line"/>
      <point x="642" y="596" type="line"/>
      <point x="974" y="999" type="line"/>
      <point x="763" y="999" type="line"/>
      <point x="360" y="492" type="line"/>
      <point x="354" y="492" type="line"/>
      <point x="354" y="999" type="line"/>
      <point x="162" y="999" type="line"/>
    </contour>
  </outline>
</glyph>
<glyph name="lslash" format="1">
  <advance width="552"/>
  <unicode hex="0142"/>
  <outline>
    <contour>
      <point x="507" y="846" type="line" name="hr01"/>
      <point x="507" y="1007" type="line"/>
      <point x="366" y="918" type="line"/>
      <point x="366" y="1454" type="line"/>
      <point x="172" y="1454" type="line"/>
      <point x="172" y="818" type="line"/>
      <point x="44" y="738" type="line"/>
      <point x="44" y="577" type="line"/>
      <point x="172" y="657" type="line"/>
      <point x="172" y="222" type="line"/>
      <point x="172" y="65"/>
      <point x="228" y="-25"/>
      <point x="368" y="-25" type="curve" smooth="yes" name="hr02"/>
      <point x="417" y="-25"/>
      <point x="450" y="-17"/>
      <point x="477" y="-7" type="curve"/>
      <point x="451" y="138" type="line" name="hr03"/>
      <point x="432" y="134"/>
      <point x="423" y="134"/>
      <point x="414" y="134" type="curve" smooth="yes"/>
      <point x="390" y="134"/>
      <point x="366" y="154"/>
      <point x="366" y="209" type="curve" smooth="yes"/>
      <point x="366" y="757" type="line"/>
    </contour>
  </outline>
</glyph>
<glyph name="OE" format="1">
  <advance width="1734"/>
  <unicode hex="0152"/>
  <outline>
    <contour>
      <point x="99" y="677" type="curve" smooth="yes" name="hr01"/>
      <point x="99" y="244"/>
      <point x="350" y="0"/>
      <point x="752" y="0" type="curve" smooth="yes"/>
      <point x="1638" y="0" type="line"/>
      <point x="1638" y="165" type="line"/>
      <point x="1060" y="165" type="line"/>
      <point x="1060" y="620" type="line"/>
      <point x="1527" y="620" type="line"/>
      <point x="1527" y="784" type="line"/>
      <point x="1060" y="784" type="line"/>
      <point x="1060" y="1178" type="line"/>
      <point x="1618" y="1178" type="line"/>
      <point x="1618" y="1342" type="line"/>
      <point x="762" y="1342" type="line"/>
      <point x="350" y="1342"/>
      <point x="99" y="1109"/>
    </contour>
    <contour>
      <point x="299" y="677" type="curve" smooth="yes" name="hr02"/>
      <point x="299" y="1014"/>
      <point x="467" y="1183"/>
      <point x="775" y="1183" type="curve" smooth="yes"/>
      <point x="864" y="1183" type="line"/>
      <point x="864" y="158" type="line"/>
      <point x="775" y="158" type="line"/>
      <point x="467" y="158"/>
      <point x="299" y="339"/>
    </contour>
    <contour>
      <point x="868" y="1050" type="move" name="top"/>
    </contour>
  </outline>
</glyph>
<glyph name="oe" format="1">
  <advance width="1712"/>
  <unicode hex="0153"/>
  <outline>
    <contour>
      <point x="287" y="498" type="curve" smooth="yes" name="hr01"/>
      <point x="287" y="717"/>
      <point x="392" y="866"/>
      <point x="546" y="866" type="curve" smooth="yes"/>
      <point x="701" y="866"/>
      <point x="806" y="717"/>
      <point x="806" y="498" type="curve" smooth="yes"/>
      <point x="806" y="280"/>
      <point x="701" y="134"/>
      <point x="546" y="134" type="curve" smooth="yes"/>
      <point x="392" y="134"/>
      <point x="287" y="280"/>
    </contour>
    <contour>
      <point x="90" y="498" type="curve" smooth="yes"/>
      <point x="90" y="167"/>
      <point x="298" y="-25"/>
      <point x="542" y="-25" type="curve" smooth="yes"/>
      <point x="703" y="-25"/>
      <point x="824" y="55"/>
      <point x="903" y="210" type="curve"/>
      <point x="980" y="65"/>
      <point x="1113" y="-25"/>
      <point x="1263" y="-25" type="curve" smooth="yes"/>
      <point x="1395" y="-25"/>
      <point x="1507" y="22"/>
      <point x="1597" y="80" type="curve"/>
      <point x="1527" y="211" type="line" name="hr02"/>
      <point x="1453" y="164"/>
      <point x="1378" y="131"/>
      <point x="1286" y="131" type="curve" smooth="yes"/>
      <point x="1125" y="131"/>
      <point x="997" y="255"/>
      <point x="986" y="450" type="curve"/>
      <point x="1627" y="450" type="line"/>
      <point x="1632" y="474"/>
      <point x="1635" y="510"/>
      <point x="1635" y="550" type="curve" smooth="yes"/>
      <point x="1635" y="834"/>
      <point x="1496" y="1024"/>
      <point x="1246" y="1024" type="curve" smooth="yes"/>
      <point x="1105" y="1024"/>
      <point x="978" y="935"/>
      <point x="901" y="787" type="curve"/>
      <point x="829" y="940"/>
      <point x="696" y="1024"/>
      <point x="546" y="1024" type="curve" smooth="yes"/>
      <point x="302" y="1024"/>
      <point x="90" y="832"/>
    </contour>
    <contour>
      <point x="986" y="575" type="line"/>
      <point x="1004" y="761"/>
      <point x="1111" y="873"/>
      <point x="1241" y="873" type="curve" smooth="yes" name="hr04"/>
      <point x="1385" y="873"/>
      <point x="1467" y="765"/>
      <point x="1467" y="575" type="curve"/>
    </contour>
    <contour>
      <point x="862" y="1050" type="move" name="top"/>
    </contour>
  </outline>
</glyph>
<glyph name="uni018F" format="1">
  <advance width="1373"/>
  <unicode hex="018F"/>
  <outline>
    <contour>
      <point x="1072" y="578" type="line" name="hr00"/>
      <point x="1045" y="306"/>
      <point x="897" y="141"/>
      <point x="693" y="141" type="curve" smooth="yes"/>
      <point x="493" y="141"/>
      <point x="351" y="305"/>
      <point x="332" y="578" type="curve"/>
    </contour>
    <contour>
      <point x="363" y="1074" type="line"/>
      <point x="441" y="1147"/>
      <point x="553" y="1201"/>
      <point x="684" y="1201" type="curve" smooth="yes"/>
      <point x="923" y="1201"/>
      <point x="1062" y="1024"/>
      <point x="1076" y="725" type="curve"/>
      <point x="138" y="725" type="line"/>
      <point x="136" y="703"/>
      <point x="133" y="682"/>
      <point x="133" y="665" type="curve" smooth="yes"/>
      <point x="133" y="248"/>
      <point x="356" y="-25"/>
      <point x="693" y="-25" type="curve" smooth="yes"/>
      <point x="1031" y="-25"/>
      <point x="1269" y="244"/>
      <point x="1269" y="675" type="curve" smooth="yes"/>
      <point x="1269" y="1106"/>
      <point x="1045" y="1367"/>
      <point x="701" y="1367" type="curve" smooth="yes"/>
      <point x="514" y="1367"/>
      <point x="370" y="1301"/>
      <point x="274" y="1207" type="curve"/>
    </contour>
  </outline>
</glyph>
<glyph name="uni0192" format="1">
  <advance width="1030"/>
  <unicode hex="0192"/>
  <outline>
    <contour>
      <point x="958" y="1330" type="line" name="hr01"/>
      <point x="919" y="1348"/>
      <point x="854" y="1367"/>
      <point x="795" y="1367" type="curve" smooth="yes" name="hr02"/>
      <point x="567" y="1367"/>
      <point x="469" y="1226"/>
      <point x="438" y="947" type="curve" smooth="yes"/>
      <point x="426" y="838" type="line"/>
      <point x="380" y="838" type="line"/>
      <point x="237" y="829" type="line"/>
      <point x="237" y="693" type="line"/>
      <point x="410" y="693" type="line"/>
      <point x="364" y="271" type="line"/>
      <point x="341" y="58"/>
      <point x="296" y="-42"/>
      <point x="174" y="-43" type="curve" smooth="yes"/>
      <point x="138" y="-42"/>
      <point x="106" y="-37"/>
      <point x="74" y="-23" type="curve"/>
      <point x="41" y="-168" type="line"/>
      <point x="74" y="-186"/>
      <point x="129" y="-199"/>
      <point x="196" y="-199" type="curve" smooth="yes"/>
      <point x="433" y="-199"/>
      <point x="514" y="-24"/>
      <point x="543" y="225" type="curve" smooth="yes"/>
      <point x="595" y="693" type="line"/>
      <point x="860" y="693" type="line"/>
      <point x="860" y="838" type="line"/>
      <point x="611" y="838" type="line"/>
      <point x="625" y="964" type="line"/>
      <point x="641" y="1095"/>
      <point x="690" y="1211"/>
      <point x="807" y="1211" type="curve" smooth="yes"/>
      <point x="856" y="1211"/>
      <point x="890" y="1194"/>
      <point x="917" y="1183" type="curve"/>
    </contour>
  </outline>
</glyph>
<glyph name="Ohorn" format="1">
  <advance width="1359"/>
  <unicode hex="01A0"/>
  <outline>
    <contour>
      <point x="680" y="145" type="curve" smooth="yes" name="hr01"/>
      <point x="449" y="145"/>
      <point x="299" y="354"/>
      <point x="299" y="677" type="curve" smooth="yes"/>
      <point x="299" y="999"/>
      <point x="449" y="1197"/>
      <point x="680" y="1197" type="curve" smooth="yes"/>
      <point x="909" y="1197"/>
      <point x="1059" y="999"/>
      <point x="1059" y="677" type="curve" smooth="yes"/>
      <point x="1059" y="354"/>
      <point x="909" y="145"/>
    </contour>
    <contour>
      <point x="1078" y="1523" type="line" name="hr02"/>
      <point x="1095" y="1496"/>
      <point x="1108" y="1468"/>
      <point x="1108" y="1437" type="curve" smooth="yes"/>
      <point x="1108" y="1361"/>
      <point x="1056" y="1322"/>
      <point x="950" y="1302" type="curve"/>
      <point x="871" y="1344"/>
      <point x="780" y="1367"/>
      <point x="680" y="1367" type="curve" smooth="yes"/>
      <point x="338" y="1367"/>
      <point x="99" y="1108"/>
      <point x="99" y="677" type="curve" smooth="yes"/>
      <point x="99" y="245"/>
      <point x="338" y="-25"/>
      <point x="680" y="-25" type="curve" smooth="yes"/>
      <point x="1021" y="-25"/>
      <point x="1259" y="245"/>
      <point x="1259" y="677" type="curve" smooth="yes" name="hr03"/>
      <point x="1259" y="921"/>
      <point x="1181" y="1109"/>
      <point x="1053" y="1228" type="curve"/>
      <point x="1181" y="1260"/>
      <point x="1264" y="1329"/>
      <point x="1264" y="1449" type="curve" smooth="yes" name="hr04"/>
      <point x="1264" y="1502"/>
      <point x="1242" y="1550"/>
      <point x="1215" y="1587" type="curve"/>
    </contour>
  </outline>
</glyph>
<glyph name="ohorn" format="1">
  <advance width="1115"/>
  <unicode hex="01A1"/>
  <outline>
    <contour>
      <point x="558" y="134" type="curve" smooth="yes" name="hr01"/>
      <point x="396" y="134"/>
      <point x="289" y="280"/>
      <point x="289" y="498" type="curve" smooth="yes"/>
      <point x="289" y="717"/>
      <point x="396" y="866"/>
      <point x="558" y="866" type="curve" smooth="yes"/>
      <point x="721" y="866"/>
      <point x="826" y="717"/>
      <point x="826" y="498" type="curve" smooth="yes"/>
      <point x="826" y="280"/>
      <point x="721" y="134"/>
    </contour>
    <contour>
      <point x="864" y="1200" type="line" name="hr02"/>
      <point x="882" y="1174"/>
      <point x="895" y="1144"/>
      <point x="895" y="1112" type="curve" smooth="yes"/>
      <point x="895" y="1036"/>
      <point x="841" y="997"/>
      <point x="751" y="981" type="curve"/>
      <point x="691" y="1010"/>
      <point x="626" y="1024"/>
      <point x="558" y="1024" type="curve" smooth="yes"/>
      <point x="311" y="1024"/>
      <point x="90" y="832"/>
      <point x="90" y="498" type="curve" smooth="yes"/>
      <point x="90" y="167"/>
      <point x="311" y="-25"/>
      <point x="558" y="-25" type="curve" smooth="yes"/>
      <point x="804" y="-25"/>
      <point x="1025" y="167"/>
      <point x="1025" y="498" type="curve" smooth="yes" name="hr03"/>
      <point x="1025" y="680"/>
      <point x="958" y="819"/>
      <point x="860" y="909" type="curve"/>
      <point x="962" y="939"/>
      <point x="1051" y="1001"/>
      <point x="1051" y="1126" type="curve" smooth="yes" name="hr04"/>
      <point x="1051" y="1181"/>
      <point x="1030" y="1228"/>
      <point x="1002" y="1265" type="curve"/>
    </contour>
  </outline>
</glyph>
<glyph name="uhorn" format="1">
  <advance width="1123"/>
  <unicode hex="01B0"/>
  <outline>
    <contour>
      <point x="964" y="1221" type="line" name="hr01"/>
      <point x="980" y="1194"/>
      <point x="993" y="1164"/>
      <point x="993" y="1132" type="curve" smooth="yes"/>
      <point x="993" y="1038"/>
      <point x="915" y="1009"/>
      <point x="822" y="999" type="curve"/>
      <point x="769" y="999" type="line"/>
      <point x="769" y="299" type="line"/>
      <point x="682" y="189"/>
      <point x="615" y="141"/>
      <point x="518" y="141" type="curve" smooth="yes"/>
      <point x="394" y="141"/>
      <point x="342" y="215"/>
      <point x="342" y="394" type="curve" smooth="yes"/>
      <point x="342" y="999" type="line"/>
      <point x="148" y="999" type="line"/>
      <point x="148" y="369" type="line"/>
      <point x="148" y="115"/>
      <point x="242" y="-25"/>
      <point x="455" y="-25" type="curve" smooth="yes"/>
      <point x="593" y="-25"/>
      <point x="690" y="46"/>
      <point x="781" y="153" type="curve"/>
      <point x="788" y="153" type="line"/>
      <point x="803" y="0" type="line" name="hr02"/>
      <point x="962" y="0" type="line"/>
      <point x="962" y="931" type="line"/>
      <point x="1057" y="958"/>
      <point x="1150" y="1021"/>
      <point x="1150" y="1147" type="curve" smooth="yes"/>
      <point x="1150" y="1201"/>
      <point x="1127" y="1248"/>
      <point x="1100" y="1285" type="curve"/>
    </contour>
  </outline>
</glyph>
<glyph name="uni01EA" format="1">
  <advance width="1359"/>
  <unicode hex="01EA"/>
  <outline>
    <contour>
      <point x="535" y="-257" type="curve" smooth="yes" name="hr00"/>
      <point x="535" y="-376"/>
      <point x="626" y="-438"/>
      <point x="738" y="-438" type="curve" smooth="yes"/>
      <point x="794" y="-438"/>
      <point x="868" y="-411"/>
      <point x="909" y="-378" type="curve"/>
      <point x="860" y="-275" type="line"/>
      <point x="836" y="-293"/>
      <point x="810" y="-304"/>
      <point x="778" y="-304" type="curve" smooth="yes"/>
      <point x="732" y="-304"/>
      <point x="684" y="-275"/>
      <point x="684" y="-213" type="curve" smooth="yes"/>
      <point x="684" y="-146"/>
      <point x="732" y="-62"/>
      <point x="840" y="-13" type="curve" smooth="yes"/>
      <point x="1107" y="109"/>
      <point x="1259" y="308"/>
      <point x="1259" y="677" type="curve" smooth="yes"/>
      <point x="1259" y="1106"/>
      <point x="1021" y="1367"/>
      <point x="680" y="1367" type="curve" smooth="yes"/>
      <point x="338" y="1367"/>
      <point x="99" y="1108"/>
      <point x="99" y="677" type="curve" smooth="yes"/>
      <point x="99" y="259"/>
      <point x="317" y="-11"/>
      <point x="663" y="-22" type="curve"/>
      <point x="591" y="-81"/>
      <point x="535" y="-165"/>
    </contour>
    <contour>
      <point x="680" y="145" type="curve" smooth="yes"/>
      <point x="449" y="145"/>
      <point x="299" y="354"/>
      <point x="299" y="677" type="curve" smooth="yes"/>
      <point x="299" y="999"/>
      <point x="449" y="1197"/>
      <point x="680" y="1197" type="curve" smooth="yes"/>
      <point x="909" y="1197"/>
      <point x="1059" y="999"/>
      <point x="1059" y="677" type="curve" smooth="yes"/>
      <point x="1059" y="354"/>
      <point x="909" y="145"/>
    </contour>
  </outline>
</glyph>
<glyph name="uni01EB" format="1">
  <advance width="1115"/>
  <unicode hex="01EB"/>
  <outline>
    <contour>
      <point x="415" y="-247" type="curve" smooth="yes" name="hr00"/>
      <point x="415" y="-363"/>
      <point x="499" y="-423"/>
      <point x="605" y="-423" type="curve" smooth="yes"/>
      <point x="660" y="-423"/>
      <point x="734" y="-398"/>
      <point x="775" y="-366" type="curve"/>
      <point x="729" y="-273" type="line"/>
      <point x="703" y="-288"/>
      <point x="678" y="-299"/>
      <point x="647" y="-299" type="curve" smooth="yes"/>
      <point x="599" y="-299"/>
      <point x="554" y="-270"/>
      <point x="554" y="-207" type="curve" smooth="yes"/>
      <point x="554" y="-133"/>
      <point x="604" y="-50"/>
      <point x="698" y="-7" type="curve" smooth="yes"/>
      <point x="893" y="83"/>
      <point x="1025" y="222"/>
      <point x="1025" y="498" type="curve" smooth="yes"/>
      <point x="1025" y="832"/>
      <point x="804" y="1024"/>
      <point x="558" y="1024" type="curve" smooth="yes"/>
      <point x="311" y="1024"/>
      <point x="90" y="832"/>
      <point x="90" y="498" type="curve" smooth="yes"/>
      <point x="90" y="183"/>
      <point x="291" y="-7"/>
      <point x="529" y="-22" type="curve"/>
      <point x="482" y="-61"/>
      <point x="415" y="-144"/>
    </contour>
    <contour>
      <point x="289" y="498" type="curve" smooth="yes"/>
      <point x="289" y="717"/>
      <point x="396" y="866"/>
      <point x="558" y="866" type="curve" smooth="yes"/>
      <point x="721" y="866"/>
      <point x="826" y="717"/>
      <point x="826" y="498" type="curve" smooth="yes"/>
      <point x="826" y="280"/>
      <point x="721" y="134"/>
      <point x="558" y="134" type="curve" smooth="yes"/>
      <point x="396" y="134"/>
      <point x="289" y="280"/>
    </contour>
  </outline>
</glyph>
<glyph name="uni0243" format="1">
  <advance width="1244"/>
  <unicode hex="0243"/>
  <outline>
    <contour>
      <point x="411" y="145" type="line" name="hr01"/>
      <point x="411" y="361" type="line"/>
      <point x="712" y="361" type="line"/>
      <point x="712" y="467" type="line"/>
      <point x="411" y="467" type="line"/>
      <point x="411" y="660" type="line"/>
      <point x="634" y="660" type="line"/>
      <point x="855" y="660"/>
      <point x="980" y="584"/>
      <point x="980" y="414" type="curve" smooth="yes"/>
      <point x="980" y="232"/>
      <point x="851" y="145"/>
      <point x="634" y="145" type="curve" smooth="yes"/>
    </contour>
    <contour>
      <point x="411" y="1199" type="line"/>
      <point x="606" y="1199" type="line"/>
      <point x="802" y="1199"/>
      <point x="906" y="1141"/>
      <point x="906" y="1003" type="curve" smooth="yes" name="hr02"/>
      <point x="906" y="861"/>
      <point x="813" y="784"/>
      <point x="601" y="784" type="curve" smooth="yes"/>
      <point x="411" y="784" type="line"/>
    </contour>
    <contour>
      <point x="861" y="739" type="line"/>
      <point x="1019" y="780"/>
      <point x="1093" y="891"/>
      <point x="1093" y="1019" type="curve" smooth="yes"/>
      <point x="1093" y="1250"/>
      <point x="900" y="1342"/>
      <point x="626" y="1342" type="curve" smooth="yes"/>
      <point x="216" y="1342" type="line"/>
      <point x="216" y="467" type="line"/>
      <point x="60" y="459" type="line"/>
      <point x="60" y="361" type="line"/>
      <point x="216" y="361" type="line"/>
      <point x="216" y="0" type="line"/>
      <point x="658" y="0" type="line"/>
      <point x="956" y="0"/>
      <point x="1169" y="130"/>
      <point x="1169" y="403" type="curve" smooth="yes" name="hr03"/>
      <point x="1169" y="591"/>
      <point x="1056" y="699"/>
      <point x="861" y="731" type="curve"/>
    </contour>
  </outline>
</glyph>
<glyph name="h.sups" format="1">
  <advance width="757"/>
  <unicode hex="02B0"/>
  <outline>
    <contour>
      <point x="102" y="532" type="line" name="hr00"/>
      <point x="245" y="532" type="line"/>
      <point x="245" y="1000" type="line"/>
      <point x="307" y="1060"/>
      <point x="356" y="1090"/>
      <point x="407" y="1090" type="curve" smooth="yes"/>
      <point x="504" y="1090"/>
      <point x="524" y="1029"/>
      <point x="524" y="929" type="curve" smooth="yes"/>
      <point x="524" y="532" type="line"/>
      <point x="667" y="532" type="line"/>
      <point x="667" y="948" type="line"/>
      <point x="667" y="1104"/>
      <point x="611" y="1211"/>
      <point x="458" y="1211" type="curve" smooth="yes"/>
      <point x="368" y="1211"/>
      <point x="292" y="1160"/>
      <point x="238" y="1103" type="curve"/>
      <point x="245" y="1238" type="line"/>
      <point x="245" y="1490" type="line"/>
      <point x="102" y="1490" type="line"/>
    </contour>
  </outline>
</glyph>
<glyph name="j.sups" format="1">
  <advance width="354"/>
  <unicode hex="02B2"/>
  <outline>
    <contour>
      <point x="48" y="239" type="curve" smooth="yes" name="hr01"/>
      <point x="195" y="239"/>
      <point x="250" y="336"/>
      <point x="250" y="482" type="curve" smooth="yes"/>
      <point x="250" y="1195" type="line"/>
      <point x="107" y="1195" type="line"/>
      <point x="107" y="474" type="line"/>
      <point x="107" y="397"/>
      <point x="91" y="356"/>
      <point x="30" y="356" type="curve" smooth="yes"/>
      <point x="3" y="356"/>
      <point x="-11" y="360"/>
      <point x="-28" y="366" type="curve"/>
      <point x="-56" y="255" type="line"/>
      <point x="-26" y="246"/>
      <point x="1" y="239"/>
    </contour>
    <contour>
      <point x="180" y="1315" type="curve" smooth="yes" name="hr02"/>
      <point x="233" y="1315"/>
      <point x="272" y="1350"/>
      <point x="272" y="1400" type="curve" smooth="yes"/>
      <point x="272" y="1450"/>
      <point x="233" y="1485"/>
      <point x="180" y="1485" type="curve" smooth="yes"/>
      <point x="127" y="1485"/>
      <point x="87" y="1450"/>
      <point x="87" y="1400" type="curve" smooth="yes"/>
      <point x="87" y="1350"/>
      <point x="127" y="1315"/>
    </contour>
  </outline>
</glyph>
<glyph name="uni02BE" format="1">
  <advance width="312"/>
  <unicode hex="02BE"/>
  <outline>
    <contour>
      <point x="60" y="1112" type="line" name="hr00"/>
      <point x="213" y="1107"/>
      <point x="294" y="1186"/>
      <point x="294" y="1306" type="curve" smooth="yes"/>
      <point x="294" y="1425"/>
      <point x="213" y="1503"/>
      <point x="60" y="1498" type="curve"/>
      <point x="60" y="1418" type="line"/>
      <point x="153" y="1418"/>
      <point x="189" y="1372"/>
      <point x="189" y="1306" type="curve" smooth="yes"/>
      <point x="189" y="1239"/>
      <point x="153" y="1193"/>
      <point x="60" y="1193" type="curve"/>
    </contour>
  </outline>
</glyph>
<glyph name="uni02C9" format="1">
  <advance width="579"/>
  <unicode hex="02C9"/>
  <outline>
    <contour>
      <point x="33" y="1228" type="line"/>
      <point x="547" y="1228" type="line"/>
      <point x="547" y="1358" type="line"/>
      <point x="33" y="1358" type="line"/>
    </contour>
  </outline>
</glyph>
<glyph name="breve" format="1">
  <advance width="1115"/>
  <unicode hex="02D8"/>
  <outline>
    <contour>
      <point x="558" y="1178" type="curve" smooth="yes" name="hr00"/>
      <point x="736" y="1178"/>
      <point x="813" y="1316"/>
      <point x="821" y="1442" type="curve"/>
      <point x="705" y="1442" type="line"/>
      <point x="694" y="1365"/>
      <point x="649" y="1293"/>
      <point x="558" y="1293" type="curve" smooth="yes"/>
      <point x="466" y="1293"/>
      <point x="421" y="1365"/>
      <point x="410" y="1442" type="curve"/>
      <point x="294" y="1442" type="line"/>
      <point x="302" y="1316"/>
      <point x="379" y="1178"/>
    </contour>
    <contour>
      <point x="557" y="1050" type="move" name="_top"/>
    </contour>
  </outline>
</glyph>
<glyph name="ogonek" format="1">
  <advance width="1115"/>
  <unicode hex="02DB"/>
  <outline>
    <contour>
      <point x="415" y="-247" type="curve" smooth="yes" name="hr00"/>
      <point x="415" y="-363"/>
      <point x="499" y="-423"/>
      <point x="605" y="-423" type="curve" smooth="yes"/>
      <point x="660" y="-423"/>
      <point x="734" y="-398"/>
      <point x="775" y="-366" type="curve"/>
      <point x="729" y="-273" type="line"/>
      <point x="705" y="-288"/>
      <point x="678" y="-299"/>
      <point x="647" y="-299" type="curve" smooth="yes"/>
      <point x="599" y="-299"/>
      <point x="554" y="-270"/>
      <point x="554" y="-207" type="curve" smooth="yes"/>
      <point x="554" y="-131"/>
      <point x="602" y="-58"/>
      <point x="688" y="6" type="curve"/>
      <point x="560" y="6" type="line"/>
      <point x="495" y="-43"/>
      <point x="415" y="-134"/>
    </contour>
    <contour>
      <point x="595" y="1050" type="move" name="_top"/>
    </contour>
  </outline>
</glyph>
<glyph name="tilde" format="1">
  <advance width="1115"/>
  <unicode hex="02DC"/>
  <outline>
    <contour>
      <point x="262" y="1185" type="curve" name="hr01"/>
      <point x="370" y="1185" type="line"/>
      <point x="379" y="1254"/>
      <point x="401" y="1287"/>
      <point x="441" y="1287" type="curve" smooth="yes" name="hr02"/>
      <point x="509" y="1287"/>
      <point x="577" y="1185"/>
      <point x="681" y="1185" type="curve" smooth="yes"/>
      <point x="783" y="1185"/>
      <point x="842" y="1278"/>
      <point x="852" y="1412" type="curve" name="hr03"/>
      <point x="747" y="1412" type="line"/>
      <point x="736" y="1343"/>
      <point x="714" y="1310"/>
      <point x="674" y="1310" type="curve" smooth="yes" name="hr04"/>
      <point x="609" y="1310"/>
      <point x="540" y="1412"/>
      <point x="435" y="1412" type="curve" smooth="yes"/>
      <point x="333" y="1412"/>
      <point x="273" y="1319"/>
    </contour>
    <contour>
      <point x="557" y="1050" type="move" name="_top"/>
    </contour>
  </outline>
</glyph>
<glyph name="s.sups" format="1">
  <advance width="585"/>
  <unicode hex="02E2"/>
  <outline>
    <contour>
      <point x="38" y="606" type="line" name="hr00"/>
      <point x="104" y="555"/>
      <point x="198" y="516"/>
      <point x="295" y="516" type="curve" smooth="yes"/>
      <point x="450" y="516"/>
      <point x="546" y="603"/>
      <point x="546" y="722" type="curve" smooth="yes"/>
      <point x="546" y="845"/>
      <point x="442" y="884"/>
      <point x="350" y="919" type="curve" smooth="yes"/>
      <point x="276" y="947"/>
      <point x="205" y="968"/>
      <point x="205" y="1025" type="curve" smooth="yes"/>
      <point x="205" y="1065"/>
      <point x="239" y="1102"/>
      <point x="308" y="1102" type="curve" smooth="yes"/>
      <point x="368" y="1102"/>
      <point x="410" y="1079"/>
      <point x="459" y="1045" type="curve"/>
      <point x="527" y="1134" type="line"/>
      <point x="472" y="1175"/>
      <point x="401" y="1211"/>
      <point x="304" y="1211" type="curve" smooth="yes"/>
      <point x="158" y="1211"/>
      <point x="70" y="1123"/>
      <point x="70" y="1018" type="curve" smooth="yes"/>
      <point x="70" y="904"/>
      <point x="171" y="855"/>
      <point x="262" y="820" type="curve" smooth="yes"/>
      <point x="337" y="792"/>
      <point x="409" y="769"/>
      <point x="409" y="712" type="curve" smooth="yes"/>
      <point x="409" y="661"/>
      <point x="369" y="624"/>
      <point x="297" y="624" type="curve" smooth="yes"/>
      <point x="227" y="624"/>
      <point x="165" y="654"/>
      <point x="104" y="699" type="curve"/>
    </contour>
  </outline>
</glyph>
<glyph name="x.sups" format="1">
  <advance width="644"/>
  <unicode hex="02E3"/>
  <outline>
    <contour>
      <point x="16" y="532" type="line" name="hr00"/>
      <point x="168" y="532" type="line"/>
      <point x="245" y="667" type="line"/>
      <point x="309" y="778" type="line"/>
      <point x="317" y="778" type="line"/>
      <point x="388" y="667" type="line"/>
      <point x="471" y="532" type="line"/>
      <point x="626" y="532" type="line"/>
      <point x="412" y="863" type="line"/>
      <point x="612" y="1195" type="line"/>
      <point x="462" y="1195" type="line"/>
      <point x="391" y="1065" type="line"/>
      <point x="339" y="959" type="line"/>
      <point x="331" y="959" type="line"/>
      <point x="268" y="1065" type="line"/>
      <point x="189" y="1195" type="line"/>
      <point x="34" y="1195" type="line"/>
      <point x="236" y="878" type="line"/>
    </contour>
  </outline>
</glyph>
<glyph name="uni0304" format="1">
  <advance width="600"/>
  <unicode hex="0304"/>
  <outline>
    <contour>
      <point x="-258" y="1228" type="line"/>
      <point x="258" y="1228" type="line"/>
      <point x="258" y="1358" type="line"/>
      <point x="-258" y="1358" type="line"/>
    </contour>
    <contour>
      <point x="0" y="1044" type="move" name="_mark0"/>
    </contour>
  </outline>
</glyph>
<glyph name="uni0308" format="1">
  <advance width="600"/>
  <unicode hex="0308"/>
  <outline>
    <contour>
      <point x="-181" y="1198" type="curve" smooth="yes"/>
      <point x="-119" y="1198"/>
      <point x="-73" y="1244"/>
      <point x="-73" y="1306" type="curve" smooth="yes"/>
      <point x="-73" y="1368"/>
      <point x="-119" y="1414"/>
      <point x="-181" y="1414" type="curve" smooth="yes"/>
      <point x="-245" y="1414"/>
      <point x="-289" y="1368"/>
      <point x="-289" y="1306" type="curve" smooth="yes"/>
      <point x="-289" y="1244"/>
      <point x="-245" y="1198"/>
    </contour>
    <contour>
      <point x="181" y="1198" type="curve" smooth="yes"/>
      <point x="245" y="1198"/>
      <point x="289" y="1244"/>
      <point x="289" y="1306" type="curve" smooth="yes"/>
      <point x="289" y="1368"/>
      <point x="245" y="1414"/>
      <point x="181" y="1414" type="curve" smooth="yes"/>
      <point x="119" y="1414"/>
      <point x="73" y="1368"/>
      <point x="73" y="1306" type="curve" smooth="yes"/>
      <point x="73" y="1244"/>
      <point x="119" y="1198"/>
    </contour>
    <contour>
      <point x="0" y="1044" type="move" name="_mark0"/>
    </contour>
  </outline>
</glyph>
<glyph name="uni0309" format="1">
  <advance width="915"/>
  <unicode hex="0309"/>
  <outline>
    <contour>
      <point x="377" y="1134" type="line" name="hr00"/>
      <point x="502" y="1153"/>
      <point x="615" y="1205"/>
      <point x="615" y="1328" type="curve" smooth="yes"/>
      <point x="615" y="1433"/>
      <point x="513" y="1492"/>
      <point x="321" y="1498" type="curve"/>
      <point x="300" y="1391" type="line"/>
      <point x="413" y="1385"/>
      <point x="468" y="1358"/>
      <point x="468" y="1308" type="curve" smooth="yes"/>
      <point x="468" y="1258"/>
      <point x="421" y="1236"/>
      <point x="358" y="1219" type="curve"/>
    </contour>
  </outline>
</glyph>
<glyph name="uni030A" format="1">
  <advance width="600"/>
  <unicode hex="030A"/>
  <outline>
    <contour>
      <point x="0" y="1112" type="curve" smooth="yes"/>
      <point x="116" y="1112"/>
      <point x="198" y="1189"/>
      <point x="198" y="1306" type="curve" smooth="yes"/>
      <point x="198" y="1421"/>
      <point x="116" y="1498"/>
      <point x="0" y="1498" type="curve" smooth="yes"/>
      <point x="-116" y="1498"/>
      <point x="-198" y="1421"/>
      <point x="-198" y="1306" type="curve" smooth="yes"/>
      <point x="-198" y="1189"/>
      <point x="-116" y="1112"/>
    </contour>
    <contour>
      <point x="0" y="1195" type="curve" smooth="yes"/>
      <point x="-54" y="1195"/>
      <point x="-95" y="1239"/>
      <point x="-95" y="1306" type="curve" smooth="yes"/>
      <point x="-95" y="1372"/>
      <point x="-54" y="1416"/>
      <point x="0" y="1416" type="curve" smooth="yes"/>
      <point x="54" y="1416"/>
      <point x="95" y="1372"/>
      <point x="95" y="1306" type="curve" smooth="yes"/>
      <point x="95" y="1239"/>
      <point x="54" y="1195"/>
    </contour>
    <contour>
      <point x="0" y="1044" type="move" name="_mark0"/>
    </contour>
  </outline>
</glyph>
<glyph name="uni0312" format="1">
  <advance width="0"/>
  <unicode hex="0312"/>
  <outline>
    <contour>
      <point x="58" y="1508" type="line" name="hr00"/>
      <point x="-62" y="1455"/>
      <point x="-114" y="1362"/>
      <point x="-114" y="1262" type="curve" smooth="yes"/>
      <point x="-114" y="1167"/>
      <point x="-76" y="1116"/>
      <point x="-4" y="1116" type="curve" smooth="yes"/>
      <point x="44" y="1116"/>
      <point x="83" y="1149"/>
      <point x="83" y="1212" type="curve" smooth="yes"/>
      <point x="83" y="1268"/>
      <point x="38" y="1297"/>
      <point x="-6" y="1297" type="curve" smooth="yes"/>
      <point x="-11" y="1297"/>
      <point x="-16" y="1297"/>
      <point x="-22" y="1295" type="curve"/>
      <point x="-17" y="1356"/>
      <point x="19" y="1403"/>
      <point x="97" y="1438" type="curve"/>
    </contour>
  </outline>
</glyph>
<glyph name="uni0313" format="1">
  <advance width="0"/>
  <unicode hex="0313"/>
  <outline>
    <contour>
      <point x="-63" y="1113" type="line" name="hr00"/>
      <point x="58" y="1166"/>
      <point x="109" y="1258"/>
      <point x="109" y="1357" type="curve" smooth="yes"/>
      <point x="109" y="1453"/>
      <point x="71" y="1504"/>
      <point x="1" y="1504" type="curve" smooth="yes"/>
      <point x="-46" y="1504"/>
      <point x="-87" y="1470"/>
      <point x="-87" y="1409" type="curve" smooth="yes"/>
      <point x="-87" y="1353"/>
      <point x="-43" y="1324"/>
      <point x="1" y="1324" type="curve" smooth="yes"/>
      <point x="7" y="1324"/>
      <point x="13" y="1324"/>
      <point x="19" y="1326" type="curve"/>
      <point x="14" y="1266"/>
      <point x="-23" y="1219"/>
      <point x="-99" y="1184" type="curve"/>
    </contour>
  </outline>
</glyph>
<glyph name="uni0324" format="1">
  <advance width="0"/>
  <unicode hex="0324"/>
  <outline>
    <contour>
      <point x="-181" y="-417" type="curve" smooth="yes" name="hr00"/>
      <point x="-119" y="-417"/>
      <point x="-73" y="-370"/>
      <point x="-73" y="-309" type="curve" smooth="yes"/>
      <point x="-73" y="-248"/>
      <point x="-119" y="-201"/>
      <point x="-181" y="-201" type="curve" smooth="yes"/>
      <point x="-245" y="-201"/>
      <point x="-289" y="-248"/>
      <point x="-289" y="-309" type="curve" smooth="yes"/>
      <point x="-289" y="-370"/>
      <point x="-245" y="-417"/>
    </contour>
    <contour>
      <point x="181" y="-417" type="curve" smooth="yes"/>
      <point x="245" y="-417"/>
      <point x="289" y="-370"/>
      <point x="289" y="-309" type="curve" smooth="yes"/>
      <point x="289" y="-248"/>
      <point x="245" y="-201"/>
      <point x="181" y="-201" type="curve" smooth="yes"/>
      <point x="119" y="-201"/>
      <point x="73" y="-248"/>
      <point x="73" y="-309" type="curve" smooth="yes"/>
      <point x="73" y="-370"/>
      <point x="119" y="-417"/>
    </contour>
  </outline>
</glyph>
<glyph name="uni0326" format="1">
  <advance width="464"/>
  <unicode hex="0326"/>
  <outline>
    <contour>
      <point x="176" y="-96" type="curve" name="hr00"/>
      <point x="136" y="-180" type="line"/>
      <point x="193" y="-194"/>
      <point x="237" y="-217"/>
      <point x="237" y="-267" type="curve" smooth="yes"/>
      <point x="237" y="-319"/>
      <point x="163" y="-345"/>
      <point x="57" y="-358" type="curve"/>
      <point x="75" y="-447" type="line"/>
      <point x="237" y="-435"/>
      <point x="383" y="-379"/>
      <point x="383" y="-256" type="curve" smooth="yes"/>
      <point x="383" y="-163"/>
      <point x="324" y="-116"/>
    </contour>
  </outline>
</glyph>
<glyph name="uni0331" format="1">
  <advance width="0"/>
  <unicode hex="0331"/>
  <outline>
    <contour>
      <point x="258" y="-224" type="line" name="hr00"/>
      <point x="-259" y="-224" type="line"/>
      <point x="-259" y="-357" type="line"/>
      <point x="258" y="-357" type="line"/>
    </contour>
  </outline>
</glyph>
<glyph name="visarga-deva" format="1">
  <advance width="555"/>
  <unicode hex="0903"/>
  <outline>
    <contour>
      <point x="207" y="873"/>
      <point x="174" y="842"/>
      <point x="174" y="767" type="curve" smooth="yes"/>
      <point x="174" y="694"/>
      <point x="207" y="663"/>
      <point x="281" y="663" type="curve" smooth="yes"/>
      <point x="355" y="663"/>
      <point x="387" y="694"/>
      <point x="387" y="767" type="curve" smooth="yes"/>
      <point x="387" y="842"/>
      <point x="355" y="873"/>
      <point x="281" y="873" type="curve" smooth="yes"/>
    </contour>
    <contour>
      <point x="207" y="321"/>
      <point x="174" y="290"/>
      <point x="174" y="216" type="curve" smooth="yes"/>
      <point x="174" y="142"/>
      <point x="207" y="111"/>
      <point x="281" y="111" type="curve" smooth="yes"/>
      <point x="355" y="111"/>
      <point x="387" y="142"/>
      <point x="387" y="216" type="curve" smooth="yes"/>
      <point x="387" y="290"/>
      <point x="355" y="321"/>
      <point x="281" y="321" type="curve" smooth="yes"/>
    </contour>
  </outline>
</glyph>
<glyph name="aa-deva" format="1">
  <advance width="1952"/>
  <unicode hex="0906"/>
  <outline>
    <component base="a-deva"/>
    <component base="aaMatra-deva" xOffset="1393"/>
    <contour>
      <point x="1676" y="1167" type="move" name="top"/>
    </contour>
    <contour>
      <point x="1676" y="28" type="move" name="bottom"/>
    </contour>
    <contour>
      <point x="1419" y="1167" type="move" name="topcandra"/>
    </contour>
  </outline>
</glyph>
<glyph name="uu-deva" format="1">
  <advance width="1363"/>
  <unicode hex="090A"/>
  <outline>
    <contour>
      <point x="530" y="1277" type="line"/>
      <point x="530" y="1114" type="line"/>
      <point x="1380" y="1114" type="line"/>
      <point x="1380" y="1277" type="line"/>
    </contour>
    <contour>
      <point x="907" y="720"/>
      <point x="811" y="672"/>
      <point x="716" y="539" type="curve"/>
      <point x="738" y="264" type="line"/>
      <point x="856" y="507"/>
      <point x="934" y="558"/>
      <point x="1013" y="558" type="curve" smooth="yes"/>
      <point x="1095" y="558"/>
      <point x="1135" y="510"/>
      <point x="1135" y="419" type="curve" smooth="yes"/>
      <point x="1135" y="322"/>
      <point x="1085" y="232"/>
      <point x="1008" y="135" type="curve"/>
      <point x="1134" y="31" type="line"/>
      <point x="1248" y="141"/>
      <point x="1305" y="279"/>
      <point x="1305" y="407" type="curve" smooth="yes"/>
      <point x="1305" y="622"/>
      <point x="1169" y="720"/>
      <point x="1025" y="720" type="curve" smooth="yes"/>
    </contour>
    <component base="u-deva"/>
    <contour>
      <point x="584" y="1167" type="move" name="top"/>
    </contour>
    <contour>
      <point x="900" y="27" type="move" name="bottom"/>
    </contour>
    <contour>
      <point x="822" y="1167" type="move" name="topcandra"/>
    </contour>
  </outline>
</glyph>
<glyph name="rVocalic-deva" format="1">
  <advance width="1503"/>
  <unicode hex="090B"/>
  <outline>
    <contour>
      <point x="729" y="482" type="line"/>
      <point x="735" y="593" type="line"/>
      <point x="505" y="898"/>
      <point x="400" y="933"/>
      <point x="285" y="935" type="curve" smooth="yes"/>
      <point x="186" y="936"/>
      <point x="112" y="899"/>
      <point x="47" y="859" type="curve"/>
      <point x="121" y="698" type="line"/>
      <point x="201" y="739"/>
      <point x="258" y="759"/>
      <point x="310" y="758" type="curve" smooth="yes"/>
      <point x="399" y="756"/>
      <point x="474" y="690"/>
      <point x="623" y="529" type="curve"/>
      <point x="625" y="592" type="line"/>
      <point x="120" y="227" type="line"/>
      <point x="231" y="89" type="line"/>
    </contour>
    <contour>
      <point x="849" y="-1" type="line"/>
      <point x="849" y="1160" type="line"/>
      <point x="660" y="1160" type="line"/>
      <point x="660" y="-1" type="line"/>
    </contour>
    <contour>
      <point x="1306" y="109"/>
      <point x="1381" y="225"/>
      <point x="1381" y="364" type="curve" smooth="yes"/>
      <point x="1381" y="512"/>
      <point x="1284" y="655"/>
      <point x="1114" y="828" type="curve"/>
      <point x="1045" y="752" type="line"/>
      <point x="1132" y="613"/>
      <point x="1201" y="500"/>
      <point x="1201" y="392" type="curve" smooth="yes"/>
      <point x="1201" y="295"/>
      <point x="1152" y="233"/>
      <point x="1038" y="173" type="curve"/>
      <point x="1135" y="35" type="line"/>
    </contour>
    <contour>
      <point x="991" y="522"/>
      <point x="1091" y="607"/>
      <point x="1188" y="675" type="curve" smooth="yes"/>
      <point x="1250" y="736"/>
      <point x="1265" y="789"/>
      <point x="1265" y="824" type="curve" smooth="yes"/>
      <point x="1265" y="900"/>
      <point x="1182" y="949"/>
      <point x="1059" y="977" type="curve"/>
      <point x="960" y="890" type="line"/>
      <point x="1069" y="709" type="line"/>
      <point x="1073" y="801" type="line"/>
      <point x="991" y="715"/>
      <point x="871" y="668"/>
      <point x="727" y="700" type="curve"/>
      <point x="798" y="530" type="line"/>
    </contour>
    <contour>
      <point x="1511" y="1114" type="line"/>
      <point x="1511" y="1277" type="line"/>
      <point x="-18" y="1277" type="line"/>
      <point x="-18" y="1114" type="line"/>
    </contour>
    <contour>
      <point x="755" y="1167" type="move" name="top"/>
    </contour>
    <contour>
      <point x="755" y="27" type="move" name="bottom"/>
    </contour>
    <contour>
      <point x="756" y="1167" type="move" name="topcandra"/>
    </contour>
  </outline>
</glyph>
<glyph name="eShort-deva" format="1">
  <advance width="1049"/>
  <unicode hex="090E"/>
  <outline>
    <component base="e-deva"/>
    <component base="eShortMatra-deva" xOffset="555"/>
    <contour>
      <point x="839" y="1432" type="move" name="topcandra"/>
    </contour>
  </outline>
</glyph>
<glyph name="kha-deva" format="1">
  <advance width="1614"/>
  <unicode hex="0916"/>
  <outline>
    <contour>
      <point x="359" y="1172" type="line"/>
      <point x="359" y="808" type="line" smooth="yes"/>
      <point x="359" y="725"/>
      <point x="336" y="683"/>
      <point x="277" y="683" type="curve" smooth="yes"/>
      <point x="244" y="683"/>
      <point x="212" y="693"/>
      <point x="172" y="727" type="curve"/>
      <point x="55" y="645" type="line"/>
      <point x="268" y="113"/>
      <point x="492" y="-58"/>
      <point x="815" y="-58" type="curve" smooth="yes"/>
      <point x="889" y="-58"/>
      <point x="979" y="-48"/>
      <point x="1051" y="-19" type="curve"/>
      <point x="1017" y="138" type="line"/>
      <point x="957" y="121"/>
      <point x="885" y="107"/>
      <point x="807" y="107" type="curve" smooth="yes"/>
      <point x="584" y="107"/>
      <point x="403" y="235"/>
      <point x="268" y="585" type="curve"/>
      <point x="248" y="551" type="line"/>
      <point x="271" y="542"/>
      <point x="302" y="530"/>
      <point x="345" y="530" type="curve" smooth="yes"/>
      <point x="435" y="530"/>
      <point x="548" y="580"/>
      <point x="548" y="798" type="curve" smooth="yes"/>
      <point x="548" y="1172" type="line"/>
    </contour>
    <contour>
      <point x="-18" y="1277" type="line"/>
      <point x="-18" y="1114" type="line"/>
      <point x="1631" y="1114" type="line"/>
      <point x="1631" y="1277" type="line"/>
    </contour>
    <contour>
      <point x="1240" y="1181" type="line"/>
      <point x="1240" y="0" type="line"/>
      <point x="1429" y="0" type="line"/>
      <point x="1429" y="1181" type="line"/>
    </contour>
    <contour>
      <point x="781" y="929"/>
      <point x="646" y="822"/>
      <point x="646" y="595" type="curve" smooth="yes"/>
      <point x="646" y="435"/>
      <point x="723" y="268"/>
      <point x="961" y="268" type="curve" smooth="yes"/>
      <point x="1111" y="268"/>
      <point x="1240" y="331"/>
      <point x="1313" y="441" type="curve"/>
      <point x="1279" y="588" type="line"/>
      <point x="1205" y="488"/>
      <point x="1106" y="429"/>
      <point x="989" y="429" type="curve" smooth="yes"/>
      <point x="890" y="429"/>
      <point x="837" y="472"/>
      <point x="837" y="592" type="curve" smooth="yes"/>
      <point x="837" y="706"/>
      <point x="890" y="762"/>
      <point x="1023" y="765" type="curve" smooth="yes"/>
      <point x="1102" y="768"/>
      <point x="1210" y="750"/>
      <point x="1315" y="725" type="curve"/>
      <point x="1311" y="832" type="line"/>
      <point x="1252" y="887"/>
      <point x="1135" y="929"/>
      <point x="992" y="929" type="curve" smooth="yes"/>
    </contour>
    <contour>
      <point x="139" y="72" type="move" name="nukta"/>
    </contour>
    <contour>
      <point x="1334" y="1167" type="move" name="top"/>
    </contour>
    <contour>
      <point x="878" y="1167" type="move" name="topcandra"/>
    </contour>
    <contour>
      <point x="1335" y="27" type="move" name="bottom"/>
    </contour>
  </outline>
</glyph>
<glyph name="cha-deva" format="1">
  <advance width="1335"/>
  <unicode hex="091B"/>
  <outline>
    <contour>
      <point x="773" y="939"/>
      <point x="690" y="839"/>
      <point x="691" y="702" type="curve" smooth="yes"/>
      <point x="691" y="605"/>
      <point x="743" y="516"/>
      <point x="822" y="458" type="curve"/>
      <point x="922" y="542" type="line"/>
      <point x="878" y="593"/>
      <point x="863" y="637"/>
      <point x="863" y="681" type="curve" smooth="yes"/>
      <point x="863" y="747"/>
      <point x="902" y="793"/>
      <point x="969" y="793" type="curve" smooth="yes"/>
      <point x="1048" y="793"/>
      <point x="1094" y="742"/>
      <point x="1094" y="630" type="curve" smooth="yes"/>
      <point x="1094" y="397"/>
      <point x="864" y="233"/>
      <point x="561" y="233" type="curve" smooth="yes"/>
      <point x="347" y="233"/>
      <point x="281" y="312"/>
      <point x="281" y="419" type="curve" smooth="yes"/>
      <point x="281" y="570"/>
      <point x="412" y="598"/>
      <point x="560" y="601" type="curve"/>
      <point x="557" y="759" type="line"/>
      <point x="541" y="760"/>
      <point x="524" y="760"/>
      <point x="511" y="760" type="curve" smooth="yes"/>
      <point x="287" y="757"/>
      <point x="87" y="649"/>
      <point x="87" y="433" type="curve" smooth="yes"/>
      <point x="87" y="212"/>
      <point x="255" y="64"/>
      <point x="565" y="64" type="curve" smooth="yes"/>
      <point x="955" y="64"/>
      <point x="1268" y="296"/>
      <point x="1268" y="633" type="curve" smooth="yes"/>
      <point x="1268" y="841"/>
      <point x="1143" y="941"/>
      <point x="965" y="940" type="curve" smooth="yes"/>
    </contour>
    <contour>
      <point x="233" y="1183"/>
      <point x="83" y="1115"/>
      <point x="86" y="921" type="curve" smooth="yes"/>
      <point x="91" y="796"/>
      <point x="185" y="717"/>
      <point x="367" y="641" type="curve"/>
      <point x="470" y="690" type="line"/>
      <point x="317" y="771"/>
      <point x="283" y="834"/>
      <point x="283" y="924" type="curve" smooth="yes"/>
      <point x="283" y="1027"/>
      <point x="362" y="1104"/>
      <point x="507" y="1116" type="curve"/>
      <point x="530" y="1206" type="line"/>
    </contour>
    <contour>
      <point x="-18" y="1277" type="line"/>
      <point x="-18" y="1114" type="line"/>
      <point x="1352" y="1114" type="line"/>
      <point x="1352" y="1277" type="line"/>
    </contour>
    <contour>
      <point x="872" y="1213" type="line"/>
      <point x="872" y="859" type="line"/>
      <point x="1057" y="859" type="line"/>
      <point x="1057" y="1213" type="line"/>
    </contour>
    <contour>
      <point x="48" y="72" type="move" name="nukta"/>
    </contour>
    <contour>
      <point x="965" y="1167" type="move" name="top"/>
    </contour>
    <contour>
      <point x="663" y="1167" type="move" name="topcandra"/>
    </contour>
    <contour>
      <point x="620" y="75" type="move" name="bottom"/>
    </contour>
  </outline>
</glyph>
<glyph name="jha-deva" format="1">
  <advance width="1543"/>
  <unicode hex="091D"/>
  <outline>
    <contour>
      <point x="1097" y="533"/>
      <point x="939" y="494"/>
      <point x="820" y="507" type="curve"/>
      <point x="882" y="368" type="line"/>
      <point x="988" y="351"/>
      <point x="1176" y="391"/>
      <point x="1240" y="451" type="curve"/>
      <point x="1213" y="621" type="line"/>
    </contour>
    <component base="i-deva"/>
    <component base="aaMatra-deva" xOffset="984"/>
    <contour>
      <point x="164" y="-196" type="move" name="nukta"/>
    </contour>
    <contour>
      <point x="1264" y="1167" type="move" name="top"/>
    </contour>
    <contour>
      <point x="1015" y="1183" type="move" name="topcandra"/>
    </contour>
    <contour>
      <point x="1264" y="27" type="move" name="bottom"/>
    </contour>
  </outline>
</glyph>
<glyph name="nya-deva" format="1">
  <advance width="1477"/>
  <unicode hex="091E"/>
  <outline>
    <contour>
      <point x="516" y="929"/>
      <point x="464" y="921"/>
      <point x="420" y="901" type="curve"/>
      <point x="451" y="745" type="line"/>
      <point x="487" y="753"/>
      <point x="523" y="758"/>
      <point x="574" y="758" type="curve" smooth="yes"/>
      <point x="674" y="758"/>
      <point x="748" y="715"/>
      <point x="750" y="578" type="curve" smooth="yes"/>
      <point x="752" y="432"/>
      <point x="664" y="373"/>
      <point x="554" y="373" type="curve" smooth="yes"/>
      <point x="369" y="373"/>
      <point x="254" y="511"/>
      <point x="190" y="873" type="curve"/>
      <point x="42" y="843" type="line"/>
      <point x="112" y="329"/>
      <point x="344" y="203"/>
      <point x="558" y="203" type="curve" smooth="yes"/>
      <point x="783" y="203"/>
      <point x="924" y="333"/>
      <point x="924" y="569" type="curve" smooth="yes"/>
      <point x="924" y="814"/>
      <point x="768" y="929"/>
      <point x="574" y="929" type="curve" smooth="yes"/>
    </contour>
    <contour>
      <point x="1116" y="677"/>
      <point x="937" y="639"/>
      <point x="822" y="653" type="curve"/>
      <point x="867" y="498" type="line"/>
      <point x="969" y="479"/>
      <point x="1174" y="522"/>
      <point x="1243" y="586" type="curve"/>
      <point x="1236" y="767" type="line"/>
    </contour>
    <contour>
      <point x="1100" y="1197" type="line"/>
      <point x="1100" y="0" type="line"/>
      <point x="1289" y="0" type="line"/>
      <point x="1289" y="1197" type="line"/>
    </contour>
    <contour>
      <point x="-18" y="1277" type="line"/>
      <point x="-18" y="1114" type="line"/>
      <point x="1494" y="1114" type="line"/>
      <point x="1494" y="1277" type="line"/>
    </contour>
    <contour>
      <point x="202" y="72" type="move" name="nukta"/>
    </contour>
    <contour>
      <point x="1195" y="1167" type="move" name="top"/>
    </contour>
    <contour>
      <point x="762" y="1167" type="move" name="topcandra"/>
    </contour>
    <contour>
      <point x="1195" y="27" type="move" name="bottom"/>
    </contour>
  </outline>
</glyph>
<glyph name="tha-deva" format="1">
  <advance width="1246"/>
  <unicode hex="0925"/>
  <outline>
    <contour>
      <point x="168" y="1296"/>
      <point x="83" y="1195"/>
      <point x="85" y="1084" type="curve" smooth="yes"/>
      <point x="86" y="1001"/>
      <point x="139" y="927"/>
      <point x="235" y="876" type="curve"/>
      <point x="311" y="960" type="line"/>
      <point x="270" y="995"/>
      <point x="248" y="1024"/>
      <point x="248" y="1062" type="curve" smooth="yes"/>
      <point x="248" y="1107"/>
      <point x="280" y="1140"/>
      <point x="344" y="1140" type="curve" smooth="yes"/>
      <point x="418" y="1140"/>
      <point x="465" y="1091"/>
      <point x="465" y="1009" type="curve" smooth="yes"/>
      <point x="465" y="849"/>
      <point x="282" y="756"/>
      <point x="117" y="692" type="curve"/>
      <point x="174" y="387"/>
      <point x="360" y="251"/>
      <point x="570" y="251" type="curve" smooth="yes"/>
      <point x="701" y="251"/>
      <point x="830" y="297"/>
      <point x="913" y="409" type="curve"/>
      <point x="896" y="604" type="line"/>
      <point x="807" y="471"/>
      <point x="688" y="424"/>
      <point x="579" y="424" type="curve" smooth="yes"/>
      <point x="444" y="424"/>
      <point x="343" y="490"/>
      <point x="295" y="642" type="curve"/>
      <point x="277" y="588" type="line"/>
      <point x="447" y="648"/>
      <point x="648" y="778"/>
      <point x="648" y="997" type="curve" smooth="yes"/>
      <point x="648" y="1133"/>
      <point x="556" y="1296"/>
      <point x="340" y="1296" type="curve" smooth="yes"/>
    </contour>
    <contour>
      <point x="872" y="1182" type="line"/>
      <point x="872" y="0" type="line"/>
      <point x="1061" y="0" type="line"/>
      <point x="1061" y="1182" type="line"/>
    </contour>
    <contour>
      <point x="745" y="1277" type="line"/>
      <point x="745" y="1114" type="line"/>
      <point x="1264" y="1114" type="line"/>
      <point x="1264" y="1277" type="line"/>
    </contour>
    <contour>
      <point x="202" y="111" type="move" name="nukta"/>
    </contour>
    <contour>
      <point x="967" y="1167" type="move" name="top"/>
    </contour>
    <contour>
      <point x="670" y="1167" type="move" name="topcandra"/>
    </contour>
    <contour>
      <point x="967" y="27" type="move" name="bottom"/>
    </contour>
  </outline>
</glyph>
<glyph name="dha-deva" format="1">
  <advance width="1270"/>
  <unicode hex="0927"/>
  <outline>
    <contour>
      <point x="264" y="847"/>
      <point x="146" y="682"/>
      <point x="146" y="523" type="curve" smooth="yes"/>
      <point x="146" y="333"/>
      <point x="275" y="206"/>
      <point x="493" y="206" type="curve" smooth="yes"/>
      <point x="685" y="206"/>
      <point x="849" y="281"/>
      <point x="972" y="412" type="curve"/>
      <point x="937" y="608" type="line"/>
      <point x="833" y="455"/>
      <point x="669" y="371"/>
      <point x="506" y="371" type="curve" smooth="yes"/>
      <point x="383" y="371"/>
      <point x="340" y="424"/>
      <point x="340" y="517" type="curve" smooth="yes"/>
      <point x="340" y="631"/>
      <point x="414" y="685"/>
      <point x="621" y="691" type="curve"/>
      <point x="615" y="851" type="line"/>
    </contour>
    <contour>
      <point x="294" y="1295"/>
      <point x="95" y="1225"/>
      <point x="95" y="1026" type="curve" smooth="yes"/>
      <point x="95" y="901"/>
      <point x="174" y="806"/>
      <point x="388" y="721" type="curve"/>
      <point x="490" y="792" type="line"/>
      <point x="348" y="852"/>
      <point x="290" y="912"/>
      <point x="292" y="1001" type="curve" smooth="yes"/>
      <point x="293" y="1103"/>
      <point x="374" y="1131"/>
      <point x="473" y="1132" type="curve" smooth="yes"/>
      <point x="517" y="1133"/>
      <point x="565" y="1129"/>
      <point x="614" y="1120" type="curve"/>
      <point x="638" y="1272" type="line"/>
      <point x="588" y="1287"/>
      <point x="512" y="1295"/>
      <point x="455" y="1295" type="curve" smooth="yes"/>
    </contour>
    <contour>
      <point x="895" y="1219" type="line"/>
      <point x="895" y="1" type="line"/>
      <point x="1084" y="1" type="line"/>
      <point x="1084" y="1219" type="line"/>
    </contour>
    <contour>
      <point x="761" y="1277" type="line"/>
      <point x="761" y="1114" type="line"/>
      <point x="1288" y="1114" type="line"/>
      <point x="1288" y="1277" type="line"/>
    </contour>
    <contour>
      <point x="226" y="72" type="move" name="nukta"/>
    </contour>
    <contour>
      <point x="990" y="1167" type="move" name="top"/>
    </contour>
    <contour>
      <point x="687" y="1167" type="move" name="topcandra"/>
    </contour>
    <contour>
      <point x="990" y="27" type="move" name="bottom"/>
    </contour>
  </outline>
</glyph>
<glyph name="pha-deva" format="1">
  <advance width="1597"/>
  <unicode hex="092B"/>
  <outline>
    <contour>
      <point x="775" y="1197" type="line"/>
      <point x="775" y="0" type="line"/>
      <point x="965" y="0" type="line"/>
      <point x="965" y="1197" type="line"/>
    </contour>
    <contour>
      <point x="-18" y="1277" type="line"/>
      <point x="-18" y="1114" type="line"/>
      <point x="1614" y="1114" type="line"/>
      <point x="1614" y="1277" type="line"/>
    </contour>
    <contour>
      <point x="1109" y="881"/>
      <point x="1005" y="825"/>
      <point x="902" y="702" type="curve"/>
      <point x="879" y="440" type="line"/>
      <point x="1035" y="641"/>
      <point x="1149" y="713"/>
      <point x="1234" y="713" type="curve" smooth="yes"/>
      <point x="1319" y="713"/>
      <point x="1364" y="661"/>
      <point x="1364" y="566" type="curve" smooth="yes"/>
      <point x="1364" y="463"/>
      <point x="1313" y="359"/>
      <point x="1227" y="240" type="curve"/>
      <point x="1367" y="136" type="line"/>
      <point x="1477" y="258"/>
      <point x="1537" y="403"/>
      <point x="1537" y="549" type="curve" smooth="yes"/>
      <point x="1537" y="746"/>
      <point x="1430" y="881"/>
      <point x="1244" y="881" type="curve" smooth="yes"/>
    </contour>
    <contour>
      <point x="155" y="1167" type="line"/>
      <point x="155" y="703" type="line" smooth="yes"/>
      <point x="155" y="450"/>
      <point x="277" y="318"/>
      <point x="501" y="318" type="curve" smooth="yes"/>
      <point x="633" y="318"/>
      <point x="784" y="392"/>
      <point x="866" y="541" type="curve"/>
      <point x="828" y="694" type="line"/>
      <point x="748" y="564"/>
      <point x="635" y="491"/>
      <point x="512" y="490" type="curve" smooth="yes"/>
      <point x="385" y="489"/>
      <point x="347" y="553"/>
      <point x="347" y="692" type="curve" smooth="yes"/>
      <point x="347" y="1167" type="line"/>
    </contour>
    <contour>
      <point x="355" y="88" type="move" name="nukta"/>
    </contour>
    <contour>
      <point x="870" y="1167" type="move" name="top"/>
    </contour>
    <contour>
      <point x="870" y="1167" type="move" name="topcandra"/>
    </contour>
    <contour>
      <point x="870" y="27" type="move" name="bottom"/>
    </contour>
  </outline>
</glyph>
<glyph name="bha-deva" format="1">
  <advance width="1236"/>
  <unicode hex="092D"/>
  <outline>
    <contour>
      <point x="170" y="1298"/>
      <point x="122" y="1289"/>
      <point x="76" y="1272" type="curve"/>
      <point x="99" y="1114" type="line"/>
      <point x="131" y="1121"/>
      <point x="166" y="1128"/>
      <point x="199" y="1128" type="curve" smooth="yes"/>
      <point x="252" y="1129"/>
      <point x="283" y="1107"/>
      <point x="283" y="1037" type="curve" smooth="yes"/>
      <point x="283" y="549" type="line"/>
      <point x="472" y="549" type="line"/>
      <point x="472" y="1033" type="line" smooth="yes"/>
      <point x="472" y="1162"/>
      <point x="451" y="1298"/>
      <point x="234" y="1298" type="curve" smooth="yes"/>
    </contour>
    <contour>
      <point x="319" y="648" type="line"/>
      <point x="136" y="627" type="line"/>
      <point x="136" y="496" type="line"/>
      <point x="317" y="294" type="line"/>
      <point x="444" y="295"/>
      <point x="471" y="358"/>
      <point x="471" y="433" type="curve" smooth="yes"/>
      <point x="471" y="648" type="line"/>
    </contour>
    <contour>
      <point x="288" y="643" type="line"/>
      <point x="288" y="475" type="line"/>
      <point x="1012" y="475" type="line"/>
      <point x="1012" y="643" type="line"/>
    </contour>
    <contour>
      <point x="861" y="1211" type="line"/>
      <point x="861" y="1" type="line"/>
      <point x="1050" y="1" type="line"/>
      <point x="1050" y="1211" type="line"/>
    </contour>
    <contour>
      <point x="683" y="1277" type="line"/>
      <point x="683" y="1114" type="line"/>
      <point x="1253" y="1114" type="line"/>
      <point x="1253" y="1277" type="line"/>
    </contour>
    <contour>
      <point x="325" y="72" type="move" name="nukta"/>
    </contour>
    <contour>
      <point x="956" y="1167" type="move" name="top"/>
    </contour>
    <contour>
      <point x="668" y="1167" type="move" name="topcandra"/>
    </contour>
    <contour>
      <point x="956" y="27" type="move" name="bottom"/>
    </contour>
  </outline>
</glyph>
<glyph name="ya-deva" format="1">
  <advance width="1158"/>
  <unicode hex="092F"/>
  <outline>
    <contour>
      <point x="175" y="1135" type="line"/>
      <point x="250" y="1053"/>
      <point x="293" y="958"/>
      <point x="293" y="898" type="curve" smooth="yes"/>
      <point x="293" y="801"/>
      <point x="205" y="744"/>
      <point x="39" y="679" type="curve"/>
      <point x="89" y="386"/>
      <point x="275" y="246"/>
      <point x="495" y="246" type="curve" smooth="yes"/>
      <point x="616" y="246"/>
      <point x="758" y="297"/>
      <point x="837" y="416" type="curve"/>
      <point x="844" y="653" type="line"/>
      <point x="752" y="482"/>
      <point x="621" y="418"/>
      <point x="487" y="418" type="curve" smooth="yes"/>
      <point x="351" y="418"/>
      <point x="264" y="479"/>
      <point x="205" y="649" type="curve"/>
      <point x="178" y="568" type="line"/>
      <point x="343" y="628"/>
      <point x="477" y="724"/>
      <point x="477" y="879" type="curve" smooth="yes"/>
      <point x="477" y="960"/>
      <point x="442" y="1035"/>
      <point x="363" y="1137" type="curve"/>
    </contour>
    <contour>
      <point x="783" y="1222" type="line"/>
      <point x="783" y="0" type="line"/>
      <point x="972" y="0" type="line"/>
      <point x="972" y="1222" type="line"/>
    </contour>
    <contour>
      <point x="-18" y="1277" type="line"/>
      <point x="-18" y="1114" type="line"/>
      <point x="1175" y="1114" type="line"/>
      <point x="1175" y="1277" type="line"/>
    </contour>
    <contour>
      <point x="223" y="79" type="move" name="nukta"/>
    </contour>
    <contour>
      <point x="878" y="1167" type="move" name="top"/>
    </contour>
    <contour>
      <point x="585" y="1167" type="move" name="topcandra"/>
    </contour>
    <contour>
      <point x="878" y="27" type="move" name="bottom"/>
    </contour>
  </outline>
</glyph>
<glyph name="lla-deva" format="1">
  <advance width="1478"/>
  <unicode hex="0933"/>
  <outline>
    <contour>
      <point x="187" y="942"/>
      <point x="62" y="805"/>
      <point x="62" y="539" type="curve" smooth="yes"/>
      <point x="62" y="283"/>
      <point x="192" y="138"/>
      <point x="391" y="138" type="curve" smooth="yes"/>
      <point x="566" y="138"/>
      <point x="643" y="206"/>
      <point x="795" y="445" type="curve" smooth="yes"/>
      <point x="941" y="680"/>
      <point x="991" y="765"/>
      <point x="1091" y="765" type="curve" smooth="yes"/>
      <point x="1184" y="765"/>
      <point x="1227" y="691"/>
      <point x="1227" y="554" type="curve" smooth="yes"/>
      <point x="1227" y="394"/>
      <point x="1162" y="312"/>
      <point x="1041" y="312" type="curve" smooth="yes"/>
      <point x="934" y="312"/>
      <point x="866" y="376"/>
      <point x="797" y="474" type="curve"/>
      <point x="707" y="349" type="line"/>
      <point x="804" y="217"/>
      <point x="895" y="140"/>
      <point x="1069" y="140" type="curve" smooth="yes"/>
      <point x="1293" y="140"/>
      <point x="1416" y="280"/>
      <point x="1416" y="552" type="curve" smooth="yes"/>
      <point x="1416" y="823"/>
      <point x="1275" y="940"/>
      <point x="1080" y="940" type="curve" smooth="yes"/>
      <point x="911" y="940"/>
      <point x="837" y="856"/>
      <point x="713" y="670" type="curve" smooth="yes"/>
      <point x="606" y="491"/>
      <point x="521" y="314"/>
      <point x="391" y="314" type="curve" smooth="yes"/>
      <point x="291" y="314"/>
      <point x="251" y="374"/>
      <point x="251" y="537" type="curve" smooth="yes"/>
      <point x="251" y="691"/>
      <point x="314" y="770"/>
      <point x="435" y="770" type="curve" smooth="yes"/>
      <point x="553" y="770"/>
      <point x="637" y="699"/>
      <point x="707" y="598" type="curve"/>
      <point x="778" y="721" type="line"/>
      <point x="682" y="892"/>
      <point x="566" y="942"/>
      <point x="422" y="942" type="curve" smooth="yes"/>
    </contour>
    <contour>
      <point x="-17" y="1277" type="line"/>
      <point x="-17" y="1114" type="line"/>
      <point x="1495" y="1114" type="line"/>
      <point x="1495" y="1277" type="line"/>
    </contour>
    <contour>
      <point x="997" y="1211" type="line"/>
      <point x="997" y="827" type="line"/>
      <point x="1186" y="827" type="line"/>
      <point x="1186" y="1211" type="line"/>
    </contour>
    <contour>
      <point x="732" y="68" type="move" name="nukta"/>
    </contour>
    <contour>
      <point x="1091" y="1167" type="move" name="top"/>
    </contour>
    <contour>
      <point x="741" y="1167" type="move" name="topcandra"/>
    </contour>
    <contour>
      <point x="799" y="142" type="move" name="bottom"/>
    </contour>
  </outline>
</glyph>
<glyph name="sha-deva" format="1">
  <advance width="1364"/>
  <unicode hex="0936"/>
  <outline>
    <contour>
      <point x="207" y="1298"/>
      <point x="94" y="1183"/>
      <point x="95" y="1049" type="curve" smooth="yes"/>
      <point x="96" y="949"/>
      <point x="151" y="858"/>
      <point x="300" y="784" type="curve"/>
      <point x="380" y="892" type="line"/>
      <point x="297" y="946"/>
      <point x="274" y="988"/>
      <point x="274" y="1034" type="curve" smooth="yes"/>
      <point x="274" y="1101"/>
      <point x="329" y="1140"/>
      <point x="423" y="1140" type="curve" smooth="yes"/>
      <point x="544" y="1140"/>
      <point x="596" y="1059"/>
      <point x="596" y="953" type="curve" smooth="yes"/>
      <point x="596" y="760"/>
      <point x="463" y="632"/>
      <point x="195" y="529" type="curve"/>
      <point x="319" y="414" type="line"/>
      <point x="596" y="514"/>
      <point x="781" y="689"/>
      <point x="781" y="955" type="curve" smooth="yes"/>
      <point x="781" y="1139"/>
      <point x="669" y="1298"/>
      <point x="419" y="1298" type="curve" smooth="yes"/>
    </contour>
    <contour>
      <point x="215" y="508" type="line"/>
      <point x="644" y="-47" type="line"/>
      <point x="790" y="77" type="line"/>
      <point x="343" y="559" type="line"/>
    </contour>
    <contour>
      <point x="128" y="681" type="line"/>
      <point x="90" y="612"/>
      <point x="79" y="554"/>
      <point x="79" y="512" type="curve" smooth="yes"/>
      <point x="78" y="419"/>
      <point x="146" y="383"/>
      <point x="202" y="383" type="curve" smooth="yes"/>
      <point x="266" y="383"/>
      <point x="316" y="402"/>
      <point x="420" y="454" type="curve"/>
      <point x="401" y="496" type="line"/>
      <point x="243" y="681" type="line"/>
    </contour>
    <contour>
      <point x="989" y="1197" type="line"/>
      <point x="989" y="0" type="line"/>
      <point x="1179" y="0" type="line"/>
      <point x="1179" y="1197" type="line"/>
    </contour>
    <contour>
      <point x="837" y="1277" type="line"/>
      <point x="837" y="1114" type="line"/>
      <point x="1382" y="1114" type="line"/>
      <point x="1382" y="1277" type="line"/>
    </contour>
    <contour>
      <point x="260" y="72" type="move" name="nukta"/>
    </contour>
    <contour>
      <point x="1085" y="1167" type="move" name="top"/>
    </contour>
    <contour>
      <point x="765" y="1167" type="move" name="topcandra"/>
    </contour>
    <contour>
      <point x="1085" y="27" type="move" name="bottom"/>
    </contour>
  </outline>
</glyph>
<glyph name="sa-deva" format="1">
  <advance width="1326"/>
  <unicode hex="0938"/>
  <outline>
    <contour>
      <point x="353" y="1180" type="line"/>
      <point x="353" y="800" type="line" smooth="yes"/>
      <point x="353" y="720"/>
      <point x="330" y="680"/>
      <point x="271" y="680" type="curve" smooth="yes"/>
      <point x="232" y="680"/>
      <point x="200" y="696"/>
      <point x="163" y="727" type="curve"/>
      <point x="42" y="628" type="line"/>
      <point x="479" y="-33" type="line"/>
      <point x="631" y="77" type="line"/>
      <point x="264" y="574" type="line"/>
      <point x="254" y="561" type="line"/>
      <point x="271" y="547"/>
      <point x="301" y="535"/>
      <point x="335" y="535" type="curve" smooth="yes"/>
      <point x="453" y="535"/>
      <point x="542" y="619"/>
      <point x="542" y="797" type="curve" smooth="yes"/>
      <point x="542" y="1180" type="line"/>
    </contour>
    <contour>
      <point x="949" y="692"/>
      <point x="849" y="674"/>
      <point x="751" y="674" type="curve" smooth="yes"/>
      <point x="643" y="674"/>
      <point x="538" y="689"/>
      <point x="464" y="722" type="curve"/>
      <point x="407" y="576" type="line"/>
      <point x="512" y="527"/>
      <point x="641" y="504"/>
      <point x="768" y="504" type="curve" smooth="yes"/>
      <point x="862" y="504"/>
      <point x="953" y="517"/>
      <point x="1027" y="541" type="curve"/>
      <point x="1027" y="722" type="line"/>
    </contour>
    <contour>
      <point x="952" y="1149" type="line"/>
      <point x="952" y="0" type="line"/>
      <point x="1141" y="0" type="line"/>
      <point x="1141" y="1149" type="line"/>
    </contour>
    <contour>
      <point x="-18" y="1277" type="line"/>
      <point x="-18" y="1114" type="line"/>
      <point x="1343" y="1114" type="line"/>
      <point x="1343" y="1277" type="line"/>
    </contour>
    <contour>
      <point x="155" y="72" type="move" name="nukta"/>
    </contour>
    <contour>
      <point x="1047" y="1167" type="move" name="top"/>
    </contour>
    <contour>
      <point x="756" y="1167" type="move" name="topcandra"/>
    </contour>
    <contour>
      <point x="1047" y="27" type="move" name="bottom"/>
    </contour>
  </outline>
</glyph>
<glyph name="ha-deva" format="1">
  <advance width="1022"/>
  <unicode hex="0939"/>
  <outline>
    <contour>
      <point x="341" y="556"/>
      <point x="93" y="479"/>
      <point x="93" y="216" type="curve" smooth="yes"/>
      <point x="93" y="11"/>
      <point x="275" y="-242"/>
      <point x="799" y="-359" type="curve"/>
      <point x="841" y="-211" type="line"/>
      <point x="651" y="-156"/>
      <point x="290" y="-53"/>
      <point x="283" y="190" type="curve" smooth="yes"/>
      <point x="283" y="304"/>
      <point x="343" y="389"/>
      <point x="555" y="389" type="curve" smooth="yes"/>
      <point x="696" y="389"/>
      <point x="765" y="347"/>
      <point x="765" y="277" type="curve" smooth="yes"/>
      <point x="765" y="208"/>
      <point x="691" y="176"/>
      <point x="611" y="158" type="curve"/>
      <point x="669" y="10" type="line"/>
      <point x="816" y="33"/>
      <point x="928" y="133"/>
      <point x="928" y="278" type="curve" smooth="yes"/>
      <point x="928" y="465"/>
      <point x="777" y="556"/>
      <point x="552" y="556" type="curve" smooth="yes"/>
    </contour>
    <contour>
      <point x="664" y="1162" type="line"/>
      <point x="664" y="929" type="line"/>
      <point x="404" y="929" type="line" smooth="yes"/>
      <point x="206" y="929"/>
      <point x="120" y="843"/>
      <point x="120" y="726" type="curve" smooth="yes"/>
      <point x="119" y="629"/>
      <point x="176" y="535"/>
      <point x="278" y="417" type="curve"/>
      <point x="394" y="463" type="line"/>
      <point x="340" y="554"/>
      <point x="311" y="630"/>
      <point x="312" y="682" type="curve" smooth="yes"/>
      <point x="313" y="729"/>
      <point x="342" y="762"/>
      <point x="432" y="762" type="curve" smooth="yes"/>
      <point x="854" y="762" type="line"/>
      <point x="854" y="1162" type="line"/>
    </contour>
    <contour>
      <point x="-18" y="1277" type="line"/>
      <point x="-18" y="1114" type="line"/>
      <point x="1039" y="1114" type="line"/>
      <point x="1039" y="1277" type="line"/>
    </contour>
    <contour>
      <point x="182" y="-285" type="move" name="nukta"/>
    </contour>
    <contour>
      <point x="759" y="1167" type="move" name="top"/>
    </contour>
    <contour>
      <point x="544" y="1167" type="move" name="topcandra"/>
    </contour>
    <contour>
      <point x="710" y="-276" type="move" name="bottom"/>
    </contour>
  </outline>
</glyph>
<glyph name="oeMatra-deva" format="1">
  <advance width="540"/>
  <unicode hex="093A"/>
  <outline>
    <contour>
      <point x="176" y="1097" type="line"/>
      <point x="365" y="1097" type="line"/>
      <point x="365" y="1548" type="line"/>
      <point x="176" y="1548" type="line"/>
    </contour>
  </outline>
</glyph>
<glyph name="ooeMatra-deva" format="1">
  <advance width="559"/>
  <unicode hex="093B"/>
  <outline>
    <contour>
      <point x="185" y="1097" type="line"/>
      <point x="374" y="1097" type="line"/>
      <point x="374" y="1548" type="line"/>
      <point x="185" y="1548" type="line"/>
    </contour>
    <component base="aaMatra-deva"/>
  </outline>
</glyph>
<glyph name="nukta-deva" format="1">
  <advance width="555"/>
  <unicode hex="093C"/>
  <outline>
    <contour>
      <point x="198" y="133"/>
      <point x="166" y="101"/>
      <point x="166" y="27" type="curve" smooth="yes"/>
      <point x="166" y="-46"/>
      <point x="198" y="-77"/>
      <point x="272" y="-77" type="curve" smooth="yes"/>
      <point x="346" y="-77"/>
      <point x="378" y="-46"/>
      <point x="378" y="27" type="curve" smooth="yes"/>
      <point x="378" y="101"/>
      <point x="346" y="133"/>
      <point x="272" y="133" type="curve" smooth="yes"/>
    </contour>
    <contour>
      <point x="273" y="27" type="move" name="_nukta"/>
    </contour>
  </outline>
</glyph>
<glyph name="iMatra-deva" format="1">
  <advance width="559"/>
  <unicode hex="093F"/>
  <outline>
    <contour>
      <point x="265" y="1797"/>
      <point x="78" y="1726"/>
      <point x="78" y="1516" type="curve" smooth="yes"/>
      <point x="78" y="1401"/>
      <point x="134" y="1305"/>
      <point x="268" y="1196" type="curve"/>
      <point x="430" y="1202" type="line"/>
      <point x="299" y="1338"/>
      <point x="273" y="1398"/>
      <point x="273" y="1473" type="curve" smooth="yes"/>
      <point x="273" y="1573"/>
      <point x="330" y="1624"/>
      <point x="513" y="1624" type="curve" smooth="yes"/>
      <point x="836" y="1624"/>
      <point x="1122" y="1520"/>
      <point x="1434" y="1351" type="curve"/>
      <point x="1503" y="1460" type="line"/>
      <point x="1158" y="1682"/>
      <point x="816" y="1797"/>
      <point x="485" y="1797" type="curve" smooth="yes"/>
    </contour>
    <contour>
      <point x="185" y="1210" type="line"/>
      <point x="185" y="1" type="line"/>
      <point x="374" y="1" type="line"/>
      <point x="374" y="1210" type="line"/>
    </contour>
    <contour>
      <point x="-18" y="1277" type="line"/>
      <point x="-18" y="1114" type="line"/>
      <point x="581" y="1114" type="line"/>
      <point x="581" y="1277" type="line"/>
    </contour>
    <contour>
      <point x="1467" y="1397" type="move" name="imatra"/>
    </contour>
    <contour>
      <point x="1271" y="1424" type="move" name="top"/>
    </contour>
    <contour>
      <point x="1432" y="1432" type="move" name="topcandra"/>
    </contour>
  </outline>
</glyph>
<glyph name="iiMatra-deva" format="1">
  <advance width="564"/>
  <unicode hex="0940"/>
  <outline>
    <contour>
      <point x="359" y="1228" type="line"/>
      <point x="228" y="1596"/>
      <point x="34" y="1798"/>
      <point x="-201" y="1798" type="curve" smooth="yes"/>
      <point x="-338" y="1798"/>
      <point x="-414" y="1713"/>
      <point x="-414" y="1602" type="curve" smooth="yes"/>
      <point x="-414" y="1500"/>
      <point x="-362" y="1411"/>
      <point x="-269" y="1349" type="curve"/>
      <point x="-181" y="1435" type="line"/>
      <point x="-226" y="1476"/>
      <point x="-255" y="1512"/>
      <point x="-255" y="1560" type="curve" smooth="yes"/>
      <point x="-255" y="1605"/>
      <point x="-230" y="1634"/>
      <point x="-179" y="1634" type="curve" smooth="yes"/>
      <point x="-12" y="1634"/>
      <point x="166" y="1373"/>
      <point x="250" y="1134" type="curve"/>
    </contour>
    <contour>
      <point x="376" y="1" type="line"/>
      <point x="376" y="1215" type="line"/>
      <point x="187" y="1215" type="line"/>
      <point x="187" y="1" type="line"/>
    </contour>
    <contour>
      <point x="581" y="1114" type="line"/>
      <point x="581" y="1277" type="line"/>
      <point x="-18" y="1277" type="line"/>
      <point x="-18" y="1114" type="line"/>
    </contour>
    <contour>
      <point x="-215" y="1167" type="move" name="iimatra"/>
    </contour>
    <contour>
      <point x="425" y="1167" type="move" name="top"/>
    </contour>
    <contour>
      <point x="580" y="1208" type="move" name="topcandra"/>
    </contour>
  </outline>
</glyph>
<glyph name="uMatra-deva" format="1">
  <advance width="540"/>
  <unicode hex="0941"/>
  <outline>
    <contour>
      <point x="41" y="-155" type="line"/>
      <point x="104" y="-130"/>
      <point x="160" y="-116"/>
      <point x="216" y="-116" type="curve" smooth="yes"/>
      <point x="292" y="-116"/>
      <point x="337" y="-144"/>
      <point x="337" y="-232" type="curve" smooth="yes"/>
      <point x="337" y="-306"/>
      <point x="288" y="-354"/>
      <point x="180" y="-354" type="curve" smooth="yes"/>
      <point x="73" y="-354"/>
      <point x="-42" y="-312"/>
      <point x="-215" y="-120" type="curve"/>
      <point x="-310" y="-209" type="line"/>
      <point x="-114" y="-457"/>
      <point x="41" y="-518"/>
      <point x="182" y="-518" type="curve" smooth="yes"/>
      <point x="394" y="-518"/>
      <point x="511" y="-395"/>
      <point x="511" y="-232" type="curve" smooth="yes"/>
      <point x="511" y="-81"/>
      <point x="409" y="43"/>
      <point x="215" y="43" type="curve" smooth="yes"/>
      <point x="153" y="43"/>
      <point x="67" y="29"/>
      <point x="-9" y="-10" type="curve"/>
    </contour>
    <contour>
      <point x="235" y="27" type="move" name="_bottom"/>
    </contour>
  </outline>
</glyph>
<glyph name="rVocalicMatra-deva" format="1">
  <advance width="540"/>
  <unicode hex="0943"/>
  <outline>
    <contour>
      <point x="128" y="85"/>
      <point x="4" y="-19"/>
      <point x="4" y="-176" type="curve"/>
      <point x="4" y="-319"/>
      <point x="129" y="-413"/>
      <point x="277" y="-413" type="curve" smooth="yes"/>
      <point x="385" y="-413"/>
      <point x="486" y="-374"/>
      <point x="563" y="-317" type="curve"/>
      <point x="500" y="-190" type="line"/>
      <point x="437" y="-231"/>
      <point x="362" y="-264"/>
      <point x="291" y="-264" type="curve" smooth="yes"/>
      <point x="215" y="-264"/>
      <point x="176" y="-228"/>
      <point x="176" y="-170" type="curve" smooth="yes"/>
      <point x="176" y="-98"/>
      <point x="224" y="-47"/>
      <point x="376" y="3" type="curve"/>
      <point x="312" y="129" type="line"/>
    </contour>
    <contour>
      <point x="280" y="27" type="move" name="_bottom"/>
    </contour>
  </outline>
</glyph>
<glyph name="rrVocalicMatra-deva" format="1">
  <advance width="550"/>
  <unicode hex="0944"/>
  <outline>
    <contour>
      <point x="358" y="143"/>
      <point x="342" y="144"/>
      <point x="327" y="144" type="curve" smooth="yes"/>
      <point x="177" y="144"/>
      <point x="-13" y="70"/>
      <point x="-13" y="-85" type="curve" smooth="yes"/>
      <point x="-13" y="-159"/>
      <point x="5" y="-279"/>
      <point x="269" y="-323" type="curve"/>
      <point x="356" y="-252" type="line"/>
      <point x="204" y="-228"/>
      <point x="167" y="-168"/>
      <point x="167" y="-112" type="curve" smooth="yes"/>
      <point x="167" y="-35"/>
      <point x="257" y="-8"/>
      <point x="373" y="-4" type="curve"/>
      <point x="373" y="142" type="line"/>
    </contour>
    <contour>
      <point x="149" y="-225"/>
      <point x="65" y="-356"/>
      <point x="65" y="-468" type="curve" smooth="yes"/>
      <point x="65" y="-603"/>
      <point x="168" y="-702"/>
      <point x="327" y="-702" type="curve" smooth="yes"/>
      <point x="435" y="-702"/>
      <point x="540" y="-666"/>
      <point x="618" y="-608" type="curve"/>
      <point x="556" y="-482" type="line"/>
      <point x="490" y="-525"/>
      <point x="409" y="-555"/>
      <point x="341" y="-555" type="curve" smooth="yes"/>
      <point x="267" y="-555"/>
      <point x="237" y="-524"/>
      <point x="237" y="-467" type="curve" smooth="yes"/>
      <point x="237" y="-404"/>
      <point x="291" y="-364"/>
      <point x="434" y="-347" type="curve"/>
      <point x="416" y="-211" type="line"/>
    </contour>
    <contour>
      <point x="280" y="27" type="move" name="_bottom"/>
    </contour>
  </outline>
</glyph>
<glyph name="eCandraMatra-deva" format="1">
  <advance width="540"/>
  <unicode hex="0945"/>
  <outline>
    <contour>
      <point x="-75" y="1578" type="line"/>
      <point x="-26" y="1461"/>
      <point x="84" y="1351"/>
      <point x="269" y="1351" type="curve" smooth="yes"/>
      <point x="431" y="1351"/>
      <point x="544" y="1435"/>
      <point x="615" y="1589" type="curve"/>
      <point x="495" y="1657" type="line"/>
      <point x="453" y="1589"/>
      <point x="398" y="1516"/>
      <point x="276" y="1516" type="curve" smooth="yes"/>
      <point x="162" y="1516"/>
      <point x="95" y="1578"/>
      <point x="51" y="1652" type="curve"/>
    </contour>
    <contour>
      <point x="277" y="1337" type="move" name="top"/>
    </contour>
    <contour>
      <point x="275" y="1167" type="move" name="_topcandra"/>
    </contour>
  </outline>
</glyph>
<glyph name="eShortMatra-deva" format="1">
  <advance width="540"/>
  <unicode hex="0946"/>
  <outline>
    <contour>
      <point x="293" y="1145" type="line"/>
      <point x="339" y="1222"/>
      <point x="348" y="1273"/>
      <point x="348" y="1325" type="curve" smooth="yes"/>
      <point x="348" y="1484"/>
      <point x="258" y="1565"/>
      <point x="79" y="1590" type="curve" smooth="yes"/>
      <point x="-100" y="1615" type="line" smooth="yes"/>
      <point x="-214" y="1632"/>
      <point x="-249" y="1677"/>
      <point x="-249" y="1734" type="curve" smooth="yes"/>
      <point x="-249" y="1747"/>
      <point x="-248" y="1766"/>
      <point x="-246" y="1786" type="curve"/>
      <point x="-368" y="1803" type="line"/>
      <point x="-389" y="1756"/>
      <point x="-395" y="1719"/>
      <point x="-395" y="1688" type="curve" smooth="yes"/>
      <point x="-395" y="1582"/>
      <point x="-325" y="1481"/>
      <point x="-157" y="1455" type="curve" smooth="yes"/>
      <point x="30" y="1426" type="line" smooth="yes"/>
      <point x="159" y="1407"/>
      <point x="196" y="1376"/>
      <point x="196" y="1289" type="curve" smooth="yes"/>
      <point x="196" y="1258"/>
      <point x="191" y="1221"/>
      <point x="186" y="1176" type="curve"/>
    </contour>
    <contour>
      <point x="325" y="1346" type="move" name="top"/>
    </contour>
    <contour>
      <point x="270" y="1167" type="move" name="_top"/>
    </contour>
  </outline>
</glyph>
<glyph name="aiMatra-deva" format="1">
  <advance width="540"/>
  <unicode hex="0948"/>
  <outline>
    <contour>
      <point x="306" y="1240" type="line"/>
      <point x="205" y="1680"/>
      <point x="88" y="1796"/>
      <point x="-206" y="1796" type="curve" smooth="yes"/>
      <point x="-303" y="1796"/>
      <point x="-378" y="1782"/>
      <point x="-423" y="1772" type="curve"/>
      <point x="-391" y="1628" type="line"/>
      <point x="-339" y="1636"/>
      <point x="-253" y="1649"/>
      <point x="-192" y="1649" type="curve" smooth="yes"/>
      <point x="-28" y="1649"/>
      <point x="52" y="1641"/>
      <point x="192" y="1306" type="curve"/>
      <point x="224" y="1322" type="line"/>
      <point x="63" y="1495"/>
      <point x="5" y="1539"/>
      <point x="-138" y="1539" type="curve" smooth="yes"/>
      <point x="-214" y="1540"/>
      <point x="-300" y="1529"/>
      <point x="-377" y="1511" type="curve"/>
      <point x="-344" y="1378" type="line"/>
      <point x="-269" y="1393"/>
      <point x="-207" y="1401"/>
      <point x="-138" y="1401" type="curve" smooth="yes"/>
      <point x="26" y="1401"/>
      <point x="104" y="1332"/>
      <point x="207" y="1201" type="curve"/>
    </contour>
    <contour>
      <point x="444" y="1474" type="move" name="topcandra"/>
    </contour>
    <contour>
      <point x="231" y="1167" type="move" name="_top"/>
    </contour>
  </outline>
</glyph>
<glyph name="oShortMatra-deva" format="1">
  <advance width="559"/>
  <unicode hex="094A"/>
  <outline>
    <component base="aaMatra-deva"/>
    <component base="eShortMatra-deva" xOffset="10"/>
    <contour>
      <point x="328" y="1366" type="move" name="top"/>
    </contour>
    <contour>
      <point x="576" y="1220" type="move" name="topcandra"/>
    </contour>
  </outline>
</glyph>
<glyph name="oMatra-deva" format="1">
  <advance width="559"/>
  <unicode hex="094B"/>
  <outline>
    <component base="aaMatra-deva"/>
    <component base="eMatra-deva" xOffset="10"/>
    <contour>
      <point x="420" y="1179" type="move" name="top"/>
    </contour>
    <contour>
      <point x="575" y="1220" type="move" name="topcandra"/>
    </contour>
  </outline>
</glyph>
<glyph name="auMatra-deva" format="1">
  <advance width="559"/>
  <unicode hex="094C"/>
  <outline>
    <component base="aaMatra-deva"/>
    <component base="aiMatra-deva" xOffset="49"/>
    <contour>
      <point x="440" y="1181" type="move" name="top"/>
    </contour>
    <contour>
      <point x="585" y="1220" type="move" name="topcandra"/>
    </contour>
  </outline>
</glyph>
<glyph name="awMatra-deva" format="1">
  <advance width="559"/>
  <unicode hex="094F"/>
  <outline>
    <contour>
      <point x="-422" y="1832"/>
      <point x="-435" y="1798"/>
      <point x="-435" y="1766" type="curve" smooth="yes"/>
      <point x="-435" y="1691"/>
      <point x="-369" y="1621"/>
      <point x="-243" y="1600" type="curve" smooth="yes"/>
      <point x="39" y="1555" type="line" smooth="yes"/>
      <point x="184" y="1531"/>
      <point x="272" y="1502"/>
      <point x="272" y="1372" type="curve" smooth="yes"/>
      <point x="272" y="1336"/>
      <point x="269" y="1299"/>
      <point x="243" y="1242" type="curve"/>
      <point x="306" y="1196" type="line"/>
      <point x="374" y="1290"/>
      <point x="399" y="1371"/>
      <point x="399" y="1445" type="curve" smooth="yes"/>
      <point x="399" y="1586"/>
      <point x="295" y="1660"/>
      <point x="116" y="1689" type="curve" smooth="yes"/>
      <point x="-147" y="1731" type="line" smooth="yes"/>
      <point x="-277" y="1752"/>
      <point x="-311" y="1774"/>
      <point x="-316" y="1821" type="curve" smooth="yes"/>
      <point x="-316" y="1829"/>
      <point x="-316" y="1838"/>
      <point x="-315" y="1847" type="curve"/>
      <point x="-393" y="1862" type="line"/>
    </contour>
    <contour>
      <point x="-579" y="1671"/>
      <point x="-589" y="1633"/>
      <point x="-589" y="1597" type="curve" smooth="yes"/>
      <point x="-589" y="1493"/>
      <point x="-512" y="1400"/>
      <point x="-336" y="1380" type="curve" smooth="yes"/>
      <point x="21" y="1340" type="line" smooth="yes"/>
      <point x="156" y="1323"/>
      <point x="187" y="1296"/>
      <point x="187" y="1218" type="curve" smooth="yes"/>
      <point x="187" y="1195"/>
      <point x="184" y="1167"/>
      <point x="181" y="1132" type="curve"/>
      <point x="244" y="1111" type="line"/>
      <point x="260" y="1162"/>
      <point x="273" y="1214"/>
      <point x="273" y="1257" type="curve" smooth="yes"/>
      <point x="273" y="1389"/>
      <point x="214" y="1445"/>
      <point x="17" y="1476" type="curve" smooth="yes"/>
      <point x="-292" y="1524" type="line" smooth="yes"/>
      <point x="-440" y="1546"/>
      <point x="-470" y="1595"/>
      <point x="-473" y="1662" type="curve" smooth="yes"/>
      <point x="-473" y="1672"/>
      <point x="-473" y="1682"/>
      <point x="-472" y="1692" type="curve"/>
      <point x="-559" y="1707" type="line"/>
    </contour>
    <component base="aaMatra-deva"/>
  </outline>
</glyph>
<glyph name="om-deva" format="1">
  <advance width="1881"/>
  <unicode hex="0950"/>
  <outline>
    <contour>
      <point x="1359" y="1023"/>
      <point x="1268" y="916"/>
      <point x="1171" y="763" type="curve" smooth="yes"/>
      <point x="1078" y="619"/>
      <point x="1008" y="477"/>
      <point x="914" y="477" type="curve" smooth="yes"/>
      <point x="865" y="477"/>
      <point x="815" y="507"/>
      <point x="786" y="555" type="curve"/>
      <point x="765" y="448" type="line"/>
      <point x="829" y="332"/>
      <point x="889" y="303"/>
      <point x="956" y="304" type="curve"/>
      <point x="1079" y="305"/>
      <point x="1166" y="444"/>
      <point x="1257" y="593" type="curve" smooth="yes"/>
      <point x="1351" y="748"/>
      <point x="1412" y="857"/>
      <point x="1509" y="857" type="curve" smooth="yes"/>
      <point x="1595" y="857"/>
      <point x="1644" y="789"/>
      <point x="1644" y="654" type="curve" smooth="yes"/>
      <point x="1644" y="516"/>
      <point x="1593" y="451"/>
      <point x="1502" y="451" type="curve" smooth="yes"/>
      <point x="1395" y="451"/>
      <point x="1323" y="564"/>
      <point x="1289" y="739" type="curve"/>
      <point x="1188" y="615" type="line"/>
      <point x="1220" y="409"/>
      <point x="1347" y="285"/>
      <point x="1518" y="285" type="curve" smooth="yes"/>
      <point x="1707" y="285"/>
      <point x="1821" y="436"/>
      <point x="1821" y="655" type="curve" smooth="yes"/>
      <point x="1821" y="882"/>
      <point x="1701" y="1023"/>
      <point x="1518" y="1023" type="curve" smooth="yes"/>
    </contour>
    <contour>
      <point x="360" y="707" type="line"/>
      <point x="552" y="651"/>
      <point x="645" y="576"/>
      <point x="645" y="451" type="curve" smooth="yes"/>
      <point x="645" y="324"/>
      <point x="570" y="266"/>
      <point x="456" y="266" type="curve" smooth="yes"/>
      <point x="366" y="266"/>
      <point x="241" y="302"/>
      <point x="126" y="415" type="curve"/>
      <point x="35" y="293" type="line"/>
      <point x="169" y="152"/>
      <point x="328" y="93"/>
      <point x="468" y="93" type="curve" smooth="yes"/>
      <point x="671" y="93"/>
      <point x="835" y="216"/>
      <point x="835" y="429" type="curve" smooth="yes"/>
      <point x="835" y="621"/>
      <point x="703" y="744"/>
      <point x="464" y="759" type="curve"/>
    </contour>
    <contour>
      <point x="356" y="1282"/>
      <point x="267" y="1257"/>
      <point x="169" y="1217" type="curve"/>
      <point x="223" y="1060" type="line"/>
      <point x="321" y="1099"/>
      <point x="392" y="1114"/>
      <point x="452" y="1114" type="curve" smooth="yes"/>
      <point x="549" y="1114"/>
      <point x="609" y="1077"/>
      <point x="609" y="983" type="curve" smooth="yes"/>
      <point x="609" y="867"/>
      <point x="516" y="826"/>
      <point x="376" y="802" type="curve" smooth="yes"/>
      <point x="345" y="797"/>
      <point x="358" y="799"/>
      <point x="303" y="793" type="curve"/>
      <point x="316" y="630" type="line"/>
      <point x="329" y="630"/>
      <point x="341" y="630"/>
      <point x="358" y="632" type="curve" smooth="yes"/>
      <point x="431" y="635"/>
      <point x="524" y="649"/>
      <point x="605" y="701" type="curve" smooth="yes"/>
      <point x="715" y="766"/>
      <point x="783" y="855"/>
      <point x="783" y="993" type="curve" smooth="yes"/>
      <point x="783" y="1184"/>
      <point x="655" y="1282"/>
      <point x="456" y="1282" type="curve" smooth="yes"/>
    </contour>
    <component base="candraBindu-deva" xOffset="819" yOffset="-261"/>
  </outline>
</glyph>
<glyph name="anudatta-deva" format="1">
  <advance width="540"/>
  <unicode hex="0952"/>
  <outline>
    <contour>
      <point x="-854" y="-298" type="line"/>
      <point x="-854" y="-451" type="line"/>
      <point x="-101" y="-451" type="line"/>
      <point x="-101" y="-298" type="line"/>
    </contour>
  </outline>
</glyph>
<glyph name="acute-deva" format="1">
  <advance width="600"/>
  <unicode hex="0954"/>
  <outline>
    <contour>
      <point x="34" y="1807" type="line"/>
      <point x="-361" y="1415" type="line"/>
      <point x="-270" y="1319" type="line"/>
      <point x="150" y="1709" type="line"/>
    </contour>
  </outline>
</glyph>
<glyph name="uueMatra-deva" format="1">
  <advance width="540"/>
  <unicode hex="0957"/>
  <outline>
    <contour>
      <point x="-69" y="-18" type="line"/>
      <point x="-20" y="-134"/>
      <point x="98" y="-249"/>
      <point x="282" y="-249" type="curve" smooth="yes"/>
      <point x="445" y="-249"/>
      <point x="558" y="-165"/>
      <point x="629" y="-11" type="curve"/>
      <point x="508" y="57" type="line"/>
      <point x="466" y="-11"/>
      <point x="396" y="-84"/>
      <point x="270" y="-84" type="curve" smooth="yes"/>
      <point x="142" y="-84"/>
      <point x="76" y="-22"/>
      <point x="31" y="52" type="curve"/>
    </contour>
    <contour>
      <point x="-56" y="-327" type="line"/>
      <point x="-7" y="-444"/>
      <point x="111" y="-558"/>
      <point x="295" y="-558" type="curve" smooth="yes"/>
      <point x="458" y="-558"/>
      <point x="571" y="-474"/>
      <point x="642" y="-321" type="curve"/>
      <point x="521" y="-253" type="line"/>
      <point x="479" y="-320"/>
      <point x="409" y="-394"/>
      <point x="283" y="-394" type="curve" smooth="yes"/>
      <point x="155" y="-394"/>
      <point x="89" y="-332"/>
      <point x="44" y="-257" type="curve"/>
    </contour>
  </outline>
</glyph>
<glyph name="llVocalicMatra-deva" format="1">
  <advance width="540"/>
  <unicode hex="0963"/>
  <outline>
    <contour>
      <point x="635" y="-337"/>
      <point x="627" y="-336"/>
      <point x="613" y="-336" type="curve" smooth="yes"/>
      <point x="479" y="-336"/>
      <point x="310" y="-402"/>
      <point x="310" y="-541" type="curve" smooth="yes"/>
      <point x="310" y="-606"/>
      <point x="326" y="-714"/>
      <point x="562" y="-752" type="curve"/>
      <point x="640" y="-689" type="line"/>
      <point x="505" y="-667"/>
      <point x="471" y="-614"/>
      <point x="471" y="-564" type="curve" smooth="yes"/>
      <point x="471" y="-496"/>
      <point x="551" y="-472"/>
      <point x="654" y="-468" type="curve"/>
      <point x="654" y="-338" type="line"/>
    </contour>
    <contour>
      <point x="454" y="-665"/>
      <point x="379" y="-781"/>
      <point x="379" y="-881" type="curve" smooth="yes"/>
      <point x="379" y="-1002"/>
      <point x="470" y="-1090"/>
      <point x="613" y="-1090" type="curve" smooth="yes"/>
      <point x="709" y="-1090"/>
      <point x="803" y="-1058"/>
      <point x="874" y="-1006" type="curve"/>
      <point x="817" y="-893" type="line"/>
      <point x="758" y="-932"/>
      <point x="686" y="-958"/>
      <point x="625" y="-958" type="curve" smooth="yes"/>
      <point x="560" y="-958"/>
      <point x="533" y="-932"/>
      <point x="533" y="-881" type="curve" smooth="yes"/>
      <point x="533" y="-824"/>
      <point x="581" y="-789"/>
      <point x="710" y="-774" type="curve"/>
      <point x="693" y="-652" type="line"/>
    </contour>
    <contour>
      <point x="69" y="-411" type="line"/>
      <point x="-9" y="-313"/>
      <point x="-50" y="-248"/>
      <point x="-50" y="-157" type="curve" smooth="yes"/>
      <point x="-50" y="-57"/>
      <point x="8" y="-21"/>
      <point x="74" y="-21" type="curve" smooth="yes"/>
      <point x="161" y="-21"/>
      <point x="224" y="-96"/>
      <point x="287" y="-203" type="curve"/>
      <point x="306" y="-88" type="line"/>
      <point x="245" y="67"/>
      <point x="158" y="131"/>
      <point x="38" y="131" type="curve" smooth="yes"/>
      <point x="-121" y="131"/>
      <point x="-215" y="29"/>
      <point x="-215" y="-148" type="curve" smooth="yes"/>
      <point x="-215" y="-286"/>
      <point x="-150" y="-392"/>
      <point x="-65" y="-497" type="curve"/>
      <point x="-60" y="-497" type="line"/>
    </contour>
    <contour>
      <point x="653" y="-468" type="line"/>
      <point x="717" y="-403"/>
      <point x="780" y="-286"/>
      <point x="780" y="-162" type="curve" smooth="yes"/>
      <point x="780" y="10"/>
      <point x="683" y="133"/>
      <point x="497" y="133" type="curve" smooth="yes"/>
      <point x="316" y="133"/>
      <point x="215" y="2"/>
      <point x="215" y="-170" type="curve" smooth="yes"/>
      <point x="215" y="-207"/>
      <point x="219" y="-241"/>
      <point x="230" y="-275" type="curve"/>
      <point x="375" y="-259" type="line"/>
      <point x="371" y="-232"/>
      <point x="368" y="-207"/>
      <point x="368" y="-185" type="curve" smooth="yes"/>
      <point x="368" y="-87"/>
      <point x="415" y="-20"/>
      <point x="503" y="-20" type="curve" smooth="yes"/>
      <point x="585" y="-20"/>
      <point x="622" y="-87"/>
      <point x="622" y="-174" type="curve" smooth="yes"/>
      <point x="622" y="-250"/>
      <point x="580" y="-337"/>
      <point x="529" y="-396" type="curve"/>
      <point x="530" y="-402" type="line"/>
    </contour>
    <contour>
      <point x="280" y="27" type="move" name="_bottom"/>
    </contour>
  </outline>
</glyph>
<glyph name="four-deva" format="1">
  <advance width="1023"/>
  <unicode hex="096A"/>
  <outline>
    <contour>
      <point x="9" y="1077" type="line"/>
      <point x="251" y="978"/>
      <point x="677" y="728"/>
      <point x="677" y="456" type="curve" smooth="yes"/>
      <point x="677" y="338"/>
      <point x="632" y="273"/>
      <point x="514" y="274" type="curve" smooth="yes"/>
      <point x="406" y="274"/>
      <point x="348" y="325"/>
      <point x="348" y="467" type="curve" smooth="yes"/>
      <point x="348" y="741"/>
      <point x="721" y="903"/>
      <point x="958" y="975" type="curve"/>
      <point x="889" y="1128" type="line"/>
      <point x="689" y="1069"/>
      <point x="169" y="845"/>
      <point x="169" y="453" type="curve" smooth="yes"/>
      <point x="169" y="229"/>
      <point x="297" y="107"/>
      <point x="507" y="107" type="curve" smooth="yes"/>
      <point x="757" y="107"/>
      <point x="852" y="258"/>
      <point x="852" y="442" type="curve" smooth="yes"/>
      <point x="854" y="823"/>
      <point x="345" y="1118"/>
      <point x="86" y="1220" type="curve"/>
    </contour>
  </outline>
</glyph>
<glyph name="five-deva" format="1">
  <advance width="1062"/>
  <unicode hex="096B"/>
  <outline>
    <contour>
      <point x="188" y="1017"/>
      <point x="101" y="754"/>
      <point x="101" y="568" type="curve" smooth="yes"/>
      <point x="101" y="307"/>
      <point x="267" y="193"/>
      <point x="475" y="193" type="curve" smooth="yes"/>
      <point x="714" y="193"/>
      <point x="906" y="355"/>
      <point x="898" y="505" type="curve" smooth="yes"/>
      <point x="892" y="619"/>
      <point x="765" y="670"/>
      <point x="683" y="687" type="curve"/>
      <point x="552" y="601" type="line"/>
      <point x="725" y="358" type="line"/>
      <point x="772" y="529" type="line"/>
      <point x="676" y="408"/>
      <point x="597" y="370"/>
      <point x="480" y="370" type="curve" smooth="yes"/>
      <point x="393" y="370"/>
      <point x="289" y="418"/>
      <point x="289" y="582" type="curve" smooth="yes"/>
      <point x="289" y="757"/>
      <point x="410" y="983"/>
      <point x="580" y="1179" type="curve"/>
      <point x="422" y="1295" type="line"/>
    </contour>
    <contour>
      <point x="717" y="367" type="line"/>
      <point x="952" y="60" type="line"/>
      <point x="1104" y="186" type="line"/>
      <point x="832" y="456" type="line"/>
    </contour>
  </outline>
</glyph>
<glyph name="six-deva" format="1">
  <advance width="931"/>
  <unicode hex="096C"/>
  <outline>
    <contour>
      <point x="309" y="816"/>
      <point x="94" y="728"/>
      <point x="94" y="459" type="curve" smooth="yes"/>
      <point x="94" y="240"/>
      <point x="235" y="113"/>
      <point x="473" y="112" type="curve" smooth="yes"/>
      <point x="685" y="112"/>
      <point x="896" y="203"/>
      <point x="895" y="346" type="curve" smooth="yes"/>
      <point x="894" y="444"/>
      <point x="778" y="505"/>
      <point x="707" y="530" type="curve"/>
      <point x="572" y="452" type="line"/>
      <point x="712" y="246" type="line"/>
      <point x="744" y="350" type="line"/>
      <point x="673" y="304"/>
      <point x="593" y="275"/>
      <point x="488" y="275" type="curve" smooth="yes"/>
      <point x="339" y="275"/>
      <point x="282" y="345"/>
      <point x="282" y="456" type="curve" smooth="yes"/>
      <point x="282" y="593"/>
      <point x="385" y="649"/>
      <point x="538" y="649" type="curve" smooth="yes"/>
      <point x="573" y="649"/>
      <point x="606" y="648"/>
      <point x="637" y="645" type="curve"/>
      <point x="642" y="805" type="line"/>
      <point x="608" y="810"/>
      <point x="563" y="814"/>
      <point x="517" y="815" type="curve" smooth="yes"/>
    </contour>
    <contour>
      <point x="698" y="264" type="line"/>
      <point x="938" y="-78" type="line"/>
      <point x="1083" y="52" type="line"/>
      <point x="778" y="343" type="line"/>
    </contour>
    <contour>
      <point x="272" y="1297"/>
      <point x="108" y="1200"/>
      <point x="108" y="1010" type="curve" smooth="yes"/>
      <point x="108" y="880"/>
      <point x="198" y="771"/>
      <point x="394" y="708" type="curve"/>
      <point x="508" y="771" type="line"/>
      <point x="496" y="775" type="line"/>
      <point x="414" y="811"/>
      <point x="306" y="880"/>
      <point x="306" y="976" type="curve" smooth="yes"/>
      <point x="306" y="1075"/>
      <point x="370" y="1128"/>
      <point x="494" y="1128" type="curve" smooth="yes"/>
      <point x="562" y="1128"/>
      <point x="656" y="1116"/>
      <point x="719" y="1093" type="curve"/>
      <point x="755" y="1256" type="line"/>
      <point x="672" y="1283"/>
      <point x="571" y="1297"/>
      <point x="488" y="1297" type="curve" smooth="yes"/>
    </contour>
  </outline>
</glyph>
<glyph name="seven-deva" format="1">
  <advance width="1115"/>
  <unicode hex="096D"/>
  <outline>
    <contour>
      <point x="145" y="1124"/>
      <point x="88" y="899"/>
      <point x="84" y="661" type="curve" smooth="yes"/>
      <point x="81" y="441"/>
      <point x="145" y="41"/>
      <point x="561" y="41" type="curve" smooth="yes"/>
      <point x="964" y="41"/>
      <point x="1027" y="383"/>
      <point x="1027" y="633" type="curve" smooth="yes"/>
      <point x="1027" y="965"/>
      <point x="898" y="1117"/>
      <point x="681" y="1116" type="curve" smooth="yes"/>
      <point x="502" y="1114"/>
      <point x="410" y="1002"/>
      <point x="410" y="825" type="curve" smooth="yes"/>
      <point x="410" y="658"/>
      <point x="517" y="531"/>
      <point x="639" y="475" type="curve"/>
      <point x="729" y="586" type="line"/>
      <point x="616" y="658"/>
      <point x="575" y="736"/>
      <point x="575" y="820" type="curve" smooth="yes"/>
      <point x="575" y="905"/>
      <point x="611" y="952"/>
      <point x="690" y="952" type="curve" smooth="yes"/>
      <point x="799" y="952"/>
      <point x="847" y="838"/>
      <point x="847" y="628" type="curve" smooth="yes"/>
      <point x="847" y="451"/>
      <point x="816" y="214"/>
      <point x="567" y="214" type="curve" smooth="yes"/>
      <point x="355" y="214"/>
      <point x="270" y="362"/>
      <point x="270" y="666" type="curve" smooth="yes"/>
      <point x="270" y="853"/>
      <point x="320" y="1050"/>
      <point x="406" y="1240" type="curve"/>
      <point x="232" y="1306" type="line"/>
    </contour>
  </outline>
</glyph>
<glyph name="eight-deva" format="1">
  <advance width="844"/>
  <unicode hex="096E"/>
  <outline>
    <contour>
      <point x="282" y="986"/>
      <point x="82" y="716"/>
      <point x="81" y="463" type="curve" smooth="yes"/>
      <point x="81" y="281"/>
      <point x="173" y="43"/>
      <point x="504" y="39" type="curve" smooth="yes"/>
      <point x="635" y="37"/>
      <point x="767" y="73"/>
      <point x="833" y="116" type="curve"/>
      <point x="780" y="268" type="line"/>
      <point x="683" y="231"/>
      <point x="593" y="212"/>
      <point x="515" y="213" type="curve" smooth="yes"/>
      <point x="380" y="215"/>
      <point x="273" y="275"/>
      <point x="273" y="466" type="curve" smooth="yes"/>
      <point x="273" y="667"/>
      <point x="415" y="840"/>
      <point x="743" y="1188" type="curve"/>
      <point x="604" y="1302" type="line"/>
    </contour>
  </outline>
</glyph>
<glyph name="ooe-deva" format="1">
  <advance width="1960"/>
  <unicode hex="0974"/>
  <outline>
    <contour>
      <point x="1580" y="1097" type="line"/>
      <point x="1769" y="1097" type="line"/>
      <point x="1769" y="1548" type="line"/>
      <point x="1580" y="1548" type="line"/>
    </contour>
    <component base="aa-deva"/>
  </outline>
</glyph>
<glyph name="aw-deva" format="1">
  <advance width="1953"/>
  <unicode hex="0975"/>
  <outline>
    <contour>
      <point x="997" y="1832"/>
      <point x="984" y="1798"/>
      <point x="984" y="1766" type="curve" smooth="yes"/>
      <point x="984" y="1691"/>
      <point x="1050" y="1621"/>
      <point x="1176" y="1600" type="curve" smooth="yes"/>
      <point x="1458" y="1555" type="line" smooth="yes"/>
      <point x="1603" y="1531"/>
      <point x="1691" y="1502"/>
      <point x="1691" y="1372" type="curve" smooth="yes"/>
      <point x="1691" y="1336"/>
      <point x="1688" y="1299"/>
      <point x="1662" y="1242" type="curve"/>
      <point x="1725" y="1196" type="line"/>
      <point x="1793" y="1290"/>
      <point x="1818" y="1371"/>
      <point x="1818" y="1445" type="curve" smooth="yes"/>
      <point x="1818" y="1586"/>
      <point x="1714" y="1660"/>
      <point x="1535" y="1689" type="curve" smooth="yes"/>
      <point x="1273" y="1731" type="line" smooth="yes"/>
      <point x="1142" y="1752"/>
      <point x="1108" y="1774"/>
      <point x="1104" y="1821" type="curve" smooth="yes"/>
      <point x="1103" y="1829"/>
      <point x="1103" y="1838"/>
      <point x="1104" y="1847" type="curve"/>
      <point x="1027" y="1862" type="line"/>
    </contour>
    <contour>
      <point x="840" y="1671"/>
      <point x="830" y="1633"/>
      <point x="830" y="1597" type="curve" smooth="yes"/>
      <point x="830" y="1493"/>
      <point x="907" y="1400"/>
      <point x="1082" y="1380" type="curve" smooth="yes"/>
      <point x="1439" y="1340" type="line" smooth="yes"/>
      <point x="1574" y="1323"/>
      <point x="1605" y="1296"/>
      <point x="1605" y="1218" type="curve" smooth="yes"/>
      <point x="1605" y="1195"/>
      <point x="1602" y="1167"/>
      <point x="1599" y="1132" type="curve"/>
      <point x="1662" y="1111" type="line"/>
      <point x="1679" y="1162"/>
      <point x="1691" y="1214"/>
      <point x="1691" y="1257" type="curve" smooth="yes"/>
      <point x="1691" y="1389"/>
      <point x="1632" y="1445"/>
      <point x="1436" y="1476" type="curve" smooth="yes"/>
      <point x="1126" y="1524" type="line" smooth="yes"/>
      <point x="979" y="1546"/>
      <point x="948" y="1595"/>
      <point x="946" y="1662" type="curve" smooth="yes"/>
      <point x="945" y="1672"/>
      <point x="946" y="1682"/>
      <point x="947" y="1692" type="curve"/>
      <point x="860" y="1707" type="line"/>
    </contour>
    <component base="aa-deva"/>
  </outline>
</glyph>
<glyph name="uue-deva" format="1">
  <advance width="1396"/>
  <unicode hex="0977"/>
  <outline>
    <contour>
      <point x="227" y="-18" type="line"/>
      <point x="277" y="-134"/>
      <point x="394" y="-249"/>
      <point x="578" y="-249" type="curve" smooth="yes"/>
      <point x="741" y="-249"/>
      <point x="854" y="-165"/>
      <point x="925" y="-11" type="curve"/>
      <point x="804" y="57" type="line"/>
      <point x="762" y="-11"/>
      <point x="692" y="-84"/>
      <point x="566" y="-84" type="curve" smooth="yes"/>
      <point x="438" y="-84"/>
      <point x="372" y="-22"/>
      <point x="327" y="52" type="curve"/>
    </contour>
    <contour>
      <point x="241" y="-327" type="line"/>
      <point x="291" y="-444"/>
      <point x="408" y="-558"/>
      <point x="592" y="-558" type="curve" smooth="yes"/>
      <point x="755" y="-558"/>
      <point x="868" y="-474"/>
      <point x="939" y="-321" type="curve"/>
      <point x="818" y="-253" type="line"/>
      <point x="776" y="-320"/>
      <point x="706" y="-394"/>
      <point x="580" y="-394" type="curve" smooth="yes"/>
      <point x="452" y="-394"/>
      <point x="386" y="-332"/>
      <point x="341" y="-257" type="curve"/>
    </contour>
    <component base="a-deva"/>
  </outline>
</glyph>
<glyph name="gga-deva" format="1">
  <advance width="1144"/>
  <unicode hex="097B"/>
  <outline>
    <contour>
      <point x="72" y="68" type="line"/>
      <point x="72" y="-85" type="line"/>
      <point x="958" y="-85" type="line"/>
      <point x="958" y="68" type="line"/>
    </contour>
    <component base="ga-deva"/>
  </outline>
</glyph>
<glyph name="glottalstop-deva" format="1">
  <advance width="931"/>
  <unicode hex="097D"/>
  <outline>
    <contour>
      <point x="305" y="1295"/>
      <point x="202" y="1271"/>
      <point x="122" y="1234" type="curve"/>
      <point x="169" y="1079" type="line"/>
      <point x="246" y="1104"/>
      <point x="321" y="1131"/>
      <point x="437" y="1131" type="curve" smooth="yes"/>
      <point x="596" y="1131"/>
      <point x="675" y="1073"/>
      <point x="675" y="939" type="curve" smooth="yes"/>
      <point x="675" y="832"/>
      <point x="634" y="781"/>
      <point x="516" y="682" type="curve" smooth="yes"/>
      <point x="359" y="553"/>
      <point x="297" y="512"/>
      <point x="296" y="327" type="curve" smooth="yes"/>
      <point x="295" y="1" type="line"/>
      <point x="476" y="1" type="line"/>
      <point x="477" y="259" type="line" smooth="yes"/>
      <point x="478" y="419"/>
      <point x="515" y="448"/>
      <point x="625" y="540" type="curve" smooth="yes"/>
      <point x="802" y="686"/>
      <point x="855" y="782"/>
      <point x="855" y="949" type="curve" smooth="yes"/>
      <point x="855" y="1200"/>
      <point x="659" y="1295"/>
      <point x="434" y="1295" type="curve" smooth="yes"/>
    </contour>
  </outline>
</glyph>
<glyph name="ddda-deva" format="1">
  <advance width="1039"/>
  <unicode hex="097E"/>
  <outline>
    <contour>
      <point x="99" y="-167" type="line"/>
      <point x="99" y="-320" type="line"/>
      <point x="958" y="-320" type="line"/>
      <point x="958" y="-167" type="line"/>
    </contour>
    <component base="dda-deva"/>
  </outline>
</glyph>
<glyph name="d.sups" format="1">
  <advance width="770"/>
  <unicode hex="1D48"/>
  <outline>
    <contour>
      <point x="345" y="516" type="curve" smooth="yes" name="hr00"/>
      <point x="420" y="516"/>
      <point x="479" y="556"/>
      <point x="532" y="603" type="curve"/>
      <point x="538" y="603" type="line"/>
      <point x="552" y="532" type="line"/>
      <point x="667" y="532" type="line"/>
      <point x="667" y="1490" type="line"/>
      <point x="525" y="1490" type="line"/>
      <point x="525" y="1250" type="line"/>
      <point x="532" y="1136" type="line"/>
      <point x="479" y="1183"/>
      <point x="422" y="1211"/>
      <point x="351" y="1211" type="curve" smooth="yes"/>
      <point x="206" y="1211"/>
      <point x="65" y="1082"/>
      <point x="65" y="876" type="curve" smooth="yes"/>
      <point x="65" y="646"/>
      <point x="172" y="516"/>
    </contour>
    <contour>
      <point x="380" y="633" type="curve" smooth="yes"/>
      <point x="266" y="633"/>
      <point x="212" y="718"/>
      <point x="212" y="876" type="curve" smooth="yes"/>
      <point x="212" y="1009"/>
      <point x="288" y="1095"/>
      <point x="378" y="1095" type="curve" smooth="yes"/>
      <point x="424" y="1095"/>
      <point x="473" y="1077"/>
      <point x="525" y="1032" type="curve"/>
      <point x="525" y="714" type="line"/>
      <point x="474" y="660"/>
      <point x="430" y="633"/>
    </contour>
  </outline>
</glyph>
